%TF.GenerationSoftware,KiCad,Pcbnew,9.0.7-9.0.7~ubuntu24.04.1*%
%TF.CreationDate,2026-03-19T13:06:12-04:00*%
%TF.ProjectId,batteryTester,62617474-6572-4795-9465-737465722e6b,rev?*%
%TF.SameCoordinates,Original*%
%TF.FileFunction,Copper,L1,Top*%
%TF.FilePolarity,Positive*%
%FSLAX46Y46*%
G04 Gerber Fmt 4.6, Leading zero omitted, Abs format (unit mm)*
G04 Created by KiCad (PCBNEW 9.0.7-9.0.7~ubuntu24.04.1) date 2026-03-19 13:06:12*
%MOMM*%
%LPD*%
G01*
G04 APERTURE LIST*
G04 Aperture macros list*
%AMRoundRect*
0 Rectangle with rounded corners*
0 $1 Rounding radius*
0 $2 $3 $4 $5 $6 $7 $8 $9 X,Y pos of 4 corners*
0 Add a 4 corners polygon primitive as box body*
4,1,4,$2,$3,$4,$5,$6,$7,$8,$9,$2,$3,0*
0 Add four circle primitives for the rounded corners*
1,1,$1+$1,$2,$3*
1,1,$1+$1,$4,$5*
1,1,$1+$1,$6,$7*
1,1,$1+$1,$8,$9*
0 Add four rect primitives between the rounded corners*
20,1,$1+$1,$2,$3,$4,$5,0*
20,1,$1+$1,$4,$5,$6,$7,0*
20,1,$1+$1,$6,$7,$8,$9,0*
20,1,$1+$1,$8,$9,$2,$3,0*%
G04 Aperture macros list end*
%TA.AperFunction,ComponentPad*%
%ADD10C,1.980000*%
%TD*%
%TA.AperFunction,SMDPad,CuDef*%
%ADD11RoundRect,0.218750X-0.256250X0.218750X-0.256250X-0.218750X0.256250X-0.218750X0.256250X0.218750X0*%
%TD*%
%TA.AperFunction,SMDPad,CuDef*%
%ADD12RoundRect,0.218750X0.256250X-0.218750X0.256250X0.218750X-0.256250X0.218750X-0.256250X-0.218750X0*%
%TD*%
%TA.AperFunction,SMDPad,CuDef*%
%ADD13RoundRect,0.135000X0.135000X0.185000X-0.135000X0.185000X-0.135000X-0.185000X0.135000X-0.185000X0*%
%TD*%
%TA.AperFunction,ComponentPad*%
%ADD14R,1.700000X1.700000*%
%TD*%
%TA.AperFunction,ComponentPad*%
%ADD15C,1.700000*%
%TD*%
%TA.AperFunction,SMDPad,CuDef*%
%ADD16RoundRect,0.135000X-0.185000X0.135000X-0.185000X-0.135000X0.185000X-0.135000X0.185000X0.135000X0*%
%TD*%
%TA.AperFunction,SMDPad,CuDef*%
%ADD17R,0.750000X1.000000*%
%TD*%
%TA.AperFunction,ComponentPad*%
%ADD18R,2.000000X1.905000*%
%TD*%
%TA.AperFunction,ComponentPad*%
%ADD19O,2.000000X1.905000*%
%TD*%
%TA.AperFunction,SMDPad,CuDef*%
%ADD20RoundRect,0.250000X0.450000X-0.262500X0.450000X0.262500X-0.450000X0.262500X-0.450000X-0.262500X0*%
%TD*%
%TA.AperFunction,SMDPad,CuDef*%
%ADD21RoundRect,0.135000X-0.135000X-0.185000X0.135000X-0.185000X0.135000X0.185000X-0.135000X0.185000X0*%
%TD*%
%TA.AperFunction,HeatsinkPad*%
%ADD22O,1.000000X1.800000*%
%TD*%
%TA.AperFunction,HeatsinkPad*%
%ADD23O,1.000000X2.100000*%
%TD*%
%TA.AperFunction,ViaPad*%
%ADD24C,0.600000*%
%TD*%
%TA.AperFunction,Conductor*%
%ADD25C,0.400000*%
%TD*%
%TA.AperFunction,Conductor*%
%ADD26C,2.500000*%
%TD*%
%TA.AperFunction,Conductor*%
%ADD27C,2.000000*%
%TD*%
G04 APERTURE END LIST*
D10*
%TO.P,BT1,N*%
%TO.N,GND*%
X131600000Y-66110000D03*
%TO.P,BT1,P*%
%TO.N,V_BATT*%
X131600000Y-105890000D03*
%TD*%
D11*
%TO.P,D2,1,K*%
%TO.N,GND*%
X99515000Y-145915000D03*
%TO.P,D2,2,A*%
%TO.N,Net-(D2-A)*%
X99515000Y-147490000D03*
%TD*%
D12*
%TO.P,D1,1,K*%
%TO.N,GND*%
X101215000Y-147500000D03*
%TO.P,D1,2,A*%
%TO.N,Net-(D1-A)*%
X101215000Y-145925000D03*
%TD*%
D13*
%TO.P,R15,1*%
%TO.N,+3.3V*%
X100825000Y-148912500D03*
%TO.P,R15,2*%
%TO.N,Net-(D2-A)*%
X99805000Y-148912500D03*
%TD*%
D14*
%TO.P,J1,1,Pin_1*%
%TO.N,SDA*%
X106400000Y-142860000D03*
D15*
%TO.P,J1,2,Pin_2*%
%TO.N,SCL*%
X106400000Y-145400000D03*
%TO.P,J1,3,Pin_3*%
%TO.N,+3.3V*%
X106400000Y-147940000D03*
%TO.P,J1,4,Pin_4*%
%TO.N,GND*%
X106400000Y-150480000D03*
%TD*%
D10*
%TO.P,BT2,N*%
%TO.N,GND*%
X109700000Y-65790000D03*
%TO.P,BT2,P*%
%TO.N,V_BATT*%
X109700000Y-138010000D03*
%TD*%
D16*
%TO.P,R9,1*%
%TO.N,+3.3V*%
X121100000Y-151190000D03*
%TO.P,R9,2*%
%TO.N,BTN2*%
X121100000Y-152210000D03*
%TD*%
D17*
%TO.P,SW2,1,1*%
%TO.N,GND*%
X117325000Y-161000000D03*
X117325000Y-155000000D03*
%TO.P,SW2,2,2*%
%TO.N,BTN2*%
X121075000Y-161000000D03*
X121075000Y-155000000D03*
%TD*%
D18*
%TO.P,Q1,1,G*%
%TO.N,Net-(Q1-G)*%
X141150000Y-120940000D03*
D19*
%TO.P,Q1,2,D*%
%TO.N,V_BATT*%
X141150000Y-118400000D03*
%TO.P,Q1,3,S*%
%TO.N,SHUNT*%
X141150000Y-115860000D03*
%TD*%
D14*
%TO.P,BT3,1,+*%
%TO.N,V_BATT*%
X123000000Y-114575000D03*
D15*
%TO.P,BT3,2,-*%
%TO.N,GND*%
X123000000Y-112035000D03*
%TD*%
D17*
%TO.P,SW3,1,1*%
%TO.N,GND*%
X107325000Y-161000000D03*
X107325000Y-155000000D03*
%TO.P,SW3,2,2*%
%TO.N,BTN1*%
X111075000Y-161000000D03*
X111075000Y-155000000D03*
%TD*%
D14*
%TO.P,J3,1,Pin_1*%
%TO.N,GND*%
X126860000Y-60600000D03*
D15*
%TO.P,J3,2,Pin_2*%
%TO.N,RST*%
X129400000Y-60600000D03*
%TO.P,J3,3,Pin_3*%
%TO.N,SWD_CLK*%
X131940000Y-60600000D03*
%TO.P,J3,4,Pin_4*%
%TO.N,SWD_SWIO*%
X134480000Y-60600000D03*
%TO.P,J3,5,Pin_5*%
%TO.N,+3.3V*%
X137020000Y-60600000D03*
%TD*%
D16*
%TO.P,R8,1*%
%TO.N,+3.3V*%
X111100000Y-151200000D03*
%TO.P,R8,2*%
%TO.N,BTN1*%
X111100000Y-152220000D03*
%TD*%
%TO.P,R10,1*%
%TO.N,+3.3V*%
X131100000Y-151190000D03*
%TO.P,R10,2*%
%TO.N,BTN3*%
X131100000Y-152210000D03*
%TD*%
D20*
%TO.P,R1,1*%
%TO.N,SHUNT*%
X141100000Y-112112500D03*
%TO.P,R1,2*%
%TO.N,GND*%
X141100000Y-110287500D03*
%TD*%
D21*
%TO.P,R14,1*%
%TO.N,LED*%
X99905000Y-144512500D03*
%TO.P,R14,2*%
%TO.N,Net-(D1-A)*%
X100925000Y-144512500D03*
%TD*%
D17*
%TO.P,SW1,1,1*%
%TO.N,GND*%
X127325000Y-161000000D03*
X127325000Y-155000000D03*
%TO.P,SW1,2,2*%
%TO.N,BTN3*%
X131075000Y-161000000D03*
X131075000Y-155000000D03*
%TD*%
D22*
%TO.P,J2,S1,SHIELD*%
%TO.N,unconnected-(J2-SHIELD-PadS1)*%
X115180000Y-60635000D03*
D23*
%TO.N,unconnected-(J2-SHIELD-PadS1)_2*%
X115180000Y-64815000D03*
D22*
%TO.N,unconnected-(J2-SHIELD-PadS1)_3*%
X123820000Y-60635000D03*
D23*
%TO.N,unconnected-(J2-SHIELD-PadS1)_1*%
X123820000Y-64815000D03*
%TD*%
D24*
%TO.N,GND*%
X129200000Y-98700000D03*
X128200000Y-97800000D03*
X128805025Y-98094975D03*
X129237500Y-99400000D03*
X130900000Y-99900000D03*
X130900000Y-100700000D03*
X130900000Y-101500000D03*
X129600000Y-94700000D03*
X130200000Y-95300000D03*
X130800000Y-95900000D03*
X131500000Y-96600000D03*
X132200000Y-97300000D03*
X132900000Y-98000000D03*
X133600000Y-98700000D03*
X134300000Y-99300000D03*
X131600000Y-99900000D03*
X132200000Y-100500000D03*
X132600000Y-101100000D03*
X132600000Y-101900000D03*
X132600000Y-102700000D03*
X132600000Y-103500000D03*
X132600000Y-104300000D03*
X134900000Y-99900000D03*
X134700000Y-101000000D03*
X134700000Y-101800000D03*
X134700000Y-102600000D03*
X134700000Y-103400000D03*
X134700000Y-104200000D03*
X134700000Y-105000000D03*
X134700000Y-105800000D03*
X134700000Y-106600000D03*
X134700000Y-107500000D03*
X134700000Y-108300000D03*
X134700000Y-109100000D03*
X134400000Y-109900000D03*
X131200000Y-117100000D03*
X131200000Y-118000000D03*
X131200000Y-118800000D03*
X131200000Y-119600000D03*
X130700000Y-103900000D03*
X130700000Y-103100000D03*
X130700000Y-102400000D03*
X129800000Y-105100000D03*
X129293837Y-104502634D03*
X129200000Y-103800000D03*
X129200000Y-103000000D03*
X129200000Y-102300000D03*
X136900000Y-147000000D03*
X126300000Y-66500000D03*
X121100000Y-94800000D03*
X121200000Y-95600000D03*
X109500000Y-86600000D03*
X137500000Y-133700000D03*
X137200000Y-111900000D03*
X104800000Y-111200000D03*
X123700000Y-96600000D03*
X121000000Y-93900000D03*
X122918750Y-97081250D03*
X136800000Y-89800000D03*
X127600000Y-109900000D03*
X138300000Y-83400000D03*
X133100000Y-136700000D03*
X108500000Y-111600000D03*
X121300000Y-61200000D03*
X127700000Y-144600000D03*
X122400000Y-97800000D03*
X128900000Y-110700000D03*
X123700000Y-95700000D03*
X115500000Y-71600000D03*
X132300000Y-87000000D03*
X133700000Y-138300000D03*
X105500000Y-117200000D03*
X127300000Y-104400000D03*
X131600000Y-86100000D03*
X123200000Y-108800000D03*
X118600000Y-71500000D03*
X102100000Y-143200000D03*
X123000000Y-95000000D03*
X104700000Y-104400000D03*
X136900000Y-82900000D03*
X133000000Y-129800000D03*
X117400000Y-83500000D03*
X121100000Y-96900000D03*
X131500000Y-76700000D03*
X109500000Y-74200000D03*
X138300000Y-71500000D03*
X123000000Y-94000000D03*
X127500000Y-106400000D03*
X125300000Y-141600000D03*
X107200000Y-122200000D03*
%TO.N,+5V*%
X117400000Y-123000000D03*
X135400000Y-118900000D03*
%TO.N,+3.3V*%
X132050000Y-121650000D03*
X119800000Y-86100000D03*
X116700000Y-124000000D03*
X119600000Y-88700000D03*
X133200000Y-120600000D03*
X122294975Y-86894975D03*
%TO.N,BTN1*%
X109700000Y-154500000D03*
%TO.N,BTN2*%
X119600000Y-153700000D03*
%TO.N,BTN3*%
X130100000Y-152000000D03*
%TO.N,LED*%
X99000000Y-144500000D03*
%TD*%
D25*
%TO.N,+3.3V*%
X119800000Y-86100000D02*
X120000000Y-85900000D01*
X119800000Y-86100000D02*
X119800000Y-88500000D01*
X119800000Y-88500000D02*
X119600000Y-88700000D01*
X120000000Y-85900000D02*
X121300000Y-85900000D01*
X121300000Y-85900000D02*
X122294975Y-86894975D01*
%TO.N,GND*%
X127325000Y-155000000D02*
X127325000Y-161000000D01*
X107325000Y-155000000D02*
X107325000Y-151405000D01*
X116225000Y-162100000D02*
X108425000Y-162100000D01*
X118425000Y-162100000D02*
X117325000Y-161000000D01*
X127325000Y-161000000D02*
X126225000Y-162100000D01*
X107325000Y-151405000D02*
X106400000Y-150480000D01*
X108425000Y-162100000D02*
X107325000Y-161000000D01*
X101215000Y-147500000D02*
X101100000Y-147500000D01*
X117325000Y-161000000D02*
X116225000Y-162100000D01*
X107325000Y-155000000D02*
X107325000Y-161000000D01*
X101100000Y-147500000D02*
X99515000Y-145915000D01*
X126225000Y-162100000D02*
X118425000Y-162100000D01*
X117325000Y-155000000D02*
X117325000Y-161000000D01*
%TO.N,+5V*%
X133200000Y-118900000D02*
X129100000Y-123000000D01*
X129100000Y-123000000D02*
X117400000Y-123000000D01*
X135400000Y-118900000D02*
X133200000Y-118900000D01*
%TO.N,+3.3V*%
X132050000Y-121650000D02*
X130000000Y-123700000D01*
X117000000Y-123700000D02*
X116700000Y-124000000D01*
X133100000Y-120600000D02*
X133200000Y-120600000D01*
X121100000Y-151190000D02*
X131100000Y-151190000D01*
X109660000Y-151200000D02*
X106400000Y-147940000D01*
X111100000Y-151200000D02*
X121090000Y-151200000D01*
X105427500Y-148912500D02*
X100825000Y-148912500D01*
X111100000Y-151200000D02*
X109660000Y-151200000D01*
X132050000Y-121650000D02*
X133100000Y-120600000D01*
X121090000Y-151200000D02*
X121100000Y-151190000D01*
X106400000Y-147940000D02*
X105427500Y-148912500D01*
X130000000Y-123700000D02*
X117000000Y-123700000D01*
D26*
%TO.N,V_BATT*%
X118766288Y-138010000D02*
X109700000Y-138010000D01*
X141150000Y-118400000D02*
X138376288Y-118400000D01*
X138700000Y-118400000D02*
X134875000Y-114575000D01*
X134875000Y-114575000D02*
X123000000Y-114575000D01*
X109700000Y-127875000D02*
X109700000Y-138010000D01*
X141150000Y-118400000D02*
X140223763Y-118400000D01*
X141150000Y-118400000D02*
X138700000Y-118400000D01*
X138376288Y-118400000D02*
X118766288Y-138010000D01*
X123000000Y-114575000D02*
X109700000Y-127875000D01*
X140223763Y-118400000D02*
X131600000Y-109776237D01*
X131600000Y-109776237D02*
X131600000Y-105890000D01*
D25*
%TO.N,Net-(D1-A)*%
X101215000Y-144802500D02*
X100925000Y-144512500D01*
X101215000Y-145925000D02*
X101215000Y-144802500D01*
%TO.N,Net-(D2-A)*%
X99515000Y-147490000D02*
X99515000Y-148622500D01*
X99515000Y-148622500D02*
X99805000Y-148912500D01*
D27*
%TO.N,SHUNT*%
X141150000Y-115860000D02*
X141150000Y-112162500D01*
X141150000Y-112162500D02*
X141100000Y-112112500D01*
D25*
%TO.N,BTN1*%
X110200000Y-155000000D02*
X111075000Y-155000000D01*
X111075000Y-155000000D02*
X111075000Y-161000000D01*
X111075000Y-152245000D02*
X111100000Y-152220000D01*
X109700000Y-154500000D02*
X110200000Y-155000000D01*
X111075000Y-155000000D02*
X111075000Y-152245000D01*
%TO.N,BTN2*%
X120900000Y-155000000D02*
X119600000Y-153700000D01*
X121075000Y-152235000D02*
X121100000Y-152210000D01*
X121075000Y-155000000D02*
X120900000Y-155000000D01*
X121075000Y-161000000D02*
X121075000Y-155000000D01*
X121075000Y-155000000D02*
X121075000Y-152235000D01*
%TO.N,BTN3*%
X131075000Y-155000000D02*
X131075000Y-161000000D01*
X131100000Y-152210000D02*
X130310000Y-152210000D01*
X130310000Y-152210000D02*
X130100000Y-152000000D01*
X131075000Y-155000000D02*
X131075000Y-152235000D01*
X131075000Y-152235000D02*
X131100000Y-152210000D01*
%TO.N,LED*%
X99000000Y-144500000D02*
X99900000Y-144500000D01*
X99900000Y-144500000D02*
X99905000Y-144505000D01*
X99905000Y-144505000D02*
X99905000Y-144512500D01*
%TD*%
%TA.AperFunction,Conductor*%
%TO.N,GND*%
G36*
X139162505Y-58520185D02*
G01*
X139208260Y-58572989D01*
X139218204Y-58642147D01*
X139189179Y-58705703D01*
X139170952Y-58722876D01*
X139145997Y-58742024D01*
X139145990Y-58742030D01*
X138942030Y-58945990D01*
X138942024Y-58945997D01*
X138766431Y-59174835D01*
X138766420Y-59174851D01*
X138622199Y-59424647D01*
X138622191Y-59424663D01*
X138511814Y-59691139D01*
X138511810Y-59691152D01*
X138511809Y-59691155D01*
X138489808Y-59773263D01*
X138444054Y-59944021D01*
X138407689Y-60003681D01*
X138344842Y-60034210D01*
X138275466Y-60025915D01*
X138221588Y-59981430D01*
X138213794Y-59968222D01*
X138205397Y-59951742D01*
X138175051Y-59892184D01*
X138175049Y-59892181D01*
X138175048Y-59892179D01*
X138050109Y-59720213D01*
X137899786Y-59569890D01*
X137727820Y-59444951D01*
X137538414Y-59348444D01*
X137538413Y-59348443D01*
X137538412Y-59348443D01*
X137336243Y-59282754D01*
X137336241Y-59282753D01*
X137336240Y-59282753D01*
X137174957Y-59257208D01*
X137126287Y-59249500D01*
X136913713Y-59249500D01*
X136865042Y-59257208D01*
X136703760Y-59282753D01*
X136501585Y-59348444D01*
X136312179Y-59444951D01*
X136140213Y-59569890D01*
X135989890Y-59720213D01*
X135864949Y-59892182D01*
X135860484Y-59900946D01*
X135812509Y-59951742D01*
X135744688Y-59968536D01*
X135678553Y-59945998D01*
X135639516Y-59900946D01*
X135635050Y-59892182D01*
X135510109Y-59720213D01*
X135359786Y-59569890D01*
X135187820Y-59444951D01*
X134998414Y-59348444D01*
X134998413Y-59348443D01*
X134998412Y-59348443D01*
X134796243Y-59282754D01*
X134796241Y-59282753D01*
X134796240Y-59282753D01*
X134634957Y-59257208D01*
X134586287Y-59249500D01*
X134373713Y-59249500D01*
X134325042Y-59257208D01*
X134163760Y-59282753D01*
X133961585Y-59348444D01*
X133772179Y-59444951D01*
X133600213Y-59569890D01*
X133449890Y-59720213D01*
X133324949Y-59892182D01*
X133320484Y-59900946D01*
X133272509Y-59951742D01*
X133204688Y-59968536D01*
X133138553Y-59945998D01*
X133099516Y-59900946D01*
X133095050Y-59892182D01*
X132970109Y-59720213D01*
X132819786Y-59569890D01*
X132647820Y-59444951D01*
X132458414Y-59348444D01*
X132458413Y-59348443D01*
X132458412Y-59348443D01*
X132256243Y-59282754D01*
X132256241Y-59282753D01*
X132256240Y-59282753D01*
X132094957Y-59257208D01*
X132046287Y-59249500D01*
X131833713Y-59249500D01*
X131785042Y-59257208D01*
X131623760Y-59282753D01*
X131421585Y-59348444D01*
X131232179Y-59444951D01*
X131060213Y-59569890D01*
X130909890Y-59720213D01*
X130784949Y-59892182D01*
X130780484Y-59900946D01*
X130732509Y-59951742D01*
X130664688Y-59968536D01*
X130598553Y-59945998D01*
X130559516Y-59900946D01*
X130555050Y-59892182D01*
X130430109Y-59720213D01*
X130279786Y-59569890D01*
X130107820Y-59444951D01*
X129918414Y-59348444D01*
X129918413Y-59348443D01*
X129918412Y-59348443D01*
X129716243Y-59282754D01*
X129716241Y-59282753D01*
X129716240Y-59282753D01*
X129554957Y-59257208D01*
X129506287Y-59249500D01*
X129293713Y-59249500D01*
X129245042Y-59257208D01*
X129083760Y-59282753D01*
X128881585Y-59348444D01*
X128692179Y-59444951D01*
X128520215Y-59569889D01*
X128406285Y-59683819D01*
X128344962Y-59717303D01*
X128275270Y-59712319D01*
X128219337Y-59670447D01*
X128202422Y-59639470D01*
X128153354Y-59507913D01*
X128153350Y-59507906D01*
X128067190Y-59392812D01*
X128067187Y-59392809D01*
X127952093Y-59306649D01*
X127952086Y-59306645D01*
X127817379Y-59256403D01*
X127817372Y-59256401D01*
X127757844Y-59250000D01*
X127110000Y-59250000D01*
X127110000Y-60166988D01*
X127052993Y-60134075D01*
X126925826Y-60100000D01*
X126794174Y-60100000D01*
X126667007Y-60134075D01*
X126610000Y-60166988D01*
X126610000Y-59250000D01*
X125962155Y-59250000D01*
X125902627Y-59256401D01*
X125902620Y-59256403D01*
X125767913Y-59306645D01*
X125767906Y-59306649D01*
X125652812Y-59392809D01*
X125652809Y-59392812D01*
X125566649Y-59507906D01*
X125566645Y-59507913D01*
X125516403Y-59642620D01*
X125516401Y-59642627D01*
X125510000Y-59702155D01*
X125510000Y-60350000D01*
X126426988Y-60350000D01*
X126394075Y-60407007D01*
X126360000Y-60534174D01*
X126360000Y-60665826D01*
X126394075Y-60792993D01*
X126426988Y-60850000D01*
X125510000Y-60850000D01*
X125510000Y-61497844D01*
X125516401Y-61557372D01*
X125516403Y-61557379D01*
X125566645Y-61692086D01*
X125566649Y-61692093D01*
X125652809Y-61807187D01*
X125652812Y-61807190D01*
X125767906Y-61893350D01*
X125767913Y-61893354D01*
X125902620Y-61943596D01*
X125902627Y-61943598D01*
X125962155Y-61949999D01*
X125962172Y-61950000D01*
X126610000Y-61950000D01*
X126610000Y-61033012D01*
X126667007Y-61065925D01*
X126794174Y-61100000D01*
X126925826Y-61100000D01*
X127052993Y-61065925D01*
X127110000Y-61033012D01*
X127110000Y-61950000D01*
X127757828Y-61950000D01*
X127757844Y-61949999D01*
X127817372Y-61943598D01*
X127817379Y-61943596D01*
X127952086Y-61893354D01*
X127952093Y-61893350D01*
X128067187Y-61807190D01*
X128067190Y-61807187D01*
X128153350Y-61692093D01*
X128153354Y-61692086D01*
X128202422Y-61560529D01*
X128244293Y-61504595D01*
X128309757Y-61480178D01*
X128378030Y-61495030D01*
X128406285Y-61516181D01*
X128520213Y-61630109D01*
X128692179Y-61755048D01*
X128692181Y-61755049D01*
X128692184Y-61755051D01*
X128881588Y-61851557D01*
X129083757Y-61917246D01*
X129293713Y-61950500D01*
X129293714Y-61950500D01*
X129506286Y-61950500D01*
X129506287Y-61950500D01*
X129716243Y-61917246D01*
X129918412Y-61851557D01*
X130107816Y-61755051D01*
X130194471Y-61692093D01*
X130279786Y-61630109D01*
X130279788Y-61630106D01*
X130279792Y-61630104D01*
X130430104Y-61479792D01*
X130430106Y-61479788D01*
X130430109Y-61479786D01*
X130555048Y-61307820D01*
X130555047Y-61307820D01*
X130555051Y-61307816D01*
X130559514Y-61299054D01*
X130607488Y-61248259D01*
X130675308Y-61231463D01*
X130741444Y-61253999D01*
X130780486Y-61299056D01*
X130784951Y-61307820D01*
X130909890Y-61479786D01*
X131060213Y-61630109D01*
X131232179Y-61755048D01*
X131232181Y-61755049D01*
X131232184Y-61755051D01*
X131421588Y-61851557D01*
X131623757Y-61917246D01*
X131833713Y-61950500D01*
X131833714Y-61950500D01*
X132046286Y-61950500D01*
X132046287Y-61950500D01*
X132256243Y-61917246D01*
X132458412Y-61851557D01*
X132647816Y-61755051D01*
X132734471Y-61692093D01*
X132819786Y-61630109D01*
X132819788Y-61630106D01*
X132819792Y-61630104D01*
X132970104Y-61479792D01*
X132970106Y-61479788D01*
X132970109Y-61479786D01*
X133095048Y-61307820D01*
X133095047Y-61307820D01*
X133095051Y-61307816D01*
X133099514Y-61299054D01*
X133147488Y-61248259D01*
X133215308Y-61231463D01*
X133281444Y-61253999D01*
X133320486Y-61299056D01*
X133324951Y-61307820D01*
X133449890Y-61479786D01*
X133600213Y-61630109D01*
X133772179Y-61755048D01*
X133772181Y-61755049D01*
X133772184Y-61755051D01*
X133961588Y-61851557D01*
X134163757Y-61917246D01*
X134373713Y-61950500D01*
X134373714Y-61950500D01*
X134586286Y-61950500D01*
X134586287Y-61950500D01*
X134796243Y-61917246D01*
X134998412Y-61851557D01*
X135187816Y-61755051D01*
X135274471Y-61692093D01*
X135359786Y-61630109D01*
X135359788Y-61630106D01*
X135359792Y-61630104D01*
X135510104Y-61479792D01*
X135510106Y-61479788D01*
X135510109Y-61479786D01*
X135635048Y-61307820D01*
X135635047Y-61307820D01*
X135635051Y-61307816D01*
X135639514Y-61299054D01*
X135687488Y-61248259D01*
X135755308Y-61231463D01*
X135821444Y-61253999D01*
X135860486Y-61299056D01*
X135864951Y-61307820D01*
X135989890Y-61479786D01*
X136140213Y-61630109D01*
X136312179Y-61755048D01*
X136312181Y-61755049D01*
X136312184Y-61755051D01*
X136501588Y-61851557D01*
X136703757Y-61917246D01*
X136913713Y-61950500D01*
X136913714Y-61950500D01*
X137126286Y-61950500D01*
X137126287Y-61950500D01*
X137336243Y-61917246D01*
X137538412Y-61851557D01*
X137727816Y-61755051D01*
X137814471Y-61692093D01*
X137899786Y-61630109D01*
X137899788Y-61630106D01*
X137899792Y-61630104D01*
X138050104Y-61479792D01*
X138050106Y-61479788D01*
X138050109Y-61479786D01*
X138175048Y-61307820D01*
X138175047Y-61307820D01*
X138175051Y-61307816D01*
X138271557Y-61118412D01*
X138275286Y-61106932D01*
X138314719Y-61049260D01*
X138379077Y-61022059D01*
X138447924Y-61033970D01*
X138499402Y-61081212D01*
X138510636Y-61105391D01*
X138511809Y-61108847D01*
X138622191Y-61375336D01*
X138622199Y-61375352D01*
X138766420Y-61625148D01*
X138766431Y-61625164D01*
X138942024Y-61854002D01*
X138942030Y-61854009D01*
X139145990Y-62057969D01*
X139145996Y-62057974D01*
X139374844Y-62233575D01*
X139374851Y-62233579D01*
X139624647Y-62377800D01*
X139624663Y-62377808D01*
X139891139Y-62488185D01*
X139891145Y-62488186D01*
X139891155Y-62488191D01*
X140169783Y-62562849D01*
X140455772Y-62600500D01*
X140455779Y-62600500D01*
X140744221Y-62600500D01*
X140744228Y-62600500D01*
X141030217Y-62562849D01*
X141308845Y-62488191D01*
X141308857Y-62488185D01*
X141308860Y-62488185D01*
X141575336Y-62377808D01*
X141575339Y-62377806D01*
X141575345Y-62377804D01*
X141825156Y-62233575D01*
X142054004Y-62057974D01*
X142257974Y-61854004D01*
X142277123Y-61829047D01*
X142333550Y-61787844D01*
X142403296Y-61783689D01*
X142464217Y-61817900D01*
X142496971Y-61879617D01*
X142499500Y-61904533D01*
X142499500Y-109737599D01*
X142479815Y-109804638D01*
X142427011Y-109850393D01*
X142357853Y-109860337D01*
X142294297Y-109831312D01*
X142257794Y-109776604D01*
X142234357Y-109705878D01*
X142234356Y-109705875D01*
X142142315Y-109556654D01*
X142018345Y-109432684D01*
X141869124Y-109340643D01*
X141869119Y-109340641D01*
X141702697Y-109285494D01*
X141702690Y-109285493D01*
X141599986Y-109275000D01*
X141350000Y-109275000D01*
X141350000Y-110163500D01*
X141330315Y-110230539D01*
X141277511Y-110276294D01*
X141226000Y-110287500D01*
X141100000Y-110287500D01*
X141100000Y-110413500D01*
X141080315Y-110480539D01*
X141027511Y-110526294D01*
X140976000Y-110537500D01*
X139900001Y-110537500D01*
X139900001Y-110599986D01*
X139910494Y-110702697D01*
X139965641Y-110869119D01*
X139965645Y-110869128D01*
X140011722Y-110943831D01*
X140030162Y-111011223D01*
X140009239Y-111077887D01*
X139993865Y-111096607D01*
X139955484Y-111134988D01*
X139816657Y-111326065D01*
X139709433Y-111536503D01*
X139636446Y-111761131D01*
X139599500Y-111994402D01*
X139599500Y-112230597D01*
X139636446Y-112463864D01*
X139636447Y-112463869D01*
X139643431Y-112485363D01*
X139649500Y-112523680D01*
X139649500Y-115050794D01*
X139629815Y-115117833D01*
X139577011Y-115163588D01*
X139507853Y-115173532D01*
X139444297Y-115144507D01*
X139437819Y-115138475D01*
X134274357Y-109975013D01*
X139900000Y-109975013D01*
X139900000Y-110037500D01*
X140850000Y-110037500D01*
X140850000Y-109275000D01*
X140600029Y-109275000D01*
X140600012Y-109275001D01*
X140497302Y-109285494D01*
X140330880Y-109340641D01*
X140330875Y-109340643D01*
X140181654Y-109432684D01*
X140057684Y-109556654D01*
X139965643Y-109705875D01*
X139965641Y-109705880D01*
X139910494Y-109872302D01*
X139910493Y-109872309D01*
X139900000Y-109975013D01*
X134274357Y-109975013D01*
X133386819Y-109087475D01*
X133353334Y-109026152D01*
X133350500Y-108999794D01*
X133350500Y-105775272D01*
X133350499Y-105775258D01*
X133349057Y-105764312D01*
X133320548Y-105547762D01*
X133261158Y-105326113D01*
X133211190Y-105205480D01*
X133173349Y-105114123D01*
X133173346Y-105114117D01*
X133173344Y-105114112D01*
X133058611Y-104915388D01*
X133058608Y-104915385D01*
X133058607Y-104915382D01*
X132918918Y-104733338D01*
X132918911Y-104733330D01*
X132756670Y-104571089D01*
X132756661Y-104571081D01*
X132574617Y-104431392D01*
X132375890Y-104316657D01*
X132375876Y-104316650D01*
X132163887Y-104228842D01*
X131942238Y-104169452D01*
X131904215Y-104164446D01*
X131714741Y-104139500D01*
X131714734Y-104139500D01*
X131485266Y-104139500D01*
X131485258Y-104139500D01*
X131268715Y-104168009D01*
X131257762Y-104169452D01*
X131164076Y-104194554D01*
X131036112Y-104228842D01*
X130824123Y-104316650D01*
X130824109Y-104316657D01*
X130625382Y-104431392D01*
X130443338Y-104571081D01*
X130281081Y-104733338D01*
X130141392Y-104915382D01*
X130026657Y-105114109D01*
X130026650Y-105114123D01*
X129938842Y-105326112D01*
X129879453Y-105547759D01*
X129879451Y-105547770D01*
X129849500Y-105775258D01*
X129849500Y-109890978D01*
X129868791Y-110037500D01*
X129879452Y-110118475D01*
X129909479Y-110230539D01*
X129938842Y-110340124D01*
X130026650Y-110552113D01*
X130026657Y-110552128D01*
X130141389Y-110750849D01*
X130157563Y-110771928D01*
X130157567Y-110771932D01*
X130186692Y-110809889D01*
X130281078Y-110932896D01*
X130281084Y-110932903D01*
X131961001Y-112612819D01*
X131994486Y-112674142D01*
X131989502Y-112743834D01*
X131947630Y-112799767D01*
X131882166Y-112824184D01*
X131873320Y-112824500D01*
X124315220Y-112824500D01*
X124248181Y-112804815D01*
X124202426Y-112752011D01*
X124192482Y-112682853D01*
X124204735Y-112644205D01*
X124251095Y-112553217D01*
X124316757Y-112351130D01*
X124316757Y-112351127D01*
X124350000Y-112141246D01*
X124350000Y-111928753D01*
X124316757Y-111718872D01*
X124316757Y-111718869D01*
X124251095Y-111516782D01*
X124154624Y-111327449D01*
X124115270Y-111273282D01*
X124115269Y-111273282D01*
X123482962Y-111905590D01*
X123465925Y-111842007D01*
X123400099Y-111727993D01*
X123307007Y-111634901D01*
X123192993Y-111569075D01*
X123129409Y-111552037D01*
X123761716Y-110919728D01*
X123707550Y-110880375D01*
X123518217Y-110783904D01*
X123316129Y-110718242D01*
X123106246Y-110685000D01*
X122893754Y-110685000D01*
X122683872Y-110718242D01*
X122683869Y-110718242D01*
X122481782Y-110783904D01*
X122292439Y-110880380D01*
X122238282Y-110919727D01*
X122238282Y-110919728D01*
X122870591Y-111552037D01*
X122807007Y-111569075D01*
X122692993Y-111634901D01*
X122599901Y-111727993D01*
X122534075Y-111842007D01*
X122517037Y-111905591D01*
X121884728Y-111273282D01*
X121884727Y-111273282D01*
X121845380Y-111327439D01*
X121748904Y-111516782D01*
X121683242Y-111718869D01*
X121683242Y-111718872D01*
X121650000Y-111928753D01*
X121650000Y-112141246D01*
X121683242Y-112351127D01*
X121683242Y-112351130D01*
X121748904Y-112553217D01*
X121845375Y-112742550D01*
X121884728Y-112796716D01*
X122517037Y-112164408D01*
X122534075Y-112227993D01*
X122599901Y-112342007D01*
X122692993Y-112435099D01*
X122807007Y-112500925D01*
X122870590Y-112517962D01*
X122512333Y-112876219D01*
X122456748Y-112908312D01*
X122436118Y-112913840D01*
X122224118Y-113001653D01*
X122224108Y-113001657D01*
X122025394Y-113116385D01*
X122025379Y-113116395D01*
X121994604Y-113140009D01*
X121994605Y-113140010D01*
X121843333Y-113256085D01*
X108381084Y-126718333D01*
X108381078Y-126718340D01*
X108311235Y-126809363D01*
X108279670Y-126850499D01*
X108241385Y-126900392D01*
X108126657Y-127099108D01*
X108126650Y-127099123D01*
X108038842Y-127311112D01*
X107979453Y-127532759D01*
X107979451Y-127532770D01*
X107949500Y-127760258D01*
X107949500Y-138124741D01*
X107974446Y-138314215D01*
X107979452Y-138352238D01*
X107979453Y-138352240D01*
X108038842Y-138573887D01*
X108126650Y-138785876D01*
X108126657Y-138785890D01*
X108241392Y-138984617D01*
X108381081Y-139166661D01*
X108381089Y-139166670D01*
X108543330Y-139328911D01*
X108543338Y-139328918D01*
X108543339Y-139328919D01*
X108570288Y-139349598D01*
X108725382Y-139468607D01*
X108725385Y-139468608D01*
X108725388Y-139468611D01*
X108924112Y-139583344D01*
X108924117Y-139583346D01*
X108924123Y-139583349D01*
X109015480Y-139621190D01*
X109136113Y-139671158D01*
X109357762Y-139730548D01*
X109585266Y-139760500D01*
X109585273Y-139760500D01*
X118881015Y-139760500D01*
X118881022Y-139760500D01*
X119082059Y-139734032D01*
X119082060Y-139734032D01*
X119108517Y-139730550D01*
X119108522Y-139730548D01*
X119108527Y-139730548D01*
X119330175Y-139671158D01*
X119542176Y-139583344D01*
X119740900Y-139468611D01*
X119841652Y-139391301D01*
X119922949Y-139328920D01*
X139065050Y-120186819D01*
X139126373Y-120153334D01*
X139152731Y-120150500D01*
X139525500Y-120150500D01*
X139592539Y-120170185D01*
X139638294Y-120222989D01*
X139649500Y-120274500D01*
X139649500Y-121940370D01*
X139649501Y-121940376D01*
X139655908Y-121999983D01*
X139706202Y-122134828D01*
X139706206Y-122134835D01*
X139792452Y-122250044D01*
X139792455Y-122250047D01*
X139907664Y-122336293D01*
X139907671Y-122336297D01*
X140042517Y-122386591D01*
X140042516Y-122386591D01*
X140048525Y-122387237D01*
X140102127Y-122393000D01*
X142197872Y-122392999D01*
X142257483Y-122386591D01*
X142332167Y-122358736D01*
X142401859Y-122353752D01*
X142463182Y-122387237D01*
X142496666Y-122448561D01*
X142499500Y-122474918D01*
X142499500Y-158895466D01*
X142479815Y-158962505D01*
X142427011Y-159008260D01*
X142357853Y-159018204D01*
X142294297Y-158989179D01*
X142277124Y-158970952D01*
X142257975Y-158945997D01*
X142257969Y-158945990D01*
X142054009Y-158742030D01*
X142054002Y-158742024D01*
X141825164Y-158566431D01*
X141825162Y-158566429D01*
X141825156Y-158566425D01*
X141825151Y-158566422D01*
X141825148Y-158566420D01*
X141575352Y-158422199D01*
X141575336Y-158422191D01*
X141308860Y-158311814D01*
X141308848Y-158311810D01*
X141308845Y-158311809D01*
X141030217Y-158237151D01*
X141030211Y-158237150D01*
X141030206Y-158237149D01*
X140744238Y-158199501D01*
X140744233Y-158199500D01*
X140744228Y-158199500D01*
X140455772Y-158199500D01*
X140455766Y-158199500D01*
X140455761Y-158199501D01*
X140169793Y-158237149D01*
X140169786Y-158237150D01*
X140169783Y-158237151D01*
X139891155Y-158311809D01*
X139891139Y-158311814D01*
X139624663Y-158422191D01*
X139624647Y-158422199D01*
X139374851Y-158566420D01*
X139374835Y-158566431D01*
X139145997Y-158742024D01*
X139145990Y-158742030D01*
X138942030Y-158945990D01*
X138942024Y-158945997D01*
X138766431Y-159174835D01*
X138766420Y-159174851D01*
X138622199Y-159424647D01*
X138622191Y-159424663D01*
X138511814Y-159691139D01*
X138511809Y-159691155D01*
X138437152Y-159969780D01*
X138437149Y-159969793D01*
X138399501Y-160255761D01*
X138399500Y-160255778D01*
X138399500Y-160544221D01*
X138399501Y-160544238D01*
X138437149Y-160830206D01*
X138437150Y-160830211D01*
X138437151Y-160830217D01*
X138500500Y-161066639D01*
X138511809Y-161108844D01*
X138511814Y-161108860D01*
X138622191Y-161375336D01*
X138622199Y-161375352D01*
X138766420Y-161625148D01*
X138766431Y-161625164D01*
X138942024Y-161854002D01*
X138942030Y-161854009D01*
X139145990Y-162057969D01*
X139145996Y-162057974D01*
X139374844Y-162233575D01*
X139374851Y-162233579D01*
X139434665Y-162268113D01*
X139482881Y-162318680D01*
X139496103Y-162387287D01*
X139470135Y-162452152D01*
X139413221Y-162492680D01*
X139372665Y-162499500D01*
X101827335Y-162499500D01*
X101760296Y-162479815D01*
X101714541Y-162427011D01*
X101704597Y-162357853D01*
X101733622Y-162294297D01*
X101765335Y-162268113D01*
X101779799Y-162259761D01*
X101825156Y-162233575D01*
X102054004Y-162057974D01*
X102257974Y-161854004D01*
X102433575Y-161625156D01*
X102478211Y-161547844D01*
X106450000Y-161547844D01*
X106456401Y-161607372D01*
X106456403Y-161607379D01*
X106506645Y-161742086D01*
X106506649Y-161742093D01*
X106592809Y-161857187D01*
X106592812Y-161857190D01*
X106707906Y-161943350D01*
X106707913Y-161943354D01*
X106842620Y-161993596D01*
X106842627Y-161993598D01*
X106902155Y-161999999D01*
X106902172Y-162000000D01*
X107075000Y-162000000D01*
X107575000Y-162000000D01*
X107747828Y-162000000D01*
X107747844Y-161999999D01*
X107807372Y-161993598D01*
X107807379Y-161993596D01*
X107942086Y-161943354D01*
X107942093Y-161943350D01*
X108057187Y-161857190D01*
X108057190Y-161857187D01*
X108143350Y-161742093D01*
X108143354Y-161742086D01*
X108193596Y-161607379D01*
X108193598Y-161607372D01*
X108199999Y-161547844D01*
X108200000Y-161547827D01*
X108200000Y-161250000D01*
X107575000Y-161250000D01*
X107575000Y-162000000D01*
X107075000Y-162000000D01*
X107075000Y-161250000D01*
X106450000Y-161250000D01*
X106450000Y-161547844D01*
X102478211Y-161547844D01*
X102577804Y-161375345D01*
X102688191Y-161108845D01*
X102762849Y-160830217D01*
X102800500Y-160544228D01*
X102800500Y-160452155D01*
X106450000Y-160452155D01*
X106450000Y-160750000D01*
X107075000Y-160750000D01*
X107575000Y-160750000D01*
X108200000Y-160750000D01*
X108200000Y-160452172D01*
X108199999Y-160452155D01*
X108193598Y-160392627D01*
X108193596Y-160392620D01*
X108143354Y-160257913D01*
X108143350Y-160257906D01*
X108057190Y-160142812D01*
X108057187Y-160142809D01*
X107942093Y-160056649D01*
X107942086Y-160056645D01*
X107807379Y-160006403D01*
X107807372Y-160006401D01*
X107747844Y-160000000D01*
X107575000Y-160000000D01*
X107575000Y-160750000D01*
X107075000Y-160750000D01*
X107075000Y-160000000D01*
X106902155Y-160000000D01*
X106842627Y-160006401D01*
X106842620Y-160006403D01*
X106707913Y-160056645D01*
X106707906Y-160056649D01*
X106592812Y-160142809D01*
X106592809Y-160142812D01*
X106506649Y-160257906D01*
X106506645Y-160257913D01*
X106456403Y-160392620D01*
X106456401Y-160392627D01*
X106450000Y-160452155D01*
X102800500Y-160452155D01*
X102800500Y-160255772D01*
X102762849Y-159969783D01*
X102688191Y-159691155D01*
X102688186Y-159691145D01*
X102688185Y-159691139D01*
X102577808Y-159424663D01*
X102577800Y-159424647D01*
X102433579Y-159174851D01*
X102433575Y-159174844D01*
X102305751Y-159008260D01*
X102257975Y-158945997D01*
X102257969Y-158945990D01*
X102054009Y-158742030D01*
X102054002Y-158742024D01*
X101825164Y-158566431D01*
X101825162Y-158566429D01*
X101825156Y-158566425D01*
X101825151Y-158566422D01*
X101825148Y-158566420D01*
X101575352Y-158422199D01*
X101575336Y-158422191D01*
X101308860Y-158311814D01*
X101308848Y-158311810D01*
X101308845Y-158311809D01*
X101030217Y-158237151D01*
X101030211Y-158237150D01*
X101030206Y-158237149D01*
X100744238Y-158199501D01*
X100744233Y-158199500D01*
X100744228Y-158199500D01*
X100455772Y-158199500D01*
X100455766Y-158199500D01*
X100455761Y-158199501D01*
X100169793Y-158237149D01*
X100169786Y-158237150D01*
X100169783Y-158237151D01*
X99891155Y-158311809D01*
X99891139Y-158311814D01*
X99624663Y-158422191D01*
X99624647Y-158422199D01*
X99374851Y-158566420D01*
X99374835Y-158566431D01*
X99145997Y-158742024D01*
X99145990Y-158742030D01*
X98942030Y-158945990D01*
X98942024Y-158945997D01*
X98766431Y-159174835D01*
X98766420Y-159174851D01*
X98731887Y-159234665D01*
X98681320Y-159282881D01*
X98612713Y-159296103D01*
X98547848Y-159270135D01*
X98507320Y-159213221D01*
X98500500Y-159172665D01*
X98500500Y-155547844D01*
X106450000Y-155547844D01*
X106456401Y-155607372D01*
X106456403Y-155607379D01*
X106506645Y-155742086D01*
X106506649Y-155742093D01*
X106592809Y-155857187D01*
X106592812Y-155857190D01*
X106707906Y-155943350D01*
X106707913Y-155943354D01*
X106842620Y-155993596D01*
X106842627Y-155993598D01*
X106902155Y-155999999D01*
X106902172Y-156000000D01*
X107075000Y-156000000D01*
X107575000Y-156000000D01*
X107747828Y-156000000D01*
X107747844Y-155999999D01*
X107807372Y-155993598D01*
X107807379Y-155993596D01*
X107942086Y-155943354D01*
X107942093Y-155943350D01*
X108057187Y-155857190D01*
X108057190Y-155857187D01*
X108143350Y-155742093D01*
X108143354Y-155742086D01*
X108193596Y-155607379D01*
X108193598Y-155607372D01*
X108199999Y-155547844D01*
X108200000Y-155547827D01*
X108200000Y-155250000D01*
X107575000Y-155250000D01*
X107575000Y-156000000D01*
X107075000Y-156000000D01*
X107075000Y-155250000D01*
X106450000Y-155250000D01*
X106450000Y-155547844D01*
X98500500Y-155547844D01*
X98500500Y-154452155D01*
X106450000Y-154452155D01*
X106450000Y-154750000D01*
X107075000Y-154750000D01*
X107575000Y-154750000D01*
X108200000Y-154750000D01*
X108200000Y-154452172D01*
X108199999Y-154452155D01*
X108193598Y-154392627D01*
X108193596Y-154392620D01*
X108143354Y-154257913D01*
X108143350Y-154257906D01*
X108057190Y-154142812D01*
X108057187Y-154142809D01*
X107942093Y-154056649D01*
X107942086Y-154056645D01*
X107807379Y-154006403D01*
X107807372Y-154006401D01*
X107747844Y-154000000D01*
X107575000Y-154000000D01*
X107575000Y-154750000D01*
X107075000Y-154750000D01*
X107075000Y-154000000D01*
X106902155Y-154000000D01*
X106842627Y-154006401D01*
X106842620Y-154006403D01*
X106707913Y-154056645D01*
X106707906Y-154056649D01*
X106592812Y-154142809D01*
X106592809Y-154142812D01*
X106506649Y-154257906D01*
X106506645Y-154257913D01*
X106456403Y-154392620D01*
X106456401Y-154392627D01*
X106450000Y-154452155D01*
X98500500Y-154452155D01*
X98500500Y-148267034D01*
X98506738Y-148245788D01*
X98508318Y-148223700D01*
X98516390Y-148212916D01*
X98520185Y-148199995D01*
X98536918Y-148185495D01*
X98550190Y-148167767D01*
X98562810Y-148163059D01*
X98572989Y-148154240D01*
X98594906Y-148151088D01*
X98615654Y-148143350D01*
X98628814Y-148146212D01*
X98642147Y-148144296D01*
X98662290Y-148153495D01*
X98683927Y-148158202D01*
X98701652Y-148171470D01*
X98705703Y-148173321D01*
X98712181Y-148179353D01*
X98778181Y-148245353D01*
X98811666Y-148306676D01*
X98814500Y-148333034D01*
X98814500Y-148553506D01*
X98814500Y-148691494D01*
X98814500Y-148691496D01*
X98814499Y-148691496D01*
X98841418Y-148826822D01*
X98841421Y-148826832D01*
X98894222Y-148954307D01*
X98970887Y-149069045D01*
X98999673Y-149097831D01*
X99033158Y-149159154D01*
X99035610Y-149175783D01*
X99037335Y-149197705D01*
X99082129Y-149351888D01*
X99082131Y-149351893D01*
X99163863Y-149490095D01*
X99163869Y-149490103D01*
X99277396Y-149603630D01*
X99277400Y-149603633D01*
X99277402Y-149603635D01*
X99415607Y-149685369D01*
X99456268Y-149697182D01*
X99569791Y-149730164D01*
X99569794Y-149730164D01*
X99569796Y-149730165D01*
X99605819Y-149733000D01*
X100004180Y-149732999D01*
X100040204Y-149730165D01*
X100194393Y-149685369D01*
X100251882Y-149651369D01*
X100319602Y-149634188D01*
X100378117Y-149651369D01*
X100435607Y-149685369D01*
X100435610Y-149685369D01*
X100435612Y-149685371D01*
X100589791Y-149730164D01*
X100589794Y-149730164D01*
X100589796Y-149730165D01*
X100625819Y-149733000D01*
X101024180Y-149732999D01*
X101060204Y-149730165D01*
X101214393Y-149685369D01*
X101307564Y-149630267D01*
X101370685Y-149613000D01*
X105124269Y-149613000D01*
X105191308Y-149632685D01*
X105237063Y-149685489D01*
X105247007Y-149754647D01*
X105234754Y-149793295D01*
X105148904Y-149961782D01*
X105083242Y-150163869D01*
X105083242Y-150163872D01*
X105050000Y-150373753D01*
X105050000Y-150586246D01*
X105083242Y-150796127D01*
X105083242Y-150796130D01*
X105148904Y-150998217D01*
X105245375Y-151187550D01*
X105284728Y-151241716D01*
X105917036Y-150609407D01*
X105934075Y-150672993D01*
X105999901Y-150787007D01*
X106092993Y-150880099D01*
X106207007Y-150945925D01*
X106270590Y-150962962D01*
X105638282Y-151595269D01*
X105638282Y-151595270D01*
X105692449Y-151634624D01*
X105881782Y-151731095D01*
X106083870Y-151796757D01*
X106293754Y-151830000D01*
X106506246Y-151830000D01*
X106716127Y-151796757D01*
X106716130Y-151796757D01*
X106918217Y-151731095D01*
X107107554Y-151634622D01*
X107161716Y-151595270D01*
X107161717Y-151595270D01*
X106529408Y-150962962D01*
X106592993Y-150945925D01*
X106707007Y-150880099D01*
X106800099Y-150787007D01*
X106865925Y-150672993D01*
X106882962Y-150609409D01*
X107515270Y-151241717D01*
X107515270Y-151241716D01*
X107554622Y-151187554D01*
X107651095Y-150998217D01*
X107716757Y-150796130D01*
X107716757Y-150796127D01*
X107750000Y-150586246D01*
X107750000Y-150580019D01*
X107769685Y-150512980D01*
X107822489Y-150467225D01*
X107891647Y-150457281D01*
X107955203Y-150486306D01*
X107961681Y-150492338D01*
X109213453Y-151744111D01*
X109213454Y-151744112D01*
X109213457Y-151744114D01*
X109328189Y-151820775D01*
X109455671Y-151873580D01*
X109478843Y-151878189D01*
X109534925Y-151889344D01*
X109591005Y-151900500D01*
X109591007Y-151900500D01*
X110155500Y-151900500D01*
X110222539Y-151920185D01*
X110268294Y-151972989D01*
X110279500Y-152024500D01*
X110279500Y-152419169D01*
X110279501Y-152419191D01*
X110282334Y-152455200D01*
X110327129Y-152609388D01*
X110327131Y-152609393D01*
X110357232Y-152660292D01*
X110374500Y-152723411D01*
X110374500Y-153755945D01*
X110354815Y-153822984D01*
X110302011Y-153868739D01*
X110232853Y-153878683D01*
X110181609Y-153859047D01*
X110079185Y-153790609D01*
X110079172Y-153790602D01*
X109933501Y-153730264D01*
X109933489Y-153730261D01*
X109778845Y-153699500D01*
X109778842Y-153699500D01*
X109621158Y-153699500D01*
X109621155Y-153699500D01*
X109466510Y-153730261D01*
X109466498Y-153730264D01*
X109320827Y-153790602D01*
X109320814Y-153790609D01*
X109189711Y-153878210D01*
X109189707Y-153878213D01*
X109078213Y-153989707D01*
X109078210Y-153989711D01*
X108990609Y-154120814D01*
X108990602Y-154120827D01*
X108930264Y-154266498D01*
X108930261Y-154266510D01*
X108899500Y-154421153D01*
X108899500Y-154578846D01*
X108930261Y-154733489D01*
X108930264Y-154733501D01*
X108990602Y-154879172D01*
X108990609Y-154879185D01*
X109078210Y-155010288D01*
X109078213Y-155010292D01*
X109189707Y-155121786D01*
X109189711Y-155121789D01*
X109320814Y-155209390D01*
X109320827Y-155209397D01*
X109465185Y-155269191D01*
X109505414Y-155296071D01*
X109753453Y-155544111D01*
X109753454Y-155544112D01*
X109753457Y-155544114D01*
X109848294Y-155607482D01*
X109868192Y-155620777D01*
X109995667Y-155673578D01*
X109995672Y-155673580D01*
X109995676Y-155673580D01*
X109995677Y-155673581D01*
X110131003Y-155700500D01*
X110131006Y-155700500D01*
X110131007Y-155700500D01*
X110162820Y-155700500D01*
X110167034Y-155701737D01*
X110171324Y-155700792D01*
X110200262Y-155711494D01*
X110229859Y-155720185D01*
X110233896Y-155723933D01*
X110236856Y-155725028D01*
X110260885Y-155748990D01*
X110261882Y-155749916D01*
X110342454Y-155857546D01*
X110343516Y-155858341D01*
X110349562Y-155866371D01*
X110358924Y-155891262D01*
X110371666Y-155914597D01*
X110373253Y-155929358D01*
X110374159Y-155931767D01*
X110373728Y-155933774D01*
X110374500Y-155940955D01*
X110374500Y-160059045D01*
X110354815Y-160126084D01*
X110347504Y-160135157D01*
X110347768Y-160135355D01*
X110256206Y-160257664D01*
X110256202Y-160257671D01*
X110205908Y-160392517D01*
X110199501Y-160452116D01*
X110199501Y-160452123D01*
X110199500Y-160452135D01*
X110199500Y-161547870D01*
X110199501Y-161547876D01*
X110205908Y-161607483D01*
X110256202Y-161742328D01*
X110256206Y-161742335D01*
X110342452Y-161857544D01*
X110342455Y-161857547D01*
X110457664Y-161943793D01*
X110457671Y-161943797D01*
X110592517Y-161994091D01*
X110592516Y-161994091D01*
X110599444Y-161994835D01*
X110652127Y-162000500D01*
X111497872Y-162000499D01*
X111557483Y-161994091D01*
X111692331Y-161943796D01*
X111807546Y-161857546D01*
X111893796Y-161742331D01*
X111944091Y-161607483D01*
X111950500Y-161547873D01*
X111950500Y-161547844D01*
X116450000Y-161547844D01*
X116456401Y-161607372D01*
X116456403Y-161607379D01*
X116506645Y-161742086D01*
X116506649Y-161742093D01*
X116592809Y-161857187D01*
X116592812Y-161857190D01*
X116707906Y-161943350D01*
X116707913Y-161943354D01*
X116842620Y-161993596D01*
X116842627Y-161993598D01*
X116902155Y-161999999D01*
X116902172Y-162000000D01*
X117075000Y-162000000D01*
X117575000Y-162000000D01*
X117747828Y-162000000D01*
X117747844Y-161999999D01*
X117807372Y-161993598D01*
X117807379Y-161993596D01*
X117942086Y-161943354D01*
X117942093Y-161943350D01*
X118057187Y-161857190D01*
X118057190Y-161857187D01*
X118143350Y-161742093D01*
X118143354Y-161742086D01*
X118193596Y-161607379D01*
X118193598Y-161607372D01*
X118199999Y-161547844D01*
X118200000Y-161547827D01*
X118200000Y-161250000D01*
X117575000Y-161250000D01*
X117575000Y-162000000D01*
X117075000Y-162000000D01*
X117075000Y-161250000D01*
X116450000Y-161250000D01*
X116450000Y-161547844D01*
X111950500Y-161547844D01*
X111950499Y-160859029D01*
X111950499Y-160452155D01*
X116450000Y-160452155D01*
X116450000Y-160750000D01*
X117075000Y-160750000D01*
X117575000Y-160750000D01*
X118200000Y-160750000D01*
X118200000Y-160452172D01*
X118199999Y-160452155D01*
X118193598Y-160392627D01*
X118193596Y-160392620D01*
X118143354Y-160257913D01*
X118143350Y-160257906D01*
X118057190Y-160142812D01*
X118057187Y-160142809D01*
X117942093Y-160056649D01*
X117942086Y-160056645D01*
X117807379Y-160006403D01*
X117807372Y-160006401D01*
X117747844Y-160000000D01*
X117575000Y-160000000D01*
X117575000Y-160750000D01*
X117075000Y-160750000D01*
X117075000Y-160000000D01*
X116902155Y-160000000D01*
X116842627Y-160006401D01*
X116842620Y-160006403D01*
X116707913Y-160056645D01*
X116707906Y-160056649D01*
X116592812Y-160142809D01*
X116592809Y-160142812D01*
X116506649Y-160257906D01*
X116506645Y-160257913D01*
X116456403Y-160392620D01*
X116456401Y-160392627D01*
X116450000Y-160452155D01*
X111950499Y-160452155D01*
X111950499Y-160452129D01*
X111950498Y-160452123D01*
X111950497Y-160452116D01*
X111944091Y-160392517D01*
X111893884Y-160257906D01*
X111893797Y-160257671D01*
X111893793Y-160257664D01*
X111802232Y-160135355D01*
X111804625Y-160133563D01*
X111778327Y-160085373D01*
X111775500Y-160059045D01*
X111775500Y-155940955D01*
X111795185Y-155873916D01*
X111802495Y-155864844D01*
X111802231Y-155864646D01*
X111807546Y-155857546D01*
X111893796Y-155742331D01*
X111944091Y-155607483D01*
X111950500Y-155547873D01*
X111950500Y-155547844D01*
X116450000Y-155547844D01*
X116456401Y-155607372D01*
X116456403Y-155607379D01*
X116506645Y-155742086D01*
X116506649Y-155742093D01*
X116592809Y-155857187D01*
X116592812Y-155857190D01*
X116707906Y-155943350D01*
X116707913Y-155943354D01*
X116842620Y-155993596D01*
X116842627Y-155993598D01*
X116902155Y-155999999D01*
X116902172Y-156000000D01*
X117075000Y-156000000D01*
X117575000Y-156000000D01*
X117747828Y-156000000D01*
X117747844Y-155999999D01*
X117807372Y-155993598D01*
X117807379Y-155993596D01*
X117942086Y-155943354D01*
X117942093Y-155943350D01*
X118057187Y-155857190D01*
X118057190Y-155857187D01*
X118143350Y-155742093D01*
X118143354Y-155742086D01*
X118193596Y-155607379D01*
X118193598Y-155607372D01*
X118199999Y-155547844D01*
X118200000Y-155547827D01*
X118200000Y-155250000D01*
X117575000Y-155250000D01*
X117575000Y-156000000D01*
X117075000Y-156000000D01*
X117075000Y-155250000D01*
X116450000Y-155250000D01*
X116450000Y-155547844D01*
X111950500Y-155547844D01*
X111950499Y-154879185D01*
X111950499Y-154452155D01*
X116450000Y-154452155D01*
X116450000Y-154750000D01*
X117075000Y-154750000D01*
X117575000Y-154750000D01*
X118200000Y-154750000D01*
X118200000Y-154452172D01*
X118199999Y-154452155D01*
X118193598Y-154392627D01*
X118193596Y-154392620D01*
X118143354Y-154257913D01*
X118143350Y-154257906D01*
X118057190Y-154142812D01*
X118057187Y-154142809D01*
X117942093Y-154056649D01*
X117942086Y-154056645D01*
X117807379Y-154006403D01*
X117807372Y-154006401D01*
X117747844Y-154000000D01*
X117575000Y-154000000D01*
X117575000Y-154750000D01*
X117075000Y-154750000D01*
X117075000Y-154000000D01*
X116902155Y-154000000D01*
X116842627Y-154006401D01*
X116842620Y-154006403D01*
X116707913Y-154056645D01*
X116707906Y-154056649D01*
X116592812Y-154142809D01*
X116592809Y-154142812D01*
X116506649Y-154257906D01*
X116506645Y-154257913D01*
X116456403Y-154392620D01*
X116456401Y-154392627D01*
X116450000Y-154452155D01*
X111950499Y-154452155D01*
X111950499Y-154452129D01*
X111950498Y-154452123D01*
X111950497Y-154452116D01*
X111944091Y-154392517D01*
X111897093Y-154266510D01*
X111893797Y-154257671D01*
X111893793Y-154257664D01*
X111802232Y-154135355D01*
X111804625Y-154133563D01*
X111778327Y-154085373D01*
X111775500Y-154059045D01*
X111775500Y-152807958D01*
X111792768Y-152744837D01*
X111848683Y-152650289D01*
X111872869Y-152609393D01*
X111917665Y-152455204D01*
X111920500Y-152419181D01*
X111920499Y-152024499D01*
X111940183Y-151957461D01*
X111992987Y-151911706D01*
X112044499Y-151900500D01*
X120155500Y-151900500D01*
X120222539Y-151920185D01*
X120268294Y-151972989D01*
X120279500Y-152024500D01*
X120279500Y-152409169D01*
X120279501Y-152409191D01*
X120282334Y-152445200D01*
X120282335Y-152445202D01*
X120282335Y-152445204D01*
X120294831Y-152488217D01*
X120327129Y-152599388D01*
X120327131Y-152599393D01*
X120357232Y-152650292D01*
X120374500Y-152713411D01*
X120374500Y-153043059D01*
X120354815Y-153110098D01*
X120302011Y-153155853D01*
X120232853Y-153165797D01*
X120169297Y-153136772D01*
X120162819Y-153130740D01*
X120110292Y-153078213D01*
X120110288Y-153078210D01*
X119979185Y-152990609D01*
X119979172Y-152990602D01*
X119833501Y-152930264D01*
X119833489Y-152930261D01*
X119678845Y-152899500D01*
X119678842Y-152899500D01*
X119521158Y-152899500D01*
X119521155Y-152899500D01*
X119366510Y-152930261D01*
X119366498Y-152930264D01*
X119220827Y-152990602D01*
X119220814Y-152990609D01*
X119089711Y-153078210D01*
X119089707Y-153078213D01*
X118978213Y-153189707D01*
X118978210Y-153189711D01*
X118890609Y-153320814D01*
X118890602Y-153320827D01*
X118830264Y-153466498D01*
X118830261Y-153466510D01*
X118799500Y-153621153D01*
X118799500Y-153778846D01*
X118830261Y-153933489D01*
X118830264Y-153933501D01*
X118890602Y-154079172D01*
X118890609Y-154079185D01*
X118978210Y-154210288D01*
X118978213Y-154210292D01*
X119089707Y-154321786D01*
X119089711Y-154321789D01*
X119220814Y-154409390D01*
X119220827Y-154409397D01*
X119365185Y-154469191D01*
X119405414Y-154496071D01*
X120163181Y-155253838D01*
X120196666Y-155315161D01*
X120199500Y-155341518D01*
X120199500Y-155547869D01*
X120199501Y-155547876D01*
X120205908Y-155607483D01*
X120256202Y-155742328D01*
X120256203Y-155742329D01*
X120256204Y-155742331D01*
X120340646Y-155855131D01*
X120347769Y-155864646D01*
X120345370Y-155866441D01*
X120371666Y-155914597D01*
X120374500Y-155940955D01*
X120374500Y-160059045D01*
X120354815Y-160126084D01*
X120347504Y-160135157D01*
X120347768Y-160135355D01*
X120256206Y-160257664D01*
X120256202Y-160257671D01*
X120205908Y-160392517D01*
X120199501Y-160452116D01*
X120199501Y-160452123D01*
X120199500Y-160452135D01*
X120199500Y-161547870D01*
X120199501Y-161547876D01*
X120205908Y-161607483D01*
X120256202Y-161742328D01*
X120256206Y-161742335D01*
X120342452Y-161857544D01*
X120342455Y-161857547D01*
X120457664Y-161943793D01*
X120457671Y-161943797D01*
X120592517Y-161994091D01*
X120592516Y-161994091D01*
X120599444Y-161994835D01*
X120652127Y-162000500D01*
X121497872Y-162000499D01*
X121557483Y-161994091D01*
X121692331Y-161943796D01*
X121807546Y-161857546D01*
X121893796Y-161742331D01*
X121944091Y-161607483D01*
X121950500Y-161547873D01*
X121950500Y-161547844D01*
X126450000Y-161547844D01*
X126456401Y-161607372D01*
X126456403Y-161607379D01*
X126506645Y-161742086D01*
X126506649Y-161742093D01*
X126592809Y-161857187D01*
X126592812Y-161857190D01*
X126707906Y-161943350D01*
X126707913Y-161943354D01*
X126842620Y-161993596D01*
X126842627Y-161993598D01*
X126902155Y-161999999D01*
X126902172Y-162000000D01*
X127075000Y-162000000D01*
X127575000Y-162000000D01*
X127747828Y-162000000D01*
X127747844Y-161999999D01*
X127807372Y-161993598D01*
X127807379Y-161993596D01*
X127942086Y-161943354D01*
X127942093Y-161943350D01*
X128057187Y-161857190D01*
X128057190Y-161857187D01*
X128143350Y-161742093D01*
X128143354Y-161742086D01*
X128193596Y-161607379D01*
X128193598Y-161607372D01*
X128199999Y-161547844D01*
X128200000Y-161547827D01*
X128200000Y-161250000D01*
X127575000Y-161250000D01*
X127575000Y-162000000D01*
X127075000Y-162000000D01*
X127075000Y-161250000D01*
X126450000Y-161250000D01*
X126450000Y-161547844D01*
X121950500Y-161547844D01*
X121950499Y-160859029D01*
X121950499Y-160452155D01*
X126450000Y-160452155D01*
X126450000Y-160750000D01*
X127075000Y-160750000D01*
X127575000Y-160750000D01*
X128200000Y-160750000D01*
X128200000Y-160452172D01*
X128199999Y-160452155D01*
X128193598Y-160392627D01*
X128193596Y-160392620D01*
X128143354Y-160257913D01*
X128143350Y-160257906D01*
X128057190Y-160142812D01*
X128057187Y-160142809D01*
X127942093Y-160056649D01*
X127942086Y-160056645D01*
X127807379Y-160006403D01*
X127807372Y-160006401D01*
X127747844Y-160000000D01*
X127575000Y-160000000D01*
X127575000Y-160750000D01*
X127075000Y-160750000D01*
X127075000Y-160000000D01*
X126902155Y-160000000D01*
X126842627Y-160006401D01*
X126842620Y-160006403D01*
X126707913Y-160056645D01*
X126707906Y-160056649D01*
X126592812Y-160142809D01*
X126592809Y-160142812D01*
X126506649Y-160257906D01*
X126506645Y-160257913D01*
X126456403Y-160392620D01*
X126456401Y-160392627D01*
X126450000Y-160452155D01*
X121950499Y-160452155D01*
X121950499Y-160452129D01*
X121950498Y-160452123D01*
X121950497Y-160452116D01*
X121944091Y-160392517D01*
X121893884Y-160257906D01*
X121893797Y-160257671D01*
X121893793Y-160257664D01*
X121802232Y-160135355D01*
X121804625Y-160133563D01*
X121778327Y-160085373D01*
X121775500Y-160059045D01*
X121775500Y-155940955D01*
X121795185Y-155873916D01*
X121802495Y-155864844D01*
X121802231Y-155864646D01*
X121807546Y-155857546D01*
X121893796Y-155742331D01*
X121944091Y-155607483D01*
X121950500Y-155547873D01*
X121950500Y-155547844D01*
X126450000Y-155547844D01*
X126456401Y-155607372D01*
X126456403Y-155607379D01*
X126506645Y-155742086D01*
X126506649Y-155742093D01*
X126592809Y-155857187D01*
X126592812Y-155857190D01*
X126707906Y-155943350D01*
X126707913Y-155943354D01*
X126842620Y-155993596D01*
X126842627Y-155993598D01*
X126902155Y-155999999D01*
X126902172Y-156000000D01*
X127075000Y-156000000D01*
X127575000Y-156000000D01*
X127747828Y-156000000D01*
X127747844Y-155999999D01*
X127807372Y-155993598D01*
X127807379Y-155993596D01*
X127942086Y-155943354D01*
X127942093Y-155943350D01*
X128057187Y-155857190D01*
X128057190Y-155857187D01*
X128143350Y-155742093D01*
X128143354Y-155742086D01*
X128193596Y-155607379D01*
X128193598Y-155607372D01*
X128199999Y-155547844D01*
X128200000Y-155547827D01*
X128200000Y-155250000D01*
X127575000Y-155250000D01*
X127575000Y-156000000D01*
X127075000Y-156000000D01*
X127075000Y-155250000D01*
X126450000Y-155250000D01*
X126450000Y-155547844D01*
X121950500Y-155547844D01*
X121950499Y-154879185D01*
X121950499Y-154452155D01*
X126450000Y-154452155D01*
X126450000Y-154750000D01*
X127075000Y-154750000D01*
X127575000Y-154750000D01*
X128200000Y-154750000D01*
X128200000Y-154452172D01*
X128199999Y-154452155D01*
X128193598Y-154392627D01*
X128193596Y-154392620D01*
X128143354Y-154257913D01*
X128143350Y-154257906D01*
X128057190Y-154142812D01*
X128057187Y-154142809D01*
X127942093Y-154056649D01*
X127942086Y-154056645D01*
X127807379Y-154006403D01*
X127807372Y-154006401D01*
X127747844Y-154000000D01*
X127575000Y-154000000D01*
X127575000Y-154750000D01*
X127075000Y-154750000D01*
X127075000Y-154000000D01*
X126902155Y-154000000D01*
X126842627Y-154006401D01*
X126842620Y-154006403D01*
X126707913Y-154056645D01*
X126707906Y-154056649D01*
X126592812Y-154142809D01*
X126592809Y-154142812D01*
X126506649Y-154257906D01*
X126506645Y-154257913D01*
X126456403Y-154392620D01*
X126456401Y-154392627D01*
X126450000Y-154452155D01*
X121950499Y-154452155D01*
X121950499Y-154452129D01*
X121950498Y-154452123D01*
X121950497Y-154452116D01*
X121944091Y-154392517D01*
X121897093Y-154266510D01*
X121893797Y-154257671D01*
X121893793Y-154257664D01*
X121802232Y-154135355D01*
X121804625Y-154133563D01*
X121778327Y-154085373D01*
X121775500Y-154059045D01*
X121775500Y-152797958D01*
X121792768Y-152734837D01*
X121807817Y-152709390D01*
X121872869Y-152599393D01*
X121917665Y-152445204D01*
X121920500Y-152409181D01*
X121920499Y-152014499D01*
X121940183Y-151947461D01*
X121992987Y-151901706D01*
X122044499Y-151890500D01*
X129175500Y-151890500D01*
X129242539Y-151910185D01*
X129288294Y-151962989D01*
X129299500Y-152014500D01*
X129299500Y-152078846D01*
X129330261Y-152233489D01*
X129330264Y-152233501D01*
X129390602Y-152379172D01*
X129390609Y-152379185D01*
X129478210Y-152510288D01*
X129478213Y-152510292D01*
X129589707Y-152621786D01*
X129589711Y-152621789D01*
X129720814Y-152709390D01*
X129720820Y-152709393D01*
X129720821Y-152709394D01*
X129866503Y-152769737D01*
X129871265Y-152770684D01*
X129915966Y-152789199D01*
X129978189Y-152830775D01*
X129978191Y-152830776D01*
X129978195Y-152830778D01*
X130105667Y-152883578D01*
X130105672Y-152883580D01*
X130105676Y-152883580D01*
X130105677Y-152883581D01*
X130241003Y-152910500D01*
X130241006Y-152910500D01*
X130241007Y-152910500D01*
X130250500Y-152910500D01*
X130317539Y-152930185D01*
X130363294Y-152982989D01*
X130374500Y-153034500D01*
X130374500Y-154059045D01*
X130354815Y-154126084D01*
X130347504Y-154135157D01*
X130347768Y-154135355D01*
X130256206Y-154257664D01*
X130256202Y-154257671D01*
X130205908Y-154392517D01*
X130199501Y-154452116D01*
X130199501Y-154452123D01*
X130199500Y-154452135D01*
X130199500Y-155547870D01*
X130199501Y-155547876D01*
X130205908Y-155607483D01*
X130256202Y-155742328D01*
X130256203Y-155742329D01*
X130256204Y-155742331D01*
X130340646Y-155855131D01*
X130347769Y-155864646D01*
X130345370Y-155866441D01*
X130371666Y-155914597D01*
X130374500Y-155940955D01*
X130374500Y-160059045D01*
X130354815Y-160126084D01*
X130347504Y-160135157D01*
X130347768Y-160135355D01*
X130256206Y-160257664D01*
X130256202Y-160257671D01*
X130205908Y-160392517D01*
X130199501Y-160452116D01*
X130199501Y-160452123D01*
X130199500Y-160452135D01*
X130199500Y-161547870D01*
X130199501Y-161547876D01*
X130205908Y-161607483D01*
X130256202Y-161742328D01*
X130256206Y-161742335D01*
X130342452Y-161857544D01*
X130342455Y-161857547D01*
X130457664Y-161943793D01*
X130457671Y-161943797D01*
X130592517Y-161994091D01*
X130592516Y-161994091D01*
X130599444Y-161994835D01*
X130652127Y-162000500D01*
X131497872Y-162000499D01*
X131557483Y-161994091D01*
X131692331Y-161943796D01*
X131807546Y-161857546D01*
X131893796Y-161742331D01*
X131944091Y-161607483D01*
X131950500Y-161547873D01*
X131950499Y-160452128D01*
X131944091Y-160392517D01*
X131893884Y-160257906D01*
X131893797Y-160257671D01*
X131893793Y-160257664D01*
X131802232Y-160135355D01*
X131804625Y-160133563D01*
X131778327Y-160085373D01*
X131775500Y-160059045D01*
X131775500Y-155940955D01*
X131795185Y-155873916D01*
X131802495Y-155864844D01*
X131802231Y-155864646D01*
X131807546Y-155857546D01*
X131893796Y-155742331D01*
X131944091Y-155607483D01*
X131950500Y-155547873D01*
X131950499Y-154452128D01*
X131944091Y-154392517D01*
X131897093Y-154266510D01*
X131893797Y-154257671D01*
X131893793Y-154257664D01*
X131802232Y-154135355D01*
X131804625Y-154133563D01*
X131778327Y-154085373D01*
X131775500Y-154059045D01*
X131775500Y-152797958D01*
X131792768Y-152734837D01*
X131807817Y-152709390D01*
X131872869Y-152599393D01*
X131917665Y-152445204D01*
X131920500Y-152409181D01*
X131920499Y-152010820D01*
X131917665Y-151974796D01*
X131872869Y-151820607D01*
X131838869Y-151763117D01*
X131821688Y-151695398D01*
X131838869Y-151636882D01*
X131872869Y-151579393D01*
X131917665Y-151425204D01*
X131920500Y-151389181D01*
X131920499Y-150990820D01*
X131917665Y-150954796D01*
X131872869Y-150800607D01*
X131791135Y-150662402D01*
X131791133Y-150662400D01*
X131791130Y-150662396D01*
X131677603Y-150548869D01*
X131677595Y-150548863D01*
X131539393Y-150467131D01*
X131539388Y-150467129D01*
X131385208Y-150422335D01*
X131385202Y-150422334D01*
X131349181Y-150419500D01*
X130850830Y-150419500D01*
X130850808Y-150419501D01*
X130814794Y-150422335D01*
X130660611Y-150467129D01*
X130660606Y-150467131D01*
X130651982Y-150472232D01*
X130588861Y-150489500D01*
X121611139Y-150489500D01*
X121548018Y-150472232D01*
X121539393Y-150467131D01*
X121539388Y-150467129D01*
X121385208Y-150422335D01*
X121385202Y-150422334D01*
X121349181Y-150419500D01*
X120850830Y-150419500D01*
X120850808Y-150419501D01*
X120814799Y-150422334D01*
X120660606Y-150467131D01*
X120643701Y-150477129D01*
X120638849Y-150479999D01*
X120635073Y-150482232D01*
X120571952Y-150499500D01*
X111611139Y-150499500D01*
X111548018Y-150482232D01*
X111544242Y-150479999D01*
X111539393Y-150477131D01*
X111539388Y-150477129D01*
X111385208Y-150432335D01*
X111385202Y-150432334D01*
X111349181Y-150429500D01*
X110850830Y-150429500D01*
X110850808Y-150429501D01*
X110814794Y-150432335D01*
X110660611Y-150477129D01*
X110660606Y-150477131D01*
X110651982Y-150482232D01*
X110588861Y-150499500D01*
X110001519Y-150499500D01*
X109934480Y-150479815D01*
X109913838Y-150463181D01*
X107760507Y-148309850D01*
X107727022Y-148248527D01*
X107725715Y-148202771D01*
X107730380Y-148173321D01*
X107750500Y-148046287D01*
X107750500Y-147833713D01*
X107717246Y-147623757D01*
X107651557Y-147421588D01*
X107555051Y-147232184D01*
X107555049Y-147232181D01*
X107555048Y-147232179D01*
X107430109Y-147060213D01*
X107279786Y-146909890D01*
X107107820Y-146784951D01*
X107107115Y-146784591D01*
X107099054Y-146780485D01*
X107048259Y-146732512D01*
X107031463Y-146664692D01*
X107053999Y-146598556D01*
X107099054Y-146559515D01*
X107107816Y-146555051D01*
X107129789Y-146539086D01*
X107279786Y-146430109D01*
X107279788Y-146430106D01*
X107279792Y-146430104D01*
X107430104Y-146279792D01*
X107430106Y-146279788D01*
X107430109Y-146279786D01*
X107555048Y-146107820D01*
X107555047Y-146107820D01*
X107555051Y-146107816D01*
X107651557Y-145918412D01*
X107717246Y-145716243D01*
X107750500Y-145506287D01*
X107750500Y-145293713D01*
X107717246Y-145083757D01*
X107651557Y-144881588D01*
X107555051Y-144692184D01*
X107555049Y-144692181D01*
X107555048Y-144692179D01*
X107430109Y-144520213D01*
X107316569Y-144406673D01*
X107283084Y-144345350D01*
X107288068Y-144275658D01*
X107329940Y-144219725D01*
X107360915Y-144202810D01*
X107492331Y-144153796D01*
X107607546Y-144067546D01*
X107693796Y-143952331D01*
X107744091Y-143817483D01*
X107750500Y-143757873D01*
X107750499Y-141962128D01*
X107744091Y-141902517D01*
X107693796Y-141767669D01*
X107693795Y-141767668D01*
X107693793Y-141767664D01*
X107607547Y-141652455D01*
X107607544Y-141652452D01*
X107492335Y-141566206D01*
X107492328Y-141566202D01*
X107357482Y-141515908D01*
X107357483Y-141515908D01*
X107297883Y-141509501D01*
X107297881Y-141509500D01*
X107297873Y-141509500D01*
X107297864Y-141509500D01*
X105502129Y-141509500D01*
X105502123Y-141509501D01*
X105442516Y-141515908D01*
X105307671Y-141566202D01*
X105307664Y-141566206D01*
X105192455Y-141652452D01*
X105192452Y-141652455D01*
X105106206Y-141767664D01*
X105106202Y-141767671D01*
X105055908Y-141902517D01*
X105049501Y-141962116D01*
X105049501Y-141962123D01*
X105049500Y-141962135D01*
X105049500Y-143757870D01*
X105049501Y-143757876D01*
X105055908Y-143817483D01*
X105106202Y-143952328D01*
X105106206Y-143952335D01*
X105192452Y-144067544D01*
X105192455Y-144067547D01*
X105307664Y-144153793D01*
X105307671Y-144153797D01*
X105439082Y-144202810D01*
X105495016Y-144244681D01*
X105519433Y-144310145D01*
X105504582Y-144378418D01*
X105483431Y-144406673D01*
X105369889Y-144520215D01*
X105244951Y-144692179D01*
X105148444Y-144881585D01*
X105082753Y-145083760D01*
X105049500Y-145293713D01*
X105049500Y-145506286D01*
X105082753Y-145716239D01*
X105148444Y-145918414D01*
X105244951Y-146107820D01*
X105369890Y-146279786D01*
X105520213Y-146430109D01*
X105692182Y-146555050D01*
X105700946Y-146559516D01*
X105751742Y-146607491D01*
X105768536Y-146675312D01*
X105745998Y-146741447D01*
X105700946Y-146780484D01*
X105692182Y-146784949D01*
X105520213Y-146909890D01*
X105369890Y-147060213D01*
X105244951Y-147232179D01*
X105148444Y-147421585D01*
X105082753Y-147623760D01*
X105062759Y-147750000D01*
X105049500Y-147833713D01*
X105049500Y-148046287D01*
X105053034Y-148068603D01*
X105044081Y-148137894D01*
X104999086Y-148191346D01*
X104932335Y-148211987D01*
X104930562Y-148212000D01*
X102233663Y-148212000D01*
X102166624Y-148192315D01*
X102120869Y-148139511D01*
X102110925Y-148070353D01*
X102124984Y-148031563D01*
X102124039Y-148031123D01*
X102127093Y-148024572D01*
X102179942Y-147865083D01*
X102189999Y-147766650D01*
X102190000Y-147766637D01*
X102190000Y-147750000D01*
X101339000Y-147750000D01*
X101271961Y-147730315D01*
X101226206Y-147677511D01*
X101215000Y-147626000D01*
X101215000Y-147374000D01*
X101234685Y-147306961D01*
X101287489Y-147261206D01*
X101339000Y-147250000D01*
X102189999Y-147250000D01*
X102189999Y-147233364D01*
X102189998Y-147233347D01*
X102179943Y-147134916D01*
X102127093Y-146975427D01*
X102127091Y-146975422D01*
X102038885Y-146832419D01*
X102007000Y-146800534D01*
X101973515Y-146739211D01*
X101978499Y-146669519D01*
X102007000Y-146625172D01*
X102017221Y-146614951D01*
X102039281Y-146592891D01*
X102127549Y-146449787D01*
X102180436Y-146290185D01*
X102190500Y-146191674D01*
X102190500Y-145658326D01*
X102180436Y-145559815D01*
X102127549Y-145400213D01*
X102127545Y-145400207D01*
X102127544Y-145400204D01*
X102039283Y-145257112D01*
X102039280Y-145257108D01*
X101951819Y-145169647D01*
X101918334Y-145108324D01*
X101915500Y-145081966D01*
X101915500Y-144733506D01*
X101910691Y-144709333D01*
X101910690Y-144709332D01*
X101910690Y-144709328D01*
X101888580Y-144598172D01*
X101888578Y-144598167D01*
X101835777Y-144470692D01*
X101759112Y-144355954D01*
X101730326Y-144327168D01*
X101696841Y-144265845D01*
X101694389Y-144249212D01*
X101692665Y-144227296D01*
X101647869Y-144073107D01*
X101566135Y-143934902D01*
X101566133Y-143934900D01*
X101566130Y-143934896D01*
X101452603Y-143821369D01*
X101452595Y-143821363D01*
X101314393Y-143739631D01*
X101314388Y-143739629D01*
X101160208Y-143694835D01*
X101160202Y-143694834D01*
X101124181Y-143692000D01*
X100725830Y-143692000D01*
X100725808Y-143692001D01*
X100689794Y-143694835D01*
X100535611Y-143739629D01*
X100535604Y-143739632D01*
X100478119Y-143773628D01*
X100410395Y-143790809D01*
X100351881Y-143773628D01*
X100294395Y-143739632D01*
X100294388Y-143739629D01*
X100140208Y-143694835D01*
X100140202Y-143694834D01*
X100104181Y-143692000D01*
X99705830Y-143692000D01*
X99705808Y-143692001D01*
X99669799Y-143694834D01*
X99669796Y-143694835D01*
X99547849Y-143730264D01*
X99515604Y-143739632D01*
X99462051Y-143771303D01*
X99394327Y-143788486D01*
X99351479Y-143779132D01*
X99233501Y-143730264D01*
X99233489Y-143730261D01*
X99078845Y-143699500D01*
X99078842Y-143699500D01*
X98921158Y-143699500D01*
X98921155Y-143699500D01*
X98766510Y-143730261D01*
X98766507Y-143730261D01*
X98671952Y-143769427D01*
X98602482Y-143776895D01*
X98540003Y-143745619D01*
X98504351Y-143685530D01*
X98500500Y-143654865D01*
X98500500Y-137896231D01*
X100254500Y-137896231D01*
X100254500Y-138123768D01*
X100290093Y-138348490D01*
X100360400Y-138564876D01*
X100360401Y-138564879D01*
X100463697Y-138767607D01*
X100597434Y-138951680D01*
X100758320Y-139112566D01*
X100942393Y-139246303D01*
X101041825Y-139296966D01*
X101145120Y-139349598D01*
X101145123Y-139349599D01*
X101253316Y-139384752D01*
X101361511Y-139419907D01*
X101465591Y-139436391D01*
X101586232Y-139455500D01*
X101586237Y-139455500D01*
X101813768Y-139455500D01*
X101922710Y-139438244D01*
X102038489Y-139419907D01*
X102254879Y-139349598D01*
X102457607Y-139246303D01*
X102641680Y-139112566D01*
X102802566Y-138951680D01*
X102936303Y-138767607D01*
X103039598Y-138564879D01*
X103109907Y-138348489D01*
X103128244Y-138232710D01*
X103145500Y-138123768D01*
X103145500Y-137896231D01*
X103124793Y-137765499D01*
X103109907Y-137671511D01*
X103039598Y-137455121D01*
X103039598Y-137455120D01*
X102936302Y-137252392D01*
X102802566Y-137068320D01*
X102641680Y-136907434D01*
X102457607Y-136773697D01*
X102254879Y-136670401D01*
X102254876Y-136670400D01*
X102038490Y-136600093D01*
X101813768Y-136564500D01*
X101813763Y-136564500D01*
X101586237Y-136564500D01*
X101586232Y-136564500D01*
X101361509Y-136600093D01*
X101145123Y-136670400D01*
X101145120Y-136670401D01*
X100942392Y-136773697D01*
X100837372Y-136849998D01*
X100758320Y-136907434D01*
X100758318Y-136907436D01*
X100758317Y-136907436D01*
X100597436Y-137068317D01*
X100597436Y-137068318D01*
X100597434Y-137068320D01*
X100539998Y-137147372D01*
X100463697Y-137252392D01*
X100360401Y-137455120D01*
X100360400Y-137455123D01*
X100290093Y-137671509D01*
X100254500Y-137896231D01*
X98500500Y-137896231D01*
X98500500Y-105776231D01*
X122154500Y-105776231D01*
X122154500Y-106003768D01*
X122190093Y-106228490D01*
X122260400Y-106444876D01*
X122260401Y-106444879D01*
X122363697Y-106647607D01*
X122497434Y-106831680D01*
X122658320Y-106992566D01*
X122842393Y-107126303D01*
X122941825Y-107176966D01*
X123045120Y-107229598D01*
X123045123Y-107229599D01*
X123153316Y-107264752D01*
X123261511Y-107299907D01*
X123365591Y-107316391D01*
X123486232Y-107335500D01*
X123486237Y-107335500D01*
X123713768Y-107335500D01*
X123822710Y-107318244D01*
X123938489Y-107299907D01*
X124154879Y-107229598D01*
X124357607Y-107126303D01*
X124541680Y-106992566D01*
X124702566Y-106831680D01*
X124836303Y-106647607D01*
X124939598Y-106444879D01*
X125009907Y-106228489D01*
X125028244Y-106112710D01*
X125045500Y-106003768D01*
X125045500Y-105776231D01*
X125024793Y-105645499D01*
X125009907Y-105551511D01*
X124939598Y-105335121D01*
X124939598Y-105335120D01*
X124836302Y-105132392D01*
X124823021Y-105114112D01*
X124702566Y-104948320D01*
X124541680Y-104787434D01*
X124357607Y-104653697D01*
X124154879Y-104550401D01*
X124154876Y-104550400D01*
X123938490Y-104480093D01*
X123713768Y-104444500D01*
X123713763Y-104444500D01*
X123486237Y-104444500D01*
X123486232Y-104444500D01*
X123261509Y-104480093D01*
X123045123Y-104550400D01*
X123045120Y-104550401D01*
X122842392Y-104653697D01*
X122737372Y-104729998D01*
X122658320Y-104787434D01*
X122658318Y-104787436D01*
X122658317Y-104787436D01*
X122497436Y-104948317D01*
X122497436Y-104948318D01*
X122497434Y-104948320D01*
X122439998Y-105027372D01*
X122363697Y-105132392D01*
X122260401Y-105335120D01*
X122260400Y-105335123D01*
X122190093Y-105551509D01*
X122154500Y-105776231D01*
X98500500Y-105776231D01*
X98500500Y-101120525D01*
X137624500Y-101120525D01*
X137624500Y-101379474D01*
X137624501Y-101379491D01*
X137658299Y-101636217D01*
X137658300Y-101636222D01*
X137658301Y-101636228D01*
X137658302Y-101636230D01*
X137725324Y-101886364D01*
X137824423Y-102125609D01*
X137824427Y-102125619D01*
X137953906Y-102349883D01*
X138111551Y-102555331D01*
X138111557Y-102555338D01*
X138294661Y-102738442D01*
X138294668Y-102738448D01*
X138500116Y-102896093D01*
X138724380Y-103025572D01*
X138724381Y-103025572D01*
X138724384Y-103025574D01*
X138963634Y-103124675D01*
X139213772Y-103191699D01*
X139470519Y-103225500D01*
X139470526Y-103225500D01*
X139729474Y-103225500D01*
X139729481Y-103225500D01*
X139986228Y-103191699D01*
X140236366Y-103124675D01*
X140475616Y-103025574D01*
X140699884Y-102896093D01*
X140905333Y-102738447D01*
X141088447Y-102555333D01*
X141246093Y-102349884D01*
X141375574Y-102125616D01*
X141474675Y-101886366D01*
X141541699Y-101636228D01*
X141575500Y-101379481D01*
X141575500Y-101120519D01*
X141541699Y-100863772D01*
X141474675Y-100613634D01*
X141375574Y-100374384D01*
X141246093Y-100150116D01*
X141088447Y-99944667D01*
X141088442Y-99944661D01*
X140905338Y-99761557D01*
X140905331Y-99761551D01*
X140699883Y-99603906D01*
X140475619Y-99474427D01*
X140475609Y-99474423D01*
X140236364Y-99375324D01*
X140111297Y-99341813D01*
X139986228Y-99308301D01*
X139986222Y-99308300D01*
X139986217Y-99308299D01*
X139729491Y-99274501D01*
X139729486Y-99274500D01*
X139729481Y-99274500D01*
X139470519Y-99274500D01*
X139470513Y-99274500D01*
X139470508Y-99274501D01*
X139213782Y-99308299D01*
X139213775Y-99308300D01*
X139213772Y-99308301D01*
X139160908Y-99322465D01*
X138963635Y-99375324D01*
X138724390Y-99474423D01*
X138724380Y-99474427D01*
X138500116Y-99603906D01*
X138294668Y-99761551D01*
X138294661Y-99761557D01*
X138111557Y-99944661D01*
X138111551Y-99944668D01*
X137953906Y-100150116D01*
X137824427Y-100374380D01*
X137824423Y-100374390D01*
X137725324Y-100613635D01*
X137658302Y-100863769D01*
X137658299Y-100863782D01*
X137624501Y-101120508D01*
X137624500Y-101120525D01*
X98500500Y-101120525D01*
X98500500Y-88621153D01*
X118799500Y-88621153D01*
X118799500Y-88778846D01*
X118830261Y-88933489D01*
X118830264Y-88933501D01*
X118890602Y-89079172D01*
X118890609Y-89079185D01*
X118978210Y-89210288D01*
X118978213Y-89210292D01*
X119089707Y-89321786D01*
X119089711Y-89321789D01*
X119220814Y-89409390D01*
X119220827Y-89409397D01*
X119366498Y-89469735D01*
X119366503Y-89469737D01*
X119521153Y-89500499D01*
X119521156Y-89500500D01*
X119521158Y-89500500D01*
X119678844Y-89500500D01*
X119678845Y-89500499D01*
X119833497Y-89469737D01*
X119979179Y-89409394D01*
X120110289Y-89321789D01*
X120221789Y-89210289D01*
X120309394Y-89079179D01*
X120369737Y-88933497D01*
X120372090Y-88921662D01*
X120390605Y-88876963D01*
X120420775Y-88831811D01*
X120473580Y-88704328D01*
X120500500Y-88568994D01*
X120500500Y-88431006D01*
X120500500Y-86724500D01*
X120520185Y-86657461D01*
X120572989Y-86611706D01*
X120624500Y-86600500D01*
X120958481Y-86600500D01*
X121025520Y-86620185D01*
X121046162Y-86636819D01*
X121498903Y-87089560D01*
X121525783Y-87129789D01*
X121585577Y-87274147D01*
X121585584Y-87274160D01*
X121673185Y-87405263D01*
X121673188Y-87405267D01*
X121784682Y-87516761D01*
X121784686Y-87516764D01*
X121915789Y-87604365D01*
X121915802Y-87604372D01*
X122061473Y-87664710D01*
X122061478Y-87664712D01*
X122216128Y-87695474D01*
X122216131Y-87695475D01*
X122216133Y-87695475D01*
X122373819Y-87695475D01*
X122373820Y-87695474D01*
X122528472Y-87664712D01*
X122674154Y-87604369D01*
X122805264Y-87516764D01*
X122916764Y-87405264D01*
X123004369Y-87274154D01*
X123064712Y-87128472D01*
X123095475Y-86973817D01*
X123095475Y-86816133D01*
X123095475Y-86816130D01*
X123095474Y-86816128D01*
X123064713Y-86661485D01*
X123064712Y-86661478D01*
X123044096Y-86611706D01*
X123004372Y-86515802D01*
X123004365Y-86515789D01*
X122916764Y-86384686D01*
X122916761Y-86384682D01*
X122805267Y-86273188D01*
X122805263Y-86273185D01*
X122674160Y-86185584D01*
X122674147Y-86185577D01*
X122529789Y-86125783D01*
X122489560Y-86098903D01*
X121746546Y-85355888D01*
X121746545Y-85355887D01*
X121631807Y-85279222D01*
X121504332Y-85226421D01*
X121504322Y-85226418D01*
X121368996Y-85199500D01*
X121368994Y-85199500D01*
X121368993Y-85199500D01*
X120068994Y-85199500D01*
X119931006Y-85199500D01*
X119931004Y-85199500D01*
X119795677Y-85226418D01*
X119795671Y-85226420D01*
X119668187Y-85279225D01*
X119668186Y-85279226D01*
X119623033Y-85309395D01*
X119578345Y-85327907D01*
X119566502Y-85330263D01*
X119566498Y-85330264D01*
X119420827Y-85390602D01*
X119420814Y-85390609D01*
X119289711Y-85478210D01*
X119289707Y-85478213D01*
X119178213Y-85589707D01*
X119178210Y-85589711D01*
X119090609Y-85720814D01*
X119090602Y-85720827D01*
X119030264Y-85866498D01*
X119030261Y-85866510D01*
X118999500Y-86021153D01*
X118999500Y-86178846D01*
X119030261Y-86333489D01*
X119030264Y-86333501D01*
X119090061Y-86477864D01*
X119099500Y-86525316D01*
X119099500Y-88017059D01*
X119079815Y-88084098D01*
X119063181Y-88104740D01*
X118978213Y-88189707D01*
X118978210Y-88189711D01*
X118890609Y-88320814D01*
X118890602Y-88320827D01*
X118830264Y-88466498D01*
X118830261Y-88466510D01*
X118799500Y-88621153D01*
X98500500Y-88621153D01*
X98500500Y-74477248D01*
X99674500Y-74477248D01*
X99674500Y-74742751D01*
X99674501Y-74742767D01*
X99709156Y-75006001D01*
X99777879Y-75262478D01*
X99879481Y-75507768D01*
X99879489Y-75507785D01*
X100012240Y-75737714D01*
X100012251Y-75737730D01*
X100173879Y-75948368D01*
X100173885Y-75948375D01*
X100361624Y-76136114D01*
X100361630Y-76136119D01*
X100572278Y-76297755D01*
X100572285Y-76297759D01*
X100802214Y-76430510D01*
X100802219Y-76430512D01*
X100802222Y-76430514D01*
X100802226Y-76430515D01*
X100802231Y-76430518D01*
X101047522Y-76532120D01*
X101047520Y-76532120D01*
X101047526Y-76532121D01*
X101047527Y-76532122D01*
X101303997Y-76600843D01*
X101567242Y-76635500D01*
X101567249Y-76635500D01*
X101832751Y-76635500D01*
X101832758Y-76635500D01*
X102096003Y-76600843D01*
X102352473Y-76532122D01*
X102597778Y-76430514D01*
X102827722Y-76297755D01*
X103038370Y-76136119D01*
X103226119Y-75948370D01*
X103387755Y-75737722D01*
X103520514Y-75507778D01*
X103622122Y-75262473D01*
X103690843Y-75006003D01*
X103725500Y-74742758D01*
X103725500Y-74477242D01*
X103690843Y-74213997D01*
X103622122Y-73957527D01*
X103520514Y-73712222D01*
X103520512Y-73712219D01*
X103520510Y-73712214D01*
X103387759Y-73482285D01*
X103387755Y-73482278D01*
X103226119Y-73271630D01*
X103226114Y-73271624D01*
X103038375Y-73083885D01*
X103038368Y-73083879D01*
X102827730Y-72922251D01*
X102827728Y-72922249D01*
X102827722Y-72922245D01*
X102827717Y-72922242D01*
X102827714Y-72922240D01*
X102597785Y-72789489D01*
X102597768Y-72789481D01*
X102352477Y-72687879D01*
X102352479Y-72687879D01*
X102096001Y-72619156D01*
X101832767Y-72584501D01*
X101832764Y-72584500D01*
X101832758Y-72584500D01*
X101567242Y-72584500D01*
X101567236Y-72584500D01*
X101567232Y-72584501D01*
X101303998Y-72619156D01*
X101047521Y-72687879D01*
X100802231Y-72789481D01*
X100802214Y-72789489D01*
X100572285Y-72922240D01*
X100572269Y-72922251D01*
X100361631Y-73083879D01*
X100361624Y-73083885D01*
X100173885Y-73271624D01*
X100173879Y-73271631D01*
X100012251Y-73482269D01*
X100012240Y-73482285D01*
X99879489Y-73712214D01*
X99879481Y-73712231D01*
X99777879Y-73957521D01*
X99709156Y-74213998D01*
X99674501Y-74477232D01*
X99674500Y-74477248D01*
X98500500Y-74477248D01*
X98500500Y-70640525D01*
X121624500Y-70640525D01*
X121624500Y-70899474D01*
X121624501Y-70899491D01*
X121658299Y-71156217D01*
X121658300Y-71156222D01*
X121658301Y-71156228D01*
X121658302Y-71156230D01*
X121725324Y-71406364D01*
X121824423Y-71645609D01*
X121824427Y-71645619D01*
X121953906Y-71869883D01*
X122111551Y-72075331D01*
X122111557Y-72075338D01*
X122294661Y-72258442D01*
X122294668Y-72258448D01*
X122500116Y-72416093D01*
X122724380Y-72545572D01*
X122724381Y-72545572D01*
X122724384Y-72545574D01*
X122963634Y-72644675D01*
X123213772Y-72711699D01*
X123470519Y-72745500D01*
X123470526Y-72745500D01*
X123729474Y-72745500D01*
X123729481Y-72745500D01*
X123986228Y-72711699D01*
X124236366Y-72644675D01*
X124475616Y-72545574D01*
X124699884Y-72416093D01*
X124905333Y-72258447D01*
X125088447Y-72075333D01*
X125246093Y-71869884D01*
X125375574Y-71645616D01*
X125474675Y-71406366D01*
X125541699Y-71156228D01*
X125575500Y-70899481D01*
X125575500Y-70640519D01*
X125541699Y-70383772D01*
X125474675Y-70133634D01*
X125375574Y-69894384D01*
X125246093Y-69670116D01*
X125088447Y-69464667D01*
X125088442Y-69464661D01*
X124905338Y-69281557D01*
X124905331Y-69281551D01*
X124699883Y-69123906D01*
X124475619Y-68994427D01*
X124475609Y-68994423D01*
X124236364Y-68895324D01*
X124111297Y-68861813D01*
X123986228Y-68828301D01*
X123986222Y-68828300D01*
X123986217Y-68828299D01*
X123729491Y-68794501D01*
X123729486Y-68794500D01*
X123729481Y-68794500D01*
X123470519Y-68794500D01*
X123470513Y-68794500D01*
X123470508Y-68794501D01*
X123213782Y-68828299D01*
X123213775Y-68828300D01*
X123213772Y-68828301D01*
X123160908Y-68842465D01*
X122963635Y-68895324D01*
X122724390Y-68994423D01*
X122724380Y-68994427D01*
X122500116Y-69123906D01*
X122294668Y-69281551D01*
X122294661Y-69281557D01*
X122111557Y-69464661D01*
X122111551Y-69464668D01*
X121953906Y-69670116D01*
X121824427Y-69894380D01*
X121824423Y-69894390D01*
X121725324Y-70133635D01*
X121658302Y-70383769D01*
X121658299Y-70383782D01*
X121624501Y-70640508D01*
X121624500Y-70640525D01*
X98500500Y-70640525D01*
X98500500Y-65672734D01*
X108210000Y-65672734D01*
X108210000Y-65907265D01*
X108246689Y-66138909D01*
X108319164Y-66361965D01*
X108425640Y-66570933D01*
X108484498Y-66651945D01*
X108484499Y-66651945D01*
X109091304Y-66045140D01*
X109115116Y-66102627D01*
X109187345Y-66210725D01*
X109279275Y-66302655D01*
X109387373Y-66374884D01*
X109444858Y-66398695D01*
X108838052Y-67005499D01*
X108838053Y-67005500D01*
X108919066Y-67064359D01*
X109128034Y-67170835D01*
X109351090Y-67243310D01*
X109582735Y-67280000D01*
X109817265Y-67280000D01*
X110048909Y-67243310D01*
X110271965Y-67170835D01*
X110278010Y-67167755D01*
X110480930Y-67064361D01*
X110561945Y-67005499D01*
X110561946Y-67005499D01*
X109955141Y-66398695D01*
X110012627Y-66374884D01*
X110120725Y-66302655D01*
X110212655Y-66210725D01*
X110284884Y-66102627D01*
X110308695Y-66045141D01*
X110915499Y-66651946D01*
X110915499Y-66651945D01*
X110974361Y-66570930D01*
X111080835Y-66361965D01*
X111153310Y-66138909D01*
X111190000Y-65907265D01*
X111190000Y-65672734D01*
X111156866Y-65463543D01*
X114179499Y-65463543D01*
X114217947Y-65656829D01*
X114217950Y-65656839D01*
X114293364Y-65838907D01*
X114293371Y-65838920D01*
X114402860Y-66002781D01*
X114402863Y-66002785D01*
X114542214Y-66142136D01*
X114542218Y-66142139D01*
X114706079Y-66251628D01*
X114706092Y-66251635D01*
X114828929Y-66302515D01*
X114888165Y-66327051D01*
X114888169Y-66327051D01*
X114888170Y-66327052D01*
X115081456Y-66365500D01*
X115081459Y-66365500D01*
X115278543Y-66365500D01*
X115408582Y-66339632D01*
X115471835Y-66327051D01*
X115653914Y-66251632D01*
X115817782Y-66142139D01*
X115957139Y-66002782D01*
X116066632Y-65838914D01*
X116142051Y-65656835D01*
X116177749Y-65477373D01*
X116180500Y-65463543D01*
X116180500Y-64946333D01*
X116200185Y-64879294D01*
X116252989Y-64833539D01*
X116322147Y-64823595D01*
X116366501Y-64838947D01*
X116387859Y-64851278D01*
X116387860Y-64851278D01*
X116387865Y-64851281D01*
X116534234Y-64890500D01*
X116534236Y-64890500D01*
X116685764Y-64890500D01*
X116685766Y-64890500D01*
X116832135Y-64851281D01*
X116963365Y-64775515D01*
X117070515Y-64668365D01*
X117146281Y-64537135D01*
X117185500Y-64390766D01*
X117185500Y-64239234D01*
X121814500Y-64239234D01*
X121814500Y-64390765D01*
X121853719Y-64537136D01*
X121875291Y-64574499D01*
X121929485Y-64668365D01*
X122036635Y-64775515D01*
X122140774Y-64835640D01*
X122167861Y-64851279D01*
X122167865Y-64851281D01*
X122314234Y-64890500D01*
X122314236Y-64890500D01*
X122465764Y-64890500D01*
X122465766Y-64890500D01*
X122612135Y-64851281D01*
X122622451Y-64845325D01*
X122633499Y-64838947D01*
X122701398Y-64822473D01*
X122767426Y-64845325D01*
X122810617Y-64900245D01*
X122819500Y-64946333D01*
X122819500Y-65463541D01*
X122819500Y-65463543D01*
X122819499Y-65463543D01*
X122857947Y-65656829D01*
X122857950Y-65656839D01*
X122933364Y-65838907D01*
X122933371Y-65838920D01*
X123042860Y-66002781D01*
X123042863Y-66002785D01*
X123182214Y-66142136D01*
X123182218Y-66142139D01*
X123346079Y-66251628D01*
X123346092Y-66251635D01*
X123468929Y-66302515D01*
X123528165Y-66327051D01*
X123528169Y-66327051D01*
X123528170Y-66327052D01*
X123721456Y-66365500D01*
X123721459Y-66365500D01*
X123918543Y-66365500D01*
X124048582Y-66339632D01*
X124111835Y-66327051D01*
X124293914Y-66251632D01*
X124457782Y-66142139D01*
X124597139Y-66002782D01*
X124603853Y-65992734D01*
X130110000Y-65992734D01*
X130110000Y-66227265D01*
X130146689Y-66458909D01*
X130219164Y-66681965D01*
X130325640Y-66890933D01*
X130384498Y-66971945D01*
X130384499Y-66971945D01*
X130991304Y-66365140D01*
X131015116Y-66422627D01*
X131087345Y-66530725D01*
X131179275Y-66622655D01*
X131287373Y-66694884D01*
X131344858Y-66718695D01*
X130738052Y-67325499D01*
X130738053Y-67325500D01*
X130819066Y-67384359D01*
X131028034Y-67490835D01*
X131251090Y-67563310D01*
X131482735Y-67600000D01*
X131717265Y-67600000D01*
X131948909Y-67563310D01*
X132171965Y-67490835D01*
X132380930Y-67384361D01*
X132461945Y-67325499D01*
X132461946Y-67325499D01*
X131855141Y-66718695D01*
X131912627Y-66694884D01*
X132020725Y-66622655D01*
X132112655Y-66530725D01*
X132184884Y-66422627D01*
X132208695Y-66365141D01*
X132815499Y-66971946D01*
X132815499Y-66971945D01*
X132874361Y-66890930D01*
X132980835Y-66681965D01*
X133053310Y-66458909D01*
X133090000Y-66227265D01*
X133090000Y-65992734D01*
X133053310Y-65761090D01*
X132980835Y-65538034D01*
X132874359Y-65329066D01*
X132815500Y-65248053D01*
X132815499Y-65248052D01*
X132208694Y-65854857D01*
X132184884Y-65797373D01*
X132112655Y-65689275D01*
X132020725Y-65597345D01*
X131912627Y-65525116D01*
X131855141Y-65501304D01*
X132461945Y-64894499D01*
X132461945Y-64894498D01*
X132380933Y-64835640D01*
X132171965Y-64729164D01*
X131948909Y-64656689D01*
X131717265Y-64620000D01*
X131482735Y-64620000D01*
X131251090Y-64656689D01*
X131028034Y-64729164D01*
X130819068Y-64835639D01*
X130738053Y-64894498D01*
X130738053Y-64894499D01*
X131344858Y-65501304D01*
X131287373Y-65525116D01*
X131179275Y-65597345D01*
X131087345Y-65689275D01*
X131015116Y-65797373D01*
X130991304Y-65854858D01*
X130384499Y-65248053D01*
X130384498Y-65248053D01*
X130325639Y-65329068D01*
X130219164Y-65538034D01*
X130146689Y-65761090D01*
X130110000Y-65992734D01*
X124603853Y-65992734D01*
X124660962Y-65907265D01*
X124706628Y-65838920D01*
X124706628Y-65838919D01*
X124706632Y-65838914D01*
X124782051Y-65656835D01*
X124817749Y-65477373D01*
X124820500Y-65463543D01*
X124820500Y-64166456D01*
X124782052Y-63973170D01*
X124782051Y-63973169D01*
X124782051Y-63973165D01*
X124777274Y-63961632D01*
X124706635Y-63791092D01*
X124706628Y-63791079D01*
X124597139Y-63627218D01*
X124597136Y-63627214D01*
X124457785Y-63487863D01*
X124457781Y-63487860D01*
X124293920Y-63378371D01*
X124293907Y-63378364D01*
X124111839Y-63302950D01*
X124111829Y-63302947D01*
X123918543Y-63264500D01*
X123918541Y-63264500D01*
X123721459Y-63264500D01*
X123721457Y-63264500D01*
X123528170Y-63302947D01*
X123528160Y-63302950D01*
X123346092Y-63378364D01*
X123346079Y-63378371D01*
X123182218Y-63487860D01*
X123182214Y-63487863D01*
X123042863Y-63627214D01*
X123042860Y-63627218D01*
X122933371Y-63791079D01*
X122933363Y-63791094D01*
X122929456Y-63800528D01*
X122885615Y-63854931D01*
X122819320Y-63876995D01*
X122751621Y-63859715D01*
X122746968Y-63856566D01*
X122743366Y-63854486D01*
X122743365Y-63854485D01*
X122649899Y-63800522D01*
X122612136Y-63778719D01*
X122538950Y-63759109D01*
X122465766Y-63739500D01*
X122314234Y-63739500D01*
X122167863Y-63778719D01*
X122036635Y-63854485D01*
X122036632Y-63854487D01*
X121929487Y-63961632D01*
X121929485Y-63961635D01*
X121853719Y-64092863D01*
X121814500Y-64239234D01*
X117185500Y-64239234D01*
X117146281Y-64092865D01*
X117070515Y-63961635D01*
X116963365Y-63854485D01*
X116892838Y-63813766D01*
X116832136Y-63778719D01*
X116758950Y-63759109D01*
X116685766Y-63739500D01*
X116534234Y-63739500D01*
X116387863Y-63778719D01*
X116296428Y-63831510D01*
X116256635Y-63854485D01*
X116256633Y-63854486D01*
X116249597Y-63858549D01*
X116248254Y-63856224D01*
X116195391Y-63876647D01*
X116126949Y-63862592D01*
X116076971Y-63813766D01*
X116070540Y-63800522D01*
X116066632Y-63791087D01*
X116066628Y-63791079D01*
X115957139Y-63627218D01*
X115957136Y-63627214D01*
X115817785Y-63487863D01*
X115817781Y-63487860D01*
X115653920Y-63378371D01*
X115653907Y-63378364D01*
X115471839Y-63302950D01*
X115471829Y-63302947D01*
X115278543Y-63264500D01*
X115278541Y-63264500D01*
X115081459Y-63264500D01*
X115081457Y-63264500D01*
X114888170Y-63302947D01*
X114888160Y-63302950D01*
X114706092Y-63378364D01*
X114706079Y-63378371D01*
X114542218Y-63487860D01*
X114542214Y-63487863D01*
X114402863Y-63627214D01*
X114402860Y-63627218D01*
X114293371Y-63791079D01*
X114293364Y-63791092D01*
X114217950Y-63973160D01*
X114217947Y-63973170D01*
X114179500Y-64166456D01*
X114179500Y-64166459D01*
X114179500Y-65463541D01*
X114179500Y-65463543D01*
X114179499Y-65463543D01*
X111156866Y-65463543D01*
X111153310Y-65441090D01*
X111080835Y-65218034D01*
X110974359Y-65009066D01*
X110915500Y-64928053D01*
X110915499Y-64928052D01*
X110308694Y-65534857D01*
X110284884Y-65477373D01*
X110212655Y-65369275D01*
X110120725Y-65277345D01*
X110012627Y-65205116D01*
X109955141Y-65181304D01*
X110561945Y-64574499D01*
X110561945Y-64574498D01*
X110480933Y-64515640D01*
X110271965Y-64409164D01*
X110048909Y-64336689D01*
X109817265Y-64300000D01*
X109582735Y-64300000D01*
X109351090Y-64336689D01*
X109128034Y-64409164D01*
X108919068Y-64515639D01*
X108838053Y-64574498D01*
X108838053Y-64574499D01*
X109444858Y-65181304D01*
X109387373Y-65205116D01*
X109279275Y-65277345D01*
X109187345Y-65369275D01*
X109115116Y-65477373D01*
X109091304Y-65534858D01*
X108484499Y-64928053D01*
X108484498Y-64928053D01*
X108425639Y-65009068D01*
X108319164Y-65218034D01*
X108246689Y-65441090D01*
X108210000Y-65672734D01*
X98500500Y-65672734D01*
X98500500Y-61627334D01*
X98520185Y-61560295D01*
X98572989Y-61514540D01*
X98642147Y-61504596D01*
X98705703Y-61533621D01*
X98731885Y-61565332D01*
X98766425Y-61625156D01*
X98766430Y-61625162D01*
X98766431Y-61625164D01*
X98942024Y-61854002D01*
X98942030Y-61854009D01*
X99145990Y-62057969D01*
X99145996Y-62057974D01*
X99374844Y-62233575D01*
X99374851Y-62233579D01*
X99624647Y-62377800D01*
X99624663Y-62377808D01*
X99891139Y-62488185D01*
X99891145Y-62488186D01*
X99891155Y-62488191D01*
X100169783Y-62562849D01*
X100455772Y-62600500D01*
X100455779Y-62600500D01*
X100744221Y-62600500D01*
X100744228Y-62600500D01*
X101030217Y-62562849D01*
X101308845Y-62488191D01*
X101308857Y-62488185D01*
X101308860Y-62488185D01*
X101575336Y-62377808D01*
X101575339Y-62377806D01*
X101575345Y-62377804D01*
X101825156Y-62233575D01*
X102054004Y-62057974D01*
X102257974Y-61854004D01*
X102433575Y-61625156D01*
X102577804Y-61375345D01*
X102597898Y-61326835D01*
X102677961Y-61133543D01*
X114179499Y-61133543D01*
X114217947Y-61326829D01*
X114217950Y-61326839D01*
X114293364Y-61508907D01*
X114293371Y-61508920D01*
X114402860Y-61672781D01*
X114402863Y-61672785D01*
X114542214Y-61812136D01*
X114542218Y-61812139D01*
X114706079Y-61921628D01*
X114706092Y-61921635D01*
X114888160Y-61997049D01*
X114888165Y-61997051D01*
X114888169Y-61997051D01*
X114888170Y-61997052D01*
X115081456Y-62035500D01*
X115081459Y-62035500D01*
X115278543Y-62035500D01*
X115408582Y-62009632D01*
X115471835Y-61997051D01*
X115653914Y-61921632D01*
X115817782Y-61812139D01*
X115957139Y-61672782D01*
X116066632Y-61508914D01*
X116142051Y-61326835D01*
X116180500Y-61133543D01*
X122819499Y-61133543D01*
X122857947Y-61326829D01*
X122857950Y-61326839D01*
X122933364Y-61508907D01*
X122933371Y-61508920D01*
X123042860Y-61672781D01*
X123042863Y-61672785D01*
X123182214Y-61812136D01*
X123182218Y-61812139D01*
X123346079Y-61921628D01*
X123346092Y-61921635D01*
X123528160Y-61997049D01*
X123528165Y-61997051D01*
X123528169Y-61997051D01*
X123528170Y-61997052D01*
X123721456Y-62035500D01*
X123721459Y-62035500D01*
X123918543Y-62035500D01*
X124048582Y-62009632D01*
X124111835Y-61997051D01*
X124293914Y-61921632D01*
X124457782Y-61812139D01*
X124597139Y-61672782D01*
X124706632Y-61508914D01*
X124782051Y-61326835D01*
X124820500Y-61133541D01*
X124820500Y-60136459D01*
X124820500Y-60136456D01*
X124782052Y-59943170D01*
X124782051Y-59943169D01*
X124782051Y-59943165D01*
X124781142Y-59940971D01*
X124706634Y-59761090D01*
X124706629Y-59761081D01*
X124597139Y-59597218D01*
X124597136Y-59597214D01*
X124457785Y-59457863D01*
X124457781Y-59457860D01*
X124293920Y-59348371D01*
X124293907Y-59348364D01*
X124111839Y-59272950D01*
X124111829Y-59272947D01*
X123918543Y-59234500D01*
X123918541Y-59234500D01*
X123721459Y-59234500D01*
X123721457Y-59234500D01*
X123528170Y-59272947D01*
X123528160Y-59272950D01*
X123346092Y-59348364D01*
X123346079Y-59348371D01*
X123182218Y-59457860D01*
X123182214Y-59457863D01*
X123042863Y-59597214D01*
X123042860Y-59597218D01*
X122933371Y-59761079D01*
X122933364Y-59761092D01*
X122857950Y-59943160D01*
X122857947Y-59943170D01*
X122819500Y-60136456D01*
X122819500Y-60136459D01*
X122819500Y-61133541D01*
X122819500Y-61133543D01*
X122819499Y-61133543D01*
X116180500Y-61133543D01*
X116180500Y-61133541D01*
X116180500Y-60136459D01*
X116180500Y-60136456D01*
X116142052Y-59943170D01*
X116142051Y-59943169D01*
X116142051Y-59943165D01*
X116141142Y-59940971D01*
X116066635Y-59761092D01*
X116066628Y-59761079D01*
X115957139Y-59597218D01*
X115957136Y-59597214D01*
X115817785Y-59457863D01*
X115817781Y-59457860D01*
X115653920Y-59348371D01*
X115653907Y-59348364D01*
X115471839Y-59272950D01*
X115471829Y-59272947D01*
X115278543Y-59234500D01*
X115278541Y-59234500D01*
X115081459Y-59234500D01*
X115081457Y-59234500D01*
X114888170Y-59272947D01*
X114888160Y-59272950D01*
X114706092Y-59348364D01*
X114706079Y-59348371D01*
X114542218Y-59457860D01*
X114542214Y-59457863D01*
X114402863Y-59597214D01*
X114402860Y-59597218D01*
X114293371Y-59761079D01*
X114293364Y-59761092D01*
X114217950Y-59943160D01*
X114217947Y-59943170D01*
X114179500Y-60136456D01*
X114179500Y-60136459D01*
X114179500Y-61133541D01*
X114179500Y-61133543D01*
X114179499Y-61133543D01*
X102677961Y-61133543D01*
X102688185Y-61108860D01*
X102688185Y-61108857D01*
X102688191Y-61108845D01*
X102762849Y-60830217D01*
X102800500Y-60544228D01*
X102800500Y-60255772D01*
X102762849Y-59969783D01*
X102688191Y-59691155D01*
X102688186Y-59691145D01*
X102688185Y-59691139D01*
X102577808Y-59424663D01*
X102577800Y-59424647D01*
X102433579Y-59174851D01*
X102433575Y-59174844D01*
X102305751Y-59008260D01*
X102257975Y-58945997D01*
X102257969Y-58945990D01*
X102054009Y-58742030D01*
X102054002Y-58742024D01*
X102029048Y-58722876D01*
X101987845Y-58666448D01*
X101983690Y-58596702D01*
X102017902Y-58535782D01*
X102079620Y-58503029D01*
X102104534Y-58500500D01*
X139095466Y-58500500D01*
X139162505Y-58520185D01*
G37*
%TD.AperFunction*%
%TA.AperFunction,Conductor*%
G36*
X134165596Y-116345185D02*
G01*
X134186238Y-116361819D01*
X135745387Y-117920968D01*
X135778872Y-117982291D01*
X135773888Y-118051983D01*
X135732016Y-118107916D01*
X135666552Y-118132333D01*
X135633515Y-118130266D01*
X135478845Y-118099500D01*
X135478842Y-118099500D01*
X135321158Y-118099500D01*
X135321155Y-118099500D01*
X135166510Y-118130261D01*
X135166498Y-118130264D01*
X135022136Y-118190061D01*
X134974684Y-118199500D01*
X133131004Y-118199500D01*
X132995677Y-118226418D01*
X132995667Y-118226421D01*
X132868192Y-118279222D01*
X132753454Y-118355887D01*
X132753453Y-118355888D01*
X128846162Y-122263181D01*
X128784839Y-122296666D01*
X128758481Y-122299500D01*
X118050442Y-122299500D01*
X117983403Y-122279815D01*
X117937648Y-122227011D01*
X117927704Y-122157853D01*
X117956729Y-122094297D01*
X117962761Y-122087819D01*
X123688761Y-116361819D01*
X123750084Y-116328334D01*
X123776442Y-116325500D01*
X134098557Y-116325500D01*
X134165596Y-116345185D01*
G37*
%TD.AperFunction*%
%TD*%
M02*
