%TF.GenerationSoftware,KiCad,Pcbnew,9.0.7-9.0.7~ubuntu24.04.1*%
%TF.CreationDate,2026-03-19T13:06:13-04:00*%
%TF.ProjectId,batteryTester,62617474-6572-4795-9465-737465722e6b,rev?*%
%TF.SameCoordinates,Original*%
%TF.FileFunction,Soldermask,Top*%
%TF.FilePolarity,Negative*%
%FSLAX46Y46*%
G04 Gerber Fmt 4.6, Leading zero omitted, Abs format (unit mm)*
G04 Created by KiCad (PCBNEW 9.0.7-9.0.7~ubuntu24.04.1) date 2026-03-19 13:06:13*
%MOMM*%
%LPD*%
G01*
G04 APERTURE LIST*
G04 Aperture macros list*
%AMRoundRect*
0 Rectangle with rounded corners*
0 $1 Rounding radius*
0 $2 $3 $4 $5 $6 $7 $8 $9 X,Y pos of 4 corners*
0 Add a 4 corners polygon primitive as box body*
4,1,4,$2,$3,$4,$5,$6,$7,$8,$9,$2,$3,0*
0 Add four circle primitives for the rounded corners*
1,1,$1+$1,$2,$3*
1,1,$1+$1,$4,$5*
1,1,$1+$1,$6,$7*
1,1,$1+$1,$8,$9*
0 Add four rect primitives between the rounded corners*
20,1,$1+$1,$2,$3,$4,$5,0*
20,1,$1+$1,$4,$5,$6,$7,0*
20,1,$1+$1,$6,$7,$8,$9,0*
20,1,$1+$1,$8,$9,$2,$3,0*%
G04 Aperture macros list end*
%ADD10C,3.450000*%
%ADD11C,2.390000*%
%ADD12C,2.184000*%
%ADD13RoundRect,0.218750X-0.256250X0.218750X-0.256250X-0.218750X0.256250X-0.218750X0.256250X0.218750X0*%
%ADD14RoundRect,0.218750X0.256250X-0.218750X0.256250X0.218750X-0.256250X0.218750X-0.256250X-0.218750X0*%
%ADD15RoundRect,0.135000X0.135000X0.185000X-0.135000X0.185000X-0.135000X-0.185000X0.135000X-0.185000X0*%
%ADD16R,1.700000X1.700000*%
%ADD17C,1.700000*%
%ADD18C,3.550000*%
%ADD19RoundRect,0.135000X-0.185000X0.135000X-0.185000X-0.135000X0.185000X-0.135000X0.185000X0.135000X0*%
%ADD20R,0.750000X1.000000*%
%ADD21R,2.000000X1.905000*%
%ADD22O,2.000000X1.905000*%
%ADD23RoundRect,0.250000X0.450000X-0.262500X0.450000X0.262500X-0.450000X0.262500X-0.450000X-0.262500X0*%
%ADD24RoundRect,0.135000X-0.135000X-0.185000X0.135000X-0.185000X0.135000X0.185000X-0.135000X0.185000X0*%
%ADD25C,0.650000*%
%ADD26O,1.000000X1.800000*%
%ADD27O,1.000000X2.100000*%
G04 APERTURE END LIST*
D10*
%TO.C,BT1*%
X123600000Y-70770000D03*
X139600000Y-101250000D03*
D11*
X123600000Y-105890000D03*
D12*
X131600000Y-66110000D03*
X131600000Y-105890000D03*
%TD*%
D13*
%TO.C,D2*%
X99515000Y-145915000D03*
X99515000Y-147490000D03*
%TD*%
D14*
%TO.C,D1*%
X101215000Y-147500000D03*
X101215000Y-145925000D03*
%TD*%
D15*
%TO.C,R15*%
X100825000Y-148912500D03*
X99805000Y-148912500D03*
%TD*%
D16*
%TO.C,J1*%
X106400000Y-142860000D03*
D17*
X106400000Y-145400000D03*
X106400000Y-147940000D03*
X106400000Y-150480000D03*
%TD*%
D18*
%TO.C,BT2*%
X101700000Y-74610000D03*
X117700000Y-129810000D03*
D11*
X101700000Y-138010000D03*
D12*
X109700000Y-65790000D03*
X109700000Y-138010000D03*
%TD*%
D19*
%TO.C,R9*%
X121100000Y-151190000D03*
X121100000Y-152210000D03*
%TD*%
D20*
%TO.C,SW2*%
X117325000Y-161000000D03*
X117325000Y-155000000D03*
X121075000Y-161000000D03*
X121075000Y-155000000D03*
%TD*%
D21*
%TO.C,Q1*%
X141150000Y-120940000D03*
D22*
X141150000Y-118400000D03*
X141150000Y-115860000D03*
%TD*%
D16*
%TO.C,BT3*%
X123000000Y-114575000D03*
D17*
X123000000Y-112035000D03*
%TD*%
D20*
%TO.C,SW3*%
X107325000Y-161000000D03*
X107325000Y-155000000D03*
X111075000Y-161000000D03*
X111075000Y-155000000D03*
%TD*%
D16*
%TO.C,J3*%
X126860000Y-60600000D03*
D17*
X129400000Y-60600000D03*
X131940000Y-60600000D03*
X134480000Y-60600000D03*
X137020000Y-60600000D03*
%TD*%
D19*
%TO.C,R8*%
X111100000Y-151200000D03*
X111100000Y-152220000D03*
%TD*%
%TO.C,R10*%
X131100000Y-151190000D03*
X131100000Y-152210000D03*
%TD*%
D23*
%TO.C,R1*%
X141100000Y-112112500D03*
X141100000Y-110287500D03*
%TD*%
D24*
%TO.C,R14*%
X99905000Y-144512500D03*
X100925000Y-144512500D03*
%TD*%
D20*
%TO.C,SW1*%
X127325000Y-161000000D03*
X127325000Y-155000000D03*
X131075000Y-161000000D03*
X131075000Y-155000000D03*
%TD*%
D25*
%TO.C,J2*%
X116610000Y-64315000D03*
X122390000Y-64315000D03*
D26*
X115180000Y-60635000D03*
D27*
X115180000Y-64815000D03*
D26*
X123820000Y-60635000D03*
D27*
X123820000Y-64815000D03*
%TD*%
M02*
