%TF.GenerationSoftware,KiCad,Pcbnew,9.0.7-9.0.7~ubuntu24.04.1*%
%TF.CreationDate,2026-03-19T13:06:12-04:00*%
%TF.ProjectId,batteryTester,62617474-6572-4795-9465-737465722e6b,rev?*%
%TF.SameCoordinates,Original*%
%TF.FileFunction,Copper,L2,Bot*%
%TF.FilePolarity,Positive*%
%FSLAX46Y46*%
G04 Gerber Fmt 4.6, Leading zero omitted, Abs format (unit mm)*
G04 Created by KiCad (PCBNEW 9.0.7-9.0.7~ubuntu24.04.1) date 2026-03-19 13:06:12*
%MOMM*%
%LPD*%
G01*
G04 APERTURE LIST*
G04 Aperture macros list*
%AMRoundRect*
0 Rectangle with rounded corners*
0 $1 Rounding radius*
0 $2 $3 $4 $5 $6 $7 $8 $9 X,Y pos of 4 corners*
0 Add a 4 corners polygon primitive as box body*
4,1,4,$2,$3,$4,$5,$6,$7,$8,$9,$2,$3,0*
0 Add four circle primitives for the rounded corners*
1,1,$1+$1,$2,$3*
1,1,$1+$1,$4,$5*
1,1,$1+$1,$6,$7*
1,1,$1+$1,$8,$9*
0 Add four rect primitives between the rounded corners*
20,1,$1+$1,$2,$3,$4,$5,0*
20,1,$1+$1,$4,$5,$6,$7,0*
20,1,$1+$1,$6,$7,$8,$9,0*
20,1,$1+$1,$8,$9,$2,$3,0*%
G04 Aperture macros list end*
%TA.AperFunction,ComponentPad*%
%ADD10C,1.980000*%
%TD*%
%TA.AperFunction,ComponentPad*%
%ADD11R,1.700000X1.700000*%
%TD*%
%TA.AperFunction,ComponentPad*%
%ADD12C,1.700000*%
%TD*%
%TA.AperFunction,ComponentPad*%
%ADD13R,2.000000X1.905000*%
%TD*%
%TA.AperFunction,ComponentPad*%
%ADD14O,2.000000X1.905000*%
%TD*%
%TA.AperFunction,SMDPad,CuDef*%
%ADD15RoundRect,0.135000X-0.135000X-0.185000X0.135000X-0.185000X0.135000X0.185000X-0.135000X0.185000X0*%
%TD*%
%TA.AperFunction,SMDPad,CuDef*%
%ADD16RoundRect,0.150000X-0.150000X0.512500X-0.150000X-0.512500X0.150000X-0.512500X0.150000X0.512500X0*%
%TD*%
%TA.AperFunction,SMDPad,CuDef*%
%ADD17RoundRect,0.135000X0.135000X0.185000X-0.135000X0.185000X-0.135000X-0.185000X0.135000X-0.185000X0*%
%TD*%
%TA.AperFunction,SMDPad,CuDef*%
%ADD18RoundRect,0.140000X0.140000X0.170000X-0.140000X0.170000X-0.140000X-0.170000X0.140000X-0.170000X0*%
%TD*%
%TA.AperFunction,SMDPad,CuDef*%
%ADD19RoundRect,0.135000X0.185000X-0.135000X0.185000X0.135000X-0.185000X0.135000X-0.185000X-0.135000X0*%
%TD*%
%TA.AperFunction,SMDPad,CuDef*%
%ADD20RoundRect,0.140000X-0.140000X-0.170000X0.140000X-0.170000X0.140000X0.170000X-0.140000X0.170000X0*%
%TD*%
%TA.AperFunction,SMDPad,CuDef*%
%ADD21RoundRect,0.135000X-0.185000X0.135000X-0.185000X-0.135000X0.185000X-0.135000X0.185000X0.135000X0*%
%TD*%
%TA.AperFunction,SMDPad,CuDef*%
%ADD22RoundRect,0.150000X0.512500X0.150000X-0.512500X0.150000X-0.512500X-0.150000X0.512500X-0.150000X0*%
%TD*%
%TA.AperFunction,SMDPad,CuDef*%
%ADD23RoundRect,0.140000X0.170000X-0.140000X0.170000X0.140000X-0.170000X0.140000X-0.170000X-0.140000X0*%
%TD*%
%TA.AperFunction,SMDPad,CuDef*%
%ADD24RoundRect,0.137500X0.600000X0.137500X-0.600000X0.137500X-0.600000X-0.137500X0.600000X-0.137500X0*%
%TD*%
%TA.AperFunction,SMDPad,CuDef*%
%ADD25RoundRect,0.137500X0.137500X0.600000X-0.137500X0.600000X-0.137500X-0.600000X0.137500X-0.600000X0*%
%TD*%
%TA.AperFunction,SMDPad,CuDef*%
%ADD26RoundRect,0.140000X-0.170000X0.140000X-0.170000X-0.140000X0.170000X-0.140000X0.170000X0.140000X0*%
%TD*%
%TA.AperFunction,SMDPad,CuDef*%
%ADD27RoundRect,0.150000X-0.150000X-0.425000X0.150000X-0.425000X0.150000X0.425000X-0.150000X0.425000X0*%
%TD*%
%TA.AperFunction,SMDPad,CuDef*%
%ADD28RoundRect,0.075000X-0.075000X-0.500000X0.075000X-0.500000X0.075000X0.500000X-0.075000X0.500000X0*%
%TD*%
%TA.AperFunction,HeatsinkPad*%
%ADD29O,1.000000X1.800000*%
%TD*%
%TA.AperFunction,HeatsinkPad*%
%ADD30O,1.000000X2.100000*%
%TD*%
%TA.AperFunction,SMDPad,CuDef*%
%ADD31R,1.800000X1.000000*%
%TD*%
%TA.AperFunction,SMDPad,CuDef*%
%ADD32RoundRect,0.375000X-0.625000X-0.375000X0.625000X-0.375000X0.625000X0.375000X-0.625000X0.375000X0*%
%TD*%
%TA.AperFunction,SMDPad,CuDef*%
%ADD33RoundRect,0.500000X-0.500000X-1.400000X0.500000X-1.400000X0.500000X1.400000X-0.500000X1.400000X0*%
%TD*%
%TA.AperFunction,ViaPad*%
%ADD34C,0.600000*%
%TD*%
%TA.AperFunction,Conductor*%
%ADD35C,0.400000*%
%TD*%
%TA.AperFunction,Conductor*%
%ADD36C,0.200000*%
%TD*%
%TA.AperFunction,Conductor*%
%ADD37C,0.500000*%
%TD*%
%TA.AperFunction,Conductor*%
%ADD38C,0.250000*%
%TD*%
%TA.AperFunction,Conductor*%
%ADD39C,1.500000*%
%TD*%
G04 APERTURE END LIST*
D10*
%TO.P,BT1,N*%
%TO.N,GND*%
X131600000Y-66110000D03*
%TO.P,BT1,P*%
%TO.N,V_BATT*%
X131600000Y-105890000D03*
%TD*%
D11*
%TO.P,J1,1,Pin_1*%
%TO.N,SDA*%
X106400000Y-142860000D03*
D12*
%TO.P,J1,2,Pin_2*%
%TO.N,SCL*%
X106400000Y-145400000D03*
%TO.P,J1,3,Pin_3*%
%TO.N,+3.3V*%
X106400000Y-147940000D03*
%TO.P,J1,4,Pin_4*%
%TO.N,GND*%
X106400000Y-150480000D03*
%TD*%
D10*
%TO.P,BT2,N*%
%TO.N,GND*%
X109700000Y-65790000D03*
%TO.P,BT2,P*%
%TO.N,V_BATT*%
X109700000Y-138010000D03*
%TD*%
D13*
%TO.P,Q1,1,G*%
%TO.N,Net-(Q1-G)*%
X141150000Y-120940000D03*
D14*
%TO.P,Q1,2,D*%
%TO.N,V_BATT*%
X141150000Y-118400000D03*
%TO.P,Q1,3,S*%
%TO.N,SHUNT*%
X141150000Y-115860000D03*
%TD*%
D11*
%TO.P,BT3,1,+*%
%TO.N,V_BATT*%
X123000000Y-114575000D03*
D12*
%TO.P,BT3,2,-*%
%TO.N,GND*%
X123000000Y-112035000D03*
%TD*%
D11*
%TO.P,J3,1,Pin_1*%
%TO.N,GND*%
X126860000Y-60600000D03*
D12*
%TO.P,J3,2,Pin_2*%
%TO.N,RST*%
X129400000Y-60600000D03*
%TO.P,J3,3,Pin_3*%
%TO.N,SWD_CLK*%
X131940000Y-60600000D03*
%TO.P,J3,4,Pin_4*%
%TO.N,SWD_SWIO*%
X134480000Y-60600000D03*
%TO.P,J3,5,Pin_5*%
%TO.N,+3.3V*%
X137020000Y-60600000D03*
%TD*%
D15*
%TO.P,R11,1*%
%TO.N,+3.3V*%
X119627500Y-90100000D03*
%TO.P,R11,2*%
%TO.N,RST*%
X120647500Y-90100000D03*
%TD*%
D16*
%TO.P,U2,1,+*%
%TO.N,Net-(U2-+)*%
X134950000Y-114062500D03*
%TO.P,U2,2,V-*%
%TO.N,GND*%
X135900000Y-114062500D03*
%TO.P,U2,3,-*%
%TO.N,SHUNT*%
X136850000Y-114062500D03*
%TO.P,U2,4*%
%TO.N,Net-(Q1-G)*%
X136850000Y-116337500D03*
%TO.P,U2,5,V+*%
%TO.N,+5V*%
X134950000Y-116337500D03*
%TD*%
D17*
%TO.P,R17,1*%
%TO.N,+3.3V*%
X125110000Y-102200000D03*
%TO.P,R17,2*%
%TO.N,SDA*%
X124090000Y-102200000D03*
%TD*%
D18*
%TO.P,C8,1*%
%TO.N,+3.3V*%
X119830000Y-81900000D03*
%TO.P,C8,2*%
%TO.N,GND*%
X118870000Y-81900000D03*
%TD*%
D19*
%TO.P,R6,1*%
%TO.N,V_BATT*%
X129937500Y-101310000D03*
%TO.P,R6,2*%
%TO.N,V_BATT_IN*%
X129937500Y-100290000D03*
%TD*%
D20*
%TO.P,C2,1*%
%TO.N,GND*%
X122195000Y-87900000D03*
%TO.P,C2,2*%
%TO.N,+3.3V*%
X123155000Y-87900000D03*
%TD*%
D21*
%TO.P,R7,1*%
%TO.N,V_BATT_IN*%
X128937500Y-100290000D03*
%TO.P,R7,2*%
%TO.N,GND*%
X128937500Y-101310000D03*
%TD*%
D22*
%TO.P,U3,1,+*%
%TO.N,SHUNT*%
X136637500Y-119650000D03*
%TO.P,U3,2,V-*%
%TO.N,GND*%
X136637500Y-120600000D03*
%TO.P,U3,3,-*%
%TO.N,Net-(U3--)*%
X136637500Y-121550000D03*
%TO.P,U3,4*%
%TO.N,I_SENSE_IN*%
X134362500Y-121550000D03*
%TO.P,U3,5,V+*%
%TO.N,+3.3V*%
X134362500Y-119650000D03*
%TD*%
D23*
%TO.P,C3,1*%
%TO.N,GND*%
X126875000Y-101280000D03*
%TO.P,C3,2*%
%TO.N,+3.3V*%
X126875000Y-100320000D03*
%TD*%
D24*
%TO.P,U4,1,PA00*%
%TO.N,Net-(U4-PA00)*%
X126800000Y-93100000D03*
%TO.P,U4,2,PA01*%
%TO.N,Net-(U4-PA01)*%
X126800000Y-93900000D03*
%TO.P,U4,3,PA02*%
%TO.N,DAC*%
X126800000Y-94700000D03*
%TO.P,U4,4,PA03*%
%TO.N,unconnected-(U4-PA03-Pad4)*%
X126800000Y-95500000D03*
%TO.P,U4,5,PA04*%
%TO.N,I_SENSE_IN*%
X126800000Y-96300000D03*
%TO.P,U4,6,PA05*%
%TO.N,V_BATT_IN*%
X126800000Y-97100000D03*
%TO.P,U4,7,PA06*%
%TO.N,unconnected-(U4-PA06-Pad7)*%
X126800000Y-97900000D03*
%TO.P,U4,8,PA07*%
%TO.N,unconnected-(U4-PA07-Pad8)*%
X126800000Y-98700000D03*
D25*
%TO.P,U4,9,VDDANA*%
%TO.N,+3.3V*%
X125437500Y-100062500D03*
%TO.P,U4,10,GND*%
%TO.N,GND*%
X124637500Y-100062500D03*
%TO.P,U4,11,PA08*%
%TO.N,SDA*%
X123837500Y-100062500D03*
%TO.P,U4,12,PA09*%
%TO.N,SCL*%
X123037500Y-100062500D03*
%TO.P,U4,13,PA10*%
%TO.N,BTN3*%
X122237500Y-100062500D03*
%TO.P,U4,14,PA11*%
%TO.N,BTN2*%
X121437500Y-100062500D03*
%TO.P,U4,15,PA14*%
%TO.N,BTN1*%
X120637500Y-100062500D03*
%TO.P,U4,16,PA15*%
%TO.N,LED*%
X119837500Y-100062500D03*
D24*
%TO.P,U4,17,PA16*%
%TO.N,unconnected-(U4-PA16-Pad17)*%
X118475000Y-98700000D03*
%TO.P,U4,18,PA17*%
%TO.N,unconnected-(U4-PA17-Pad18)*%
X118475000Y-97900000D03*
%TO.P,U4,19,PA18*%
%TO.N,unconnected-(U4-PA18-Pad19)*%
X118475000Y-97100000D03*
%TO.P,U4,20,PA19*%
%TO.N,unconnected-(U4-PA19-Pad20)*%
X118475000Y-96300000D03*
%TO.P,U4,21,PA22*%
%TO.N,unconnected-(U4-PA22-Pad21)*%
X118475000Y-95500000D03*
%TO.P,U4,22,PA23*%
%TO.N,unconnected-(U4-PA23-Pad22)*%
X118475000Y-94700000D03*
%TO.P,U4,23,PA24*%
%TO.N,USB_DN*%
X118475000Y-93900000D03*
%TO.P,U4,24,PA25*%
%TO.N,USB_DP*%
X118475000Y-93100000D03*
D25*
%TO.P,U4,25,PA27*%
%TO.N,unconnected-(U4-PA27-Pad25)*%
X119837500Y-91737500D03*
%TO.P,U4,26,~{RESET}*%
%TO.N,RST*%
X120637500Y-91737500D03*
%TO.P,U4,27,PA28*%
%TO.N,unconnected-(U4-PA28-Pad27)*%
X121437500Y-91737500D03*
%TO.P,U4,28,GND*%
%TO.N,GND*%
X122237500Y-91737500D03*
%TO.P,U4,29,VDDCORE*%
%TO.N,Net-(U4-VDDCORE)*%
X123037500Y-91737500D03*
%TO.P,U4,30,VDDIN*%
%TO.N,+3.3V*%
X123837500Y-91737500D03*
%TO.P,U4,31,PA30*%
%TO.N,SWD_CLK*%
X124637500Y-91737500D03*
%TO.P,U4,32,PA31*%
%TO.N,SWD_SWIO*%
X125437500Y-91737500D03*
%TD*%
D26*
%TO.P,C6,1*%
%TO.N,GND*%
X131737500Y-92920000D03*
%TO.P,C6,2*%
%TO.N,Net-(U4-PA01)*%
X131737500Y-93880000D03*
%TD*%
D23*
%TO.P,C7,1*%
%TO.N,GND*%
X131737500Y-91680000D03*
%TO.P,C7,2*%
%TO.N,Net-(U4-PA00)*%
X131737500Y-90720000D03*
%TD*%
D15*
%TO.P,R5,1*%
%TO.N,Net-(U3--)*%
X136090000Y-122900000D03*
%TO.P,R5,2*%
%TO.N,GND*%
X137110000Y-122900000D03*
%TD*%
D23*
%TO.P,C5,1*%
%TO.N,GND*%
X127875000Y-101280000D03*
%TO.P,C5,2*%
%TO.N,+3.3V*%
X127875000Y-100320000D03*
%TD*%
D17*
%TO.P,R4,1*%
%TO.N,Net-(U3--)*%
X135010000Y-122900000D03*
%TO.P,R4,2*%
%TO.N,I_SENSE_IN*%
X133990000Y-122900000D03*
%TD*%
D20*
%TO.P,C4,1*%
%TO.N,GND*%
X122195000Y-89000000D03*
%TO.P,C4,2*%
%TO.N,+3.3V*%
X123155000Y-89000000D03*
%TD*%
D27*
%TO.P,J2,A1,GND*%
%TO.N,GND*%
X116300000Y-65390000D03*
%TO.P,J2,A4,VBUS*%
%TO.N,+5V*%
X117100000Y-65390000D03*
D28*
%TO.P,J2,A5,CC1*%
%TO.N,Net-(J2-CC1)*%
X118250000Y-65390000D03*
%TO.P,J2,A6,D+*%
%TO.N,USB_DP*%
X119250000Y-65390000D03*
%TO.P,J2,A7,D-*%
%TO.N,USB_DN*%
X119750000Y-65390000D03*
%TO.P,J2,A8,SBU1*%
%TO.N,unconnected-(J2-SBU1-PadA8)*%
X120750000Y-65390000D03*
D27*
%TO.P,J2,A9,VBUS*%
%TO.N,+5V*%
X121900000Y-65390000D03*
%TO.P,J2,A12,GND*%
%TO.N,GND*%
X122700000Y-65390000D03*
%TO.P,J2,B1,GND*%
X122700000Y-65390000D03*
%TO.P,J2,B4,VBUS*%
%TO.N,+5V*%
X121900000Y-65390000D03*
D28*
%TO.P,J2,B5,CC2*%
%TO.N,Net-(J2-CC2)*%
X121250000Y-65390000D03*
%TO.P,J2,B6,D+*%
%TO.N,USB_DP*%
X120250000Y-65390000D03*
%TO.P,J2,B7,D-*%
%TO.N,USB_DN*%
X118750000Y-65390000D03*
%TO.P,J2,B8,SBU2*%
%TO.N,unconnected-(J2-SBU2-PadB8)*%
X117750000Y-65390000D03*
D27*
%TO.P,J2,B9,VBUS*%
%TO.N,+5V*%
X117100000Y-65390000D03*
%TO.P,J2,B12,GND*%
%TO.N,GND*%
X116300000Y-65390000D03*
D29*
%TO.P,J2,S1,SHIELD*%
%TO.N,unconnected-(J2-SHIELD-PadS1)*%
X115180000Y-60635000D03*
D30*
%TO.N,unconnected-(J2-SHIELD-PadS1)_2*%
X115180000Y-64815000D03*
D29*
%TO.N,unconnected-(J2-SHIELD-PadS1)_3*%
X123820000Y-60635000D03*
D30*
%TO.N,unconnected-(J2-SHIELD-PadS1)_1*%
X123820000Y-64815000D03*
%TD*%
D21*
%TO.P,R12,1*%
%TO.N,Net-(J2-CC1)*%
X118100000Y-67190000D03*
%TO.P,R12,2*%
%TO.N,GND*%
X118100000Y-68210000D03*
%TD*%
D31*
%TO.P,Y1,1,1*%
%TO.N,Net-(U4-PA01)*%
X129837500Y-93550000D03*
%TO.P,Y1,2,2*%
%TO.N,Net-(U4-PA00)*%
X129837500Y-91050000D03*
%TD*%
D21*
%TO.P,R2,1*%
%TO.N,DAC*%
X133300000Y-113590000D03*
%TO.P,R2,2*%
%TO.N,Net-(U2-+)*%
X133300000Y-114610000D03*
%TD*%
D19*
%TO.P,R13,1*%
%TO.N,GND*%
X121700000Y-68210000D03*
%TO.P,R13,2*%
%TO.N,Net-(J2-CC2)*%
X121700000Y-67190000D03*
%TD*%
D32*
%TO.P,U1,1,GND*%
%TO.N,GND*%
X118950000Y-79800000D03*
%TO.P,U1,2,VO*%
%TO.N,+3.3V*%
X118950000Y-77500000D03*
D33*
X125250000Y-77500000D03*
D32*
%TO.P,U1,3,VI*%
%TO.N,+5V*%
X118950000Y-75200000D03*
%TD*%
D23*
%TO.P,C10,1*%
%TO.N,+3.3V*%
X132800000Y-119680000D03*
%TO.P,C10,2*%
%TO.N,GND*%
X132800000Y-118720000D03*
%TD*%
D20*
%TO.P,C9,1*%
%TO.N,+5V*%
X118970000Y-73000000D03*
%TO.P,C9,2*%
%TO.N,GND*%
X119930000Y-73000000D03*
%TD*%
D18*
%TO.P,C11,1*%
%TO.N,+5V*%
X134980000Y-118000000D03*
%TO.P,C11,2*%
%TO.N,GND*%
X134020000Y-118000000D03*
%TD*%
D17*
%TO.P,R16,1*%
%TO.N,+3.3V*%
X124020000Y-103200000D03*
%TO.P,R16,2*%
%TO.N,SCL*%
X123000000Y-103200000D03*
%TD*%
D19*
%TO.P,R3,1*%
%TO.N,GND*%
X133300000Y-116810000D03*
%TO.P,R3,2*%
%TO.N,Net-(U2-+)*%
X133300000Y-115790000D03*
%TD*%
D20*
%TO.P,C1,1*%
%TO.N,GND*%
X122195000Y-90100000D03*
%TO.P,C1,2*%
%TO.N,Net-(U4-VDDCORE)*%
X123155000Y-90100000D03*
%TD*%
D34*
%TO.N,GND*%
X129200000Y-98700000D03*
X128200000Y-97800000D03*
X128805025Y-98094975D03*
X129237500Y-99400000D03*
X130900000Y-99900000D03*
X130900000Y-100700000D03*
X130900000Y-101500000D03*
X129600000Y-94700000D03*
X130200000Y-95300000D03*
X130800000Y-95900000D03*
X131500000Y-96600000D03*
X132200000Y-97300000D03*
X132900000Y-98000000D03*
X133600000Y-98700000D03*
X134300000Y-99300000D03*
X131600000Y-99900000D03*
X132200000Y-100500000D03*
X132600000Y-101100000D03*
X132600000Y-101900000D03*
X132600000Y-102700000D03*
X132600000Y-103500000D03*
X132600000Y-104300000D03*
X134900000Y-99900000D03*
X134700000Y-101000000D03*
X134700000Y-101800000D03*
X134700000Y-102600000D03*
X134700000Y-103400000D03*
X134700000Y-104200000D03*
X134700000Y-105000000D03*
X134700000Y-105800000D03*
X134700000Y-106600000D03*
X134700000Y-107500000D03*
X134700000Y-108300000D03*
X134700000Y-109100000D03*
X134400000Y-109900000D03*
X131200000Y-117100000D03*
X131200000Y-118000000D03*
X131200000Y-118800000D03*
X131200000Y-119600000D03*
X130700000Y-103900000D03*
X130700000Y-103100000D03*
X130700000Y-102400000D03*
X129800000Y-105100000D03*
X129293837Y-104502634D03*
X129200000Y-103800000D03*
X129200000Y-103000000D03*
X129200000Y-102300000D03*
X136900000Y-147000000D03*
X126300000Y-66500000D03*
X121100000Y-94800000D03*
X121200000Y-95600000D03*
X109500000Y-86600000D03*
X137500000Y-133700000D03*
X137200000Y-111900000D03*
X104800000Y-111200000D03*
X123700000Y-96600000D03*
X121000000Y-93900000D03*
X122918750Y-97081250D03*
X136800000Y-89800000D03*
X127600000Y-109900000D03*
X138300000Y-83400000D03*
X133100000Y-136700000D03*
X108500000Y-111600000D03*
X121300000Y-61200000D03*
X127700000Y-144600000D03*
X122400000Y-97800000D03*
X128900000Y-110700000D03*
X123700000Y-95700000D03*
X115500000Y-71600000D03*
X132300000Y-87000000D03*
X133700000Y-138300000D03*
X105500000Y-117200000D03*
X127300000Y-104400000D03*
X131600000Y-86100000D03*
X123200000Y-108800000D03*
X118600000Y-71500000D03*
X102100000Y-143200000D03*
X123000000Y-95000000D03*
X104700000Y-104400000D03*
X136900000Y-82900000D03*
X133000000Y-129800000D03*
X117400000Y-83500000D03*
X121100000Y-96900000D03*
X131500000Y-76700000D03*
X109500000Y-74200000D03*
X138300000Y-71500000D03*
X123000000Y-94000000D03*
X127500000Y-106400000D03*
X125300000Y-141600000D03*
X107200000Y-122200000D03*
%TO.N,+5V*%
X117400000Y-123000000D03*
X135400000Y-118900000D03*
%TO.N,+3.3V*%
X132050000Y-121650000D03*
X119800000Y-86100000D03*
X116700000Y-124000000D03*
X119600000Y-88700000D03*
X133200000Y-120600000D03*
X122294975Y-86894975D03*
%TO.N,BTN1*%
X109700000Y-154500000D03*
%TO.N,BTN2*%
X119600000Y-153700000D03*
%TO.N,BTN3*%
X130100000Y-152000000D03*
%TO.N,LED*%
X99000000Y-144500000D03*
%TD*%
D35*
%TO.N,DAC*%
X133300000Y-113590000D02*
X133300000Y-110000000D01*
X133300000Y-110000000D02*
X134000000Y-109300000D01*
X134000000Y-109300000D02*
X134000000Y-100100000D01*
X128600000Y-94700000D02*
X126800000Y-94700000D01*
X134000000Y-100100000D02*
X128600000Y-94700000D01*
%TO.N,GND*%
X133300000Y-116810000D02*
X133619999Y-116810000D01*
X133619999Y-116810000D02*
X134249000Y-116180999D01*
X135900000Y-114724999D02*
X135900000Y-114062500D01*
X134249000Y-116180999D02*
X134249000Y-115592612D01*
X134249000Y-115592612D02*
X134630612Y-115211000D01*
X134630612Y-115211000D02*
X135413999Y-115211000D01*
X135413999Y-115211000D02*
X135900000Y-114724999D01*
X133300000Y-116810000D02*
X133300000Y-118220000D01*
X133300000Y-118220000D02*
X132800000Y-118720000D01*
X134020000Y-118000000D02*
X134020000Y-117530000D01*
X134020000Y-117530000D02*
X133300000Y-116810000D01*
X134020000Y-118000000D02*
X133520000Y-118000000D01*
X133520000Y-118000000D02*
X132800000Y-118720000D01*
%TO.N,V_BATT_IN*%
X129937500Y-100290000D02*
X129937500Y-98237500D01*
X129937500Y-98237500D02*
X128800000Y-97100000D01*
X128800000Y-97100000D02*
X126800000Y-97100000D01*
%TO.N,+3.3V*%
X119800000Y-86100000D02*
X119800000Y-81930000D01*
X119800000Y-81930000D02*
X119830000Y-81900000D01*
X122294975Y-86894975D02*
X122504975Y-86894975D01*
X122504975Y-86894975D02*
X123155000Y-87545000D01*
X123155000Y-87545000D02*
X123155000Y-87900000D01*
%TO.N,RST*%
X120647500Y-90100000D02*
X120647500Y-87552500D01*
X120647500Y-87552500D02*
X129400000Y-78800000D01*
X129400000Y-78800000D02*
X129400000Y-60600000D01*
D36*
%TO.N,USB_DP*%
X120250000Y-65390000D02*
X120250000Y-66252501D01*
X120250000Y-66252501D02*
X120225000Y-66277501D01*
X120225000Y-66277501D02*
X120225000Y-70657900D01*
X120225000Y-70657900D02*
X122462080Y-72894980D01*
X124443882Y-72894980D02*
X127865814Y-76316912D01*
X127865814Y-76316912D02*
X127865814Y-79501286D01*
X117837500Y-93275000D02*
X118012500Y-93100000D01*
X118012500Y-93100000D02*
X118475000Y-93100000D01*
X122462080Y-72894980D02*
X124443882Y-72894980D01*
X127865814Y-79501286D02*
X116525000Y-90842100D01*
X116525000Y-90842100D02*
X116525000Y-92106802D01*
X116525000Y-92106802D02*
X117693198Y-93275000D01*
X117693198Y-93275000D02*
X117837500Y-93275000D01*
%TO.N,USB_DN*%
X119750000Y-65390000D02*
X119750000Y-66252501D01*
X119750000Y-66252501D02*
X119775000Y-66277501D01*
X117506802Y-93725000D02*
X117837500Y-93725000D01*
X119775000Y-66277501D02*
X119775000Y-70775000D01*
X117837500Y-93725000D02*
X118012500Y-93900000D01*
X119775000Y-70775000D02*
X122295980Y-73295980D01*
X127464814Y-79335186D02*
X116075000Y-90725000D01*
X122295980Y-73295980D02*
X124277782Y-73295980D01*
X124277782Y-73295980D02*
X127464814Y-76483012D01*
X116075000Y-92293198D02*
X117506802Y-93725000D01*
X127464814Y-76483012D02*
X127464814Y-79335186D01*
X116075000Y-90725000D02*
X116075000Y-92293198D01*
X118012500Y-93900000D02*
X118475000Y-93900000D01*
D35*
%TO.N,V_BATT_IN*%
X128937500Y-100290000D02*
X129937500Y-100290000D01*
%TO.N,I_SENSE_IN*%
X133990000Y-121922500D02*
X134362500Y-121550000D01*
X133990000Y-122900000D02*
X133990000Y-121922500D01*
%TO.N,GND*%
X118950000Y-79800000D02*
X118950000Y-81820000D01*
X128937500Y-101310000D02*
X127905000Y-101310000D01*
X137299999Y-120600000D02*
X136637500Y-120600000D01*
X122237500Y-90142500D02*
X122195000Y-90100000D01*
X122237500Y-96400000D02*
X122237500Y-91737500D01*
X124637500Y-98800000D02*
X122918750Y-97081250D01*
X127875000Y-101280000D02*
X126875000Y-101280000D01*
X122237500Y-91737500D02*
X122237500Y-90142500D01*
X127905000Y-101310000D02*
X127875000Y-101280000D01*
X122918750Y-97081250D02*
X122237500Y-96400000D01*
X131737500Y-92920000D02*
X131737500Y-91680000D01*
X138100000Y-121910000D02*
X138100000Y-121400001D01*
X124637500Y-100062500D02*
X124637500Y-98800000D01*
X137110000Y-122900000D02*
X138100000Y-121910000D01*
X118950000Y-81820000D02*
X118870000Y-81900000D01*
X122195000Y-90100000D02*
X122195000Y-89000000D01*
X138100000Y-121400001D02*
X137299999Y-120600000D01*
X122195000Y-89000000D02*
X122195000Y-87900000D01*
%TO.N,+5V*%
X114880000Y-120480000D02*
X114880000Y-79270000D01*
X118950000Y-75200000D02*
X118950000Y-73020000D01*
X114880000Y-79270000D02*
X118950000Y-75200000D01*
D37*
X117100000Y-65390000D02*
X117100000Y-73350000D01*
D38*
X117100000Y-65390000D02*
X117100000Y-64900000D01*
X121171636Y-64088000D02*
X121900000Y-64816364D01*
D35*
X134950000Y-117970000D02*
X134980000Y-118000000D01*
X135400000Y-118900000D02*
X134980000Y-118480000D01*
D38*
X117912000Y-64088000D02*
X121171636Y-64088000D01*
D35*
X134980000Y-118480000D02*
X134980000Y-118000000D01*
X117400000Y-123000000D02*
X114880000Y-120480000D01*
D37*
X117100000Y-73350000D02*
X118950000Y-75200000D01*
D38*
X121900000Y-64816364D02*
X121900000Y-65390000D01*
D35*
X134950000Y-116337500D02*
X134950000Y-117970000D01*
X118950000Y-73020000D02*
X118970000Y-73000000D01*
D38*
X117100000Y-64900000D02*
X117912000Y-64088000D01*
D35*
%TO.N,+3.3V*%
X135420000Y-59000000D02*
X118700000Y-59000000D01*
D37*
X119830000Y-81900000D02*
X120850000Y-81900000D01*
D35*
X137020000Y-60600000D02*
X135420000Y-59000000D01*
X127875000Y-100320000D02*
X126875000Y-100320000D01*
X124429999Y-103200000D02*
X124020000Y-103200000D01*
X134150000Y-119650000D02*
X133200000Y-120600000D01*
X113500000Y-64200000D02*
X113500000Y-120800000D01*
X123837500Y-92440364D02*
X123837500Y-91737500D01*
X123155000Y-89000000D02*
X123155000Y-87900000D01*
X132050000Y-121650000D02*
X106400000Y-147300000D01*
X118700000Y-59000000D02*
X113500000Y-64200000D01*
D39*
X125250000Y-77500000D02*
X118950000Y-77500000D01*
D35*
X125110000Y-102200000D02*
X125110000Y-102519999D01*
X113500000Y-120800000D02*
X116700000Y-124000000D01*
X125437500Y-94040364D02*
X123837500Y-92440364D01*
X119600000Y-90072500D02*
X119627500Y-90100000D01*
X125437500Y-100062500D02*
X125437500Y-94040364D01*
X132830000Y-119650000D02*
X132800000Y-119680000D01*
D37*
X120850000Y-81900000D02*
X125250000Y-77500000D01*
D35*
X132050000Y-121650000D02*
X127750000Y-121650000D01*
X106400000Y-147300000D02*
X106400000Y-147940000D01*
X126875000Y-100320000D02*
X125695000Y-100320000D01*
X125437500Y-100062500D02*
X125437500Y-101872500D01*
X134362500Y-119650000D02*
X132830000Y-119650000D01*
X134362500Y-119650000D02*
X134150000Y-119650000D01*
X125695000Y-100320000D02*
X125437500Y-100062500D01*
X123837500Y-91737500D02*
X123837500Y-89682500D01*
X125437500Y-101872500D02*
X125110000Y-102200000D01*
X125110000Y-102519999D02*
X124429999Y-103200000D01*
X127750000Y-121650000D02*
X125437500Y-119337500D01*
X119600000Y-88700000D02*
X119600000Y-90072500D01*
X123837500Y-89682500D02*
X123155000Y-89000000D01*
X125437500Y-119337500D02*
X125437500Y-100062500D01*
%TO.N,V_BATT*%
X129937500Y-101310000D02*
X129937500Y-104227500D01*
X129937500Y-104227500D02*
X131600000Y-105890000D01*
%TO.N,Net-(U4-VDDCORE)*%
X123037500Y-90217500D02*
X123155000Y-90100000D01*
X123037500Y-91737500D02*
X123037500Y-90217500D01*
%TO.N,Net-(U4-PA01)*%
X129487500Y-93900000D02*
X129837500Y-93550000D01*
X126800000Y-93900000D02*
X129487500Y-93900000D01*
X130167500Y-93880000D02*
X131737500Y-93880000D01*
X129837500Y-93550000D02*
X130167500Y-93880000D01*
%TO.N,Net-(U4-PA00)*%
X129837500Y-91050000D02*
X130167500Y-90720000D01*
X130167500Y-90720000D02*
X131737500Y-90720000D01*
X126800000Y-93100000D02*
X127787500Y-93100000D01*
X127787500Y-93100000D02*
X129837500Y-91050000D01*
D36*
%TO.N,SDA*%
X123837500Y-101947500D02*
X123837500Y-100062500D01*
X111236581Y-134401000D02*
X106403000Y-139234581D01*
X117266100Y-134401000D02*
X111236581Y-134401000D01*
X123500000Y-102790000D02*
X124090000Y-102200000D01*
X106403000Y-141072620D02*
X106400000Y-141075620D01*
X106403000Y-139234581D02*
X106403000Y-141072620D01*
X121300000Y-105900000D02*
X121300000Y-123300000D01*
X123500000Y-103700000D02*
X121300000Y-105900000D01*
X121201000Y-130466100D02*
X117266100Y-134401000D01*
X124090000Y-102200000D02*
X123837500Y-101947500D01*
X121300000Y-123300000D02*
X121201000Y-123399000D01*
X123500000Y-103700000D02*
X123500000Y-102790000D01*
X121201000Y-123399000D02*
X121201000Y-130466100D01*
X106400000Y-141075620D02*
X106400000Y-142860000D01*
%TO.N,SCL*%
X105249000Y-141659520D02*
X105249000Y-144249000D01*
X123100000Y-100686444D02*
X123100000Y-103532900D01*
X120800000Y-130300000D02*
X117100000Y-134000000D01*
X123037500Y-100062500D02*
X123037500Y-100623944D01*
X106002000Y-140906520D02*
X105249000Y-141659520D01*
X106002000Y-139068481D02*
X106002000Y-140906520D01*
X120800000Y-105832900D02*
X120800000Y-130300000D01*
X123100000Y-103532900D02*
X120800000Y-105832900D01*
X111070481Y-134000000D02*
X106002000Y-139068481D01*
X105249000Y-144249000D02*
X106400000Y-145400000D01*
X117100000Y-134000000D02*
X111070481Y-134000000D01*
X123037500Y-100623944D02*
X123100000Y-100686444D01*
%TO.N,Net-(J2-CC1)*%
X118250000Y-67040000D02*
X118100000Y-67190000D01*
X118250000Y-65390000D02*
X118250000Y-67040000D01*
%TO.N,USB_DP*%
X120080824Y-64514000D02*
X120250000Y-64683176D01*
X119250000Y-64781176D02*
X119517176Y-64514000D01*
X119250000Y-65390000D02*
X119250000Y-64781176D01*
X120250000Y-64683176D02*
X120250000Y-65390000D01*
X119517176Y-64514000D02*
X120080824Y-64514000D01*
%TO.N,Net-(J2-CC2)*%
X121250000Y-66740000D02*
X121250000Y-65390000D01*
X121700000Y-67190000D02*
X121250000Y-66740000D01*
%TO.N,USB_DN*%
X119482824Y-66266000D02*
X119017176Y-66266000D01*
X118750000Y-65998824D02*
X118750000Y-65390000D01*
X119017176Y-66266000D02*
X118750000Y-65998824D01*
X119750000Y-65998824D02*
X119482824Y-66266000D01*
X119750000Y-65390000D02*
X119750000Y-65998824D01*
D35*
%TO.N,SWD_CLK*%
X131940000Y-60600000D02*
X133700000Y-62360000D01*
X124637500Y-87762500D02*
X124637500Y-91737500D01*
X133700000Y-62360000D02*
X133700000Y-78700000D01*
X133700000Y-78700000D02*
X124637500Y-87762500D01*
%TO.N,SWD_SWIO*%
X125437500Y-87900000D02*
X134480000Y-78857500D01*
X134480000Y-78857500D02*
X134480000Y-60600000D01*
X125437500Y-91737500D02*
X125437500Y-87900000D01*
%TO.N,RST*%
X120647500Y-91727500D02*
X120637500Y-91737500D01*
X120647500Y-90100000D02*
X120647500Y-91727500D01*
%TO.N,Net-(Q1-G)*%
X141150000Y-120637500D02*
X136850000Y-116337500D01*
X141150000Y-120940000D02*
X141150000Y-120637500D01*
%TO.N,SHUNT*%
X141150000Y-115860000D02*
X138647500Y-115860000D01*
X136100000Y-119112500D02*
X136637500Y-119650000D01*
X136850000Y-114724999D02*
X136100000Y-115474999D01*
X138647500Y-115860000D02*
X136850000Y-114062500D01*
X136850000Y-114062500D02*
X136850000Y-114724999D01*
X136100000Y-115474999D02*
X136100000Y-119112500D01*
%TO.N,Net-(U2-+)*%
X134402500Y-114610000D02*
X134950000Y-114062500D01*
X133300000Y-114610000D02*
X133300000Y-115790000D01*
X133300000Y-114610000D02*
X134402500Y-114610000D01*
%TO.N,Net-(U3--)*%
X136090000Y-122900000D02*
X135010000Y-122900000D01*
X136090000Y-122900000D02*
X136090000Y-122097500D01*
X136090000Y-122097500D02*
X136637500Y-121550000D01*
%TO.N,BTN1*%
X120637500Y-102562616D02*
X120637500Y-100062500D01*
X104299000Y-138363077D02*
X118998000Y-123664077D01*
X104299000Y-140201116D02*
X104299000Y-138363077D01*
X109700000Y-154500000D02*
X105800116Y-154500000D01*
X103298000Y-142700000D02*
X103298000Y-141202116D01*
X105800116Y-154500000D02*
X103298000Y-151997884D01*
X118998000Y-123664077D02*
X118998000Y-104202116D01*
X103298000Y-151997884D02*
X103298000Y-142700000D01*
X103298000Y-141202116D02*
X104299000Y-140201116D01*
X118998000Y-104202116D02*
X120637500Y-102562616D01*
%TO.N,BTN2*%
X119599000Y-123913019D02*
X119599000Y-104451058D01*
X104900000Y-138612019D02*
X119599000Y-123913019D01*
X103899000Y-151748942D02*
X103899000Y-141451058D01*
X104900000Y-140450058D02*
X104900000Y-138612019D01*
X103899000Y-141451058D02*
X104900000Y-140450058D01*
X121437500Y-102612558D02*
X121437500Y-100062500D01*
X119600000Y-153700000D02*
X105850058Y-153700000D01*
X105850058Y-153700000D02*
X103899000Y-151748942D01*
X119599000Y-104451058D02*
X121437500Y-102612558D01*
%TO.N,BTN3*%
X122237500Y-102662500D02*
X120200000Y-104700000D01*
X105501000Y-138860961D02*
X105501000Y-140699000D01*
X104500000Y-151500000D02*
X105000000Y-152000000D01*
X104500000Y-141700000D02*
X104500000Y-151500000D01*
X105000000Y-152000000D02*
X130100000Y-152000000D01*
X122237500Y-100062500D02*
X122237500Y-102662500D01*
X105501000Y-140699000D02*
X104500000Y-141700000D01*
X120200000Y-124161961D02*
X105501000Y-138860961D01*
X120200000Y-104700000D02*
X120200000Y-124161961D01*
%TO.N,LED*%
X119837500Y-102512674D02*
X119837500Y-100062500D01*
X99000000Y-144500000D02*
X99100000Y-144500000D01*
X103698000Y-138114135D02*
X118397000Y-123415135D01*
X118397000Y-103953174D02*
X119837500Y-102512674D01*
X118397000Y-123415135D02*
X118397000Y-103953174D01*
X103698000Y-139902000D02*
X103698000Y-138114135D01*
X99100000Y-144500000D02*
X103698000Y-139902000D01*
%TO.N,I_SENSE_IN*%
X134362500Y-121550000D02*
X132950000Y-121550000D01*
X132950000Y-121550000D02*
X131900000Y-120500000D01*
X131900000Y-120500000D02*
X131900000Y-110400000D01*
X131900000Y-110400000D02*
X133300000Y-109000000D01*
X133300000Y-109000000D02*
X133300000Y-100562500D01*
X129037500Y-96300000D02*
X126800000Y-96300000D01*
X133300000Y-100562500D02*
X129037500Y-96300000D01*
%TD*%
%TA.AperFunction,Conductor*%
%TO.N,GND*%
G36*
X137038020Y-117520185D02*
G01*
X137058662Y-117536819D01*
X139613181Y-120091337D01*
X139646666Y-120152660D01*
X139649500Y-120179018D01*
X139649500Y-121940370D01*
X139649501Y-121940376D01*
X139655908Y-121999983D01*
X139706202Y-122134828D01*
X139706206Y-122134835D01*
X139792452Y-122250044D01*
X139792455Y-122250047D01*
X139907664Y-122336293D01*
X139907671Y-122336297D01*
X140042517Y-122386591D01*
X140042516Y-122386591D01*
X140048525Y-122387237D01*
X140102127Y-122393000D01*
X142197872Y-122392999D01*
X142257483Y-122386591D01*
X142301470Y-122370185D01*
X142332167Y-122358736D01*
X142401859Y-122353752D01*
X142463182Y-122387237D01*
X142496666Y-122448561D01*
X142499500Y-122474918D01*
X142499500Y-158895466D01*
X142479815Y-158962505D01*
X142427011Y-159008260D01*
X142357853Y-159018204D01*
X142294297Y-158989179D01*
X142277124Y-158970952D01*
X142257975Y-158945997D01*
X142257969Y-158945990D01*
X142054009Y-158742030D01*
X142054002Y-158742024D01*
X141825164Y-158566431D01*
X141825162Y-158566429D01*
X141825156Y-158566425D01*
X141825151Y-158566422D01*
X141825148Y-158566420D01*
X141575352Y-158422199D01*
X141575336Y-158422191D01*
X141308860Y-158311814D01*
X141308848Y-158311810D01*
X141308845Y-158311809D01*
X141030217Y-158237151D01*
X141030211Y-158237150D01*
X141030206Y-158237149D01*
X140744238Y-158199501D01*
X140744233Y-158199500D01*
X140744228Y-158199500D01*
X140455772Y-158199500D01*
X140455766Y-158199500D01*
X140455761Y-158199501D01*
X140169793Y-158237149D01*
X140169786Y-158237150D01*
X140169783Y-158237151D01*
X139891155Y-158311809D01*
X139891139Y-158311814D01*
X139624663Y-158422191D01*
X139624647Y-158422199D01*
X139374851Y-158566420D01*
X139374835Y-158566431D01*
X139145997Y-158742024D01*
X139145990Y-158742030D01*
X138942030Y-158945990D01*
X138942024Y-158945997D01*
X138766431Y-159174835D01*
X138766420Y-159174851D01*
X138622199Y-159424647D01*
X138622191Y-159424663D01*
X138511814Y-159691139D01*
X138511809Y-159691155D01*
X138437152Y-159969780D01*
X138437149Y-159969793D01*
X138399501Y-160255761D01*
X138399500Y-160255778D01*
X138399500Y-160544221D01*
X138399501Y-160544238D01*
X138437149Y-160830206D01*
X138437150Y-160830211D01*
X138437151Y-160830217D01*
X138500500Y-161066639D01*
X138511809Y-161108844D01*
X138511814Y-161108860D01*
X138622191Y-161375336D01*
X138622199Y-161375352D01*
X138766420Y-161625148D01*
X138766431Y-161625164D01*
X138942024Y-161854002D01*
X138942030Y-161854009D01*
X139145990Y-162057969D01*
X139145996Y-162057974D01*
X139374844Y-162233575D01*
X139374851Y-162233579D01*
X139434665Y-162268113D01*
X139482881Y-162318680D01*
X139496103Y-162387287D01*
X139470135Y-162452152D01*
X139413221Y-162492680D01*
X139372665Y-162499500D01*
X101827335Y-162499500D01*
X101760296Y-162479815D01*
X101714541Y-162427011D01*
X101704597Y-162357853D01*
X101733622Y-162294297D01*
X101765335Y-162268113D01*
X101779799Y-162259761D01*
X101825156Y-162233575D01*
X102054004Y-162057974D01*
X102257974Y-161854004D01*
X102433575Y-161625156D01*
X102577804Y-161375345D01*
X102688191Y-161108845D01*
X102762849Y-160830217D01*
X102800500Y-160544228D01*
X102800500Y-160255772D01*
X102762849Y-159969783D01*
X102688191Y-159691155D01*
X102688186Y-159691145D01*
X102688185Y-159691139D01*
X102577808Y-159424663D01*
X102577800Y-159424647D01*
X102433579Y-159174851D01*
X102433575Y-159174844D01*
X102305751Y-159008260D01*
X102257975Y-158945997D01*
X102257969Y-158945990D01*
X102054009Y-158742030D01*
X102054002Y-158742024D01*
X101825164Y-158566431D01*
X101825162Y-158566429D01*
X101825156Y-158566425D01*
X101825151Y-158566422D01*
X101825148Y-158566420D01*
X101575352Y-158422199D01*
X101575336Y-158422191D01*
X101308860Y-158311814D01*
X101308848Y-158311810D01*
X101308845Y-158311809D01*
X101030217Y-158237151D01*
X101030211Y-158237150D01*
X101030206Y-158237149D01*
X100744238Y-158199501D01*
X100744233Y-158199500D01*
X100744228Y-158199500D01*
X100455772Y-158199500D01*
X100455766Y-158199500D01*
X100455761Y-158199501D01*
X100169793Y-158237149D01*
X100169786Y-158237150D01*
X100169783Y-158237151D01*
X99891155Y-158311809D01*
X99891139Y-158311814D01*
X99624663Y-158422191D01*
X99624647Y-158422199D01*
X99374851Y-158566420D01*
X99374835Y-158566431D01*
X99145997Y-158742024D01*
X99145990Y-158742030D01*
X98942030Y-158945990D01*
X98942024Y-158945997D01*
X98766431Y-159174835D01*
X98766420Y-159174851D01*
X98731887Y-159234665D01*
X98681320Y-159282881D01*
X98612713Y-159296103D01*
X98547848Y-159270135D01*
X98507320Y-159213221D01*
X98500500Y-159172665D01*
X98500500Y-145345134D01*
X98520185Y-145278095D01*
X98572989Y-145232340D01*
X98642147Y-145222396D01*
X98671950Y-145230572D01*
X98766503Y-145269737D01*
X98921153Y-145300499D01*
X98921156Y-145300500D01*
X98921158Y-145300500D01*
X99078844Y-145300500D01*
X99078845Y-145300499D01*
X99233497Y-145269737D01*
X99379179Y-145209394D01*
X99510289Y-145121789D01*
X99621789Y-145010289D01*
X99698417Y-144895605D01*
X99713829Y-144876826D01*
X102385821Y-142204835D01*
X102447142Y-142171352D01*
X102516834Y-142176336D01*
X102572767Y-142218208D01*
X102597184Y-142283672D01*
X102597500Y-142292518D01*
X102597500Y-142631007D01*
X102597500Y-151928890D01*
X102597500Y-152066878D01*
X102597500Y-152066880D01*
X102597499Y-152066880D01*
X102624418Y-152202206D01*
X102624421Y-152202216D01*
X102677222Y-152329691D01*
X102753887Y-152444429D01*
X102753888Y-152444430D01*
X105256002Y-154946542D01*
X105319748Y-155010288D01*
X105353575Y-155044115D01*
X105468298Y-155120771D01*
X105468305Y-155120775D01*
X105540068Y-155150500D01*
X105595787Y-155173580D01*
X105622707Y-155178934D01*
X105720189Y-155198325D01*
X105731122Y-155200500D01*
X105731123Y-155200500D01*
X109274684Y-155200500D01*
X109322136Y-155209939D01*
X109466498Y-155269735D01*
X109466503Y-155269737D01*
X109621153Y-155300499D01*
X109621156Y-155300500D01*
X109621158Y-155300500D01*
X109778844Y-155300500D01*
X109778845Y-155300499D01*
X109933497Y-155269737D01*
X110079179Y-155209394D01*
X110210289Y-155121789D01*
X110321789Y-155010289D01*
X110409394Y-154879179D01*
X110469737Y-154733497D01*
X110500500Y-154578842D01*
X110500500Y-154524500D01*
X110520185Y-154457461D01*
X110572989Y-154411706D01*
X110624500Y-154400500D01*
X119174684Y-154400500D01*
X119222136Y-154409939D01*
X119336866Y-154457461D01*
X119366503Y-154469737D01*
X119521153Y-154500499D01*
X119521156Y-154500500D01*
X119521158Y-154500500D01*
X119678844Y-154500500D01*
X119678845Y-154500499D01*
X119833497Y-154469737D01*
X119979179Y-154409394D01*
X120110289Y-154321789D01*
X120221789Y-154210289D01*
X120309394Y-154079179D01*
X120369737Y-153933497D01*
X120400500Y-153778842D01*
X120400500Y-153621158D01*
X120400500Y-153621155D01*
X120400499Y-153621153D01*
X120369738Y-153466510D01*
X120369737Y-153466503D01*
X120369735Y-153466498D01*
X120309397Y-153320827D01*
X120309390Y-153320814D01*
X120221789Y-153189711D01*
X120221786Y-153189707D01*
X120110292Y-153078213D01*
X120110288Y-153078210D01*
X119979185Y-152990609D01*
X119979172Y-152990602D01*
X119854738Y-152939061D01*
X119800334Y-152895221D01*
X119778269Y-152828926D01*
X119795548Y-152761227D01*
X119846685Y-152713616D01*
X119902190Y-152700500D01*
X129674684Y-152700500D01*
X129722136Y-152709939D01*
X129845958Y-152761227D01*
X129866503Y-152769737D01*
X130021153Y-152800499D01*
X130021156Y-152800500D01*
X130021158Y-152800500D01*
X130178844Y-152800500D01*
X130178845Y-152800499D01*
X130333497Y-152769737D01*
X130479179Y-152709394D01*
X130610289Y-152621789D01*
X130721789Y-152510289D01*
X130809394Y-152379179D01*
X130869737Y-152233497D01*
X130900500Y-152078842D01*
X130900500Y-151921158D01*
X130900500Y-151921155D01*
X130900499Y-151921153D01*
X130869738Y-151766510D01*
X130869737Y-151766503D01*
X130869735Y-151766498D01*
X130809397Y-151620827D01*
X130809390Y-151620814D01*
X130721789Y-151489711D01*
X130721786Y-151489707D01*
X130610292Y-151378213D01*
X130610288Y-151378210D01*
X130479185Y-151290609D01*
X130479172Y-151290602D01*
X130333501Y-151230264D01*
X130333489Y-151230261D01*
X130178845Y-151199500D01*
X130178842Y-151199500D01*
X130021158Y-151199500D01*
X130021155Y-151199500D01*
X129866510Y-151230261D01*
X129866498Y-151230264D01*
X129722136Y-151290061D01*
X129674684Y-151299500D01*
X107699934Y-151299500D01*
X107632895Y-151279815D01*
X107587140Y-151227011D01*
X107577196Y-151157853D01*
X107589449Y-151119205D01*
X107651095Y-150998217D01*
X107716757Y-150796130D01*
X107716757Y-150796127D01*
X107750000Y-150586246D01*
X107750000Y-150373753D01*
X107716757Y-150163872D01*
X107716757Y-150163869D01*
X107651095Y-149961782D01*
X107554624Y-149772449D01*
X107515270Y-149718282D01*
X107515269Y-149718282D01*
X106882962Y-150350589D01*
X106865925Y-150287007D01*
X106800099Y-150172993D01*
X106707007Y-150079901D01*
X106592993Y-150014075D01*
X106529409Y-149997037D01*
X107161716Y-149364728D01*
X107107547Y-149325373D01*
X107107547Y-149325372D01*
X107098500Y-149320763D01*
X107047706Y-149272788D01*
X107030912Y-149204966D01*
X107053451Y-149138832D01*
X107098508Y-149099793D01*
X107107816Y-149095051D01*
X107187007Y-149037515D01*
X107279786Y-148970109D01*
X107279788Y-148970106D01*
X107279792Y-148970104D01*
X107430104Y-148819792D01*
X107430106Y-148819788D01*
X107430109Y-148819786D01*
X107555048Y-148647820D01*
X107555047Y-148647820D01*
X107555051Y-148647816D01*
X107651557Y-148458412D01*
X107717246Y-148256243D01*
X107750500Y-148046287D01*
X107750500Y-147833713D01*
X107717246Y-147623757D01*
X107651557Y-147421588D01*
X107563352Y-147248475D01*
X107550456Y-147179805D01*
X107576732Y-147115065D01*
X107586147Y-147104508D01*
X132244586Y-122446069D01*
X132284810Y-122419192D01*
X132392710Y-122374500D01*
X132429173Y-122359397D01*
X132429176Y-122359395D01*
X132429179Y-122359394D01*
X132560289Y-122271789D01*
X132590089Y-122241987D01*
X132602007Y-122235479D01*
X132610921Y-122225232D01*
X132632070Y-122219063D01*
X132651409Y-122208504D01*
X132666397Y-122209052D01*
X132677997Y-122205670D01*
X132701320Y-122210332D01*
X132712922Y-122210757D01*
X132719181Y-122212607D01*
X132745671Y-122223580D01*
X132772591Y-122228934D01*
X132869647Y-122248240D01*
X132881006Y-122250500D01*
X132881007Y-122250500D01*
X133165500Y-122250500D01*
X133174185Y-122253050D01*
X133183147Y-122251762D01*
X133207187Y-122262740D01*
X133232539Y-122270185D01*
X133238466Y-122277025D01*
X133246703Y-122280787D01*
X133260992Y-122303021D01*
X133278294Y-122322989D01*
X133280581Y-122333503D01*
X133284477Y-122339565D01*
X133289500Y-122374500D01*
X133289500Y-122388859D01*
X133272235Y-122451976D01*
X133267132Y-122460605D01*
X133267129Y-122460611D01*
X133222335Y-122614791D01*
X133222334Y-122614797D01*
X133219500Y-122650811D01*
X133219500Y-123149169D01*
X133219501Y-123149191D01*
X133222335Y-123185205D01*
X133267129Y-123339388D01*
X133267131Y-123339393D01*
X133348863Y-123477595D01*
X133348869Y-123477603D01*
X133462396Y-123591130D01*
X133462400Y-123591133D01*
X133462402Y-123591135D01*
X133600607Y-123672869D01*
X133600614Y-123672871D01*
X133754791Y-123717664D01*
X133754794Y-123717664D01*
X133754796Y-123717665D01*
X133790819Y-123720500D01*
X134189180Y-123720499D01*
X134225204Y-123717665D01*
X134379393Y-123672869D01*
X134436882Y-123638869D01*
X134504602Y-123621688D01*
X134563117Y-123638869D01*
X134620607Y-123672869D01*
X134620610Y-123672869D01*
X134620612Y-123672871D01*
X134774791Y-123717664D01*
X134774794Y-123717664D01*
X134774796Y-123717665D01*
X134810819Y-123720500D01*
X135209180Y-123720499D01*
X135245204Y-123717665D01*
X135399393Y-123672869D01*
X135486879Y-123621129D01*
X135554603Y-123603947D01*
X135613120Y-123621129D01*
X135700607Y-123672869D01*
X135700614Y-123672871D01*
X135854791Y-123717664D01*
X135854794Y-123717664D01*
X135854796Y-123717665D01*
X135890819Y-123720500D01*
X136289180Y-123720499D01*
X136325204Y-123717665D01*
X136479393Y-123672869D01*
X136537369Y-123638581D01*
X136605093Y-123621398D01*
X136663612Y-123638581D01*
X136720805Y-123672404D01*
X136860000Y-123712844D01*
X136860000Y-123712843D01*
X137360000Y-123712843D01*
X137499194Y-123672404D01*
X137637285Y-123590738D01*
X137637294Y-123590731D01*
X137750731Y-123477294D01*
X137750738Y-123477285D01*
X137832406Y-123339191D01*
X137832407Y-123339188D01*
X137877166Y-123185128D01*
X137877167Y-123185122D01*
X137879931Y-123150000D01*
X137360000Y-123150000D01*
X137360000Y-123712843D01*
X136860000Y-123712843D01*
X136860000Y-123160408D01*
X136860004Y-123159404D01*
X136860039Y-123155034D01*
X136860500Y-123149181D01*
X136860499Y-123023999D01*
X136880183Y-122956962D01*
X136932986Y-122911206D01*
X136984499Y-122900000D01*
X137110000Y-122900000D01*
X137110000Y-122774000D01*
X137129685Y-122706961D01*
X137182489Y-122661206D01*
X137234000Y-122650000D01*
X137879931Y-122650000D01*
X137877167Y-122614877D01*
X137877166Y-122614871D01*
X137832407Y-122460811D01*
X137832406Y-122460808D01*
X137750738Y-122322714D01*
X137750731Y-122322705D01*
X137684739Y-122256713D01*
X137651254Y-122195390D01*
X137656238Y-122125698D01*
X137665688Y-122105911D01*
X137669069Y-122100194D01*
X137751744Y-121960398D01*
X137797598Y-121802569D01*
X137800500Y-121765694D01*
X137800500Y-121334306D01*
X137797598Y-121297431D01*
X137782814Y-121246546D01*
X137751745Y-121139606D01*
X137751745Y-121139605D01*
X137751744Y-121139604D01*
X137751744Y-121139602D01*
X137750574Y-121137624D01*
X137750130Y-121135874D01*
X137748647Y-121132446D01*
X137749200Y-121132206D01*
X137733396Y-121069901D01*
X137748753Y-121017603D01*
X137748184Y-121017357D01*
X137750182Y-121012738D01*
X137750581Y-121011382D01*
X137751281Y-121010197D01*
X137797100Y-120852486D01*
X137797295Y-120850001D01*
X137797295Y-120850000D01*
X137531815Y-120850000D01*
X137468694Y-120832732D01*
X137410396Y-120798255D01*
X137410393Y-120798254D01*
X137252573Y-120752402D01*
X137252567Y-120752401D01*
X137215701Y-120749500D01*
X137215694Y-120749500D01*
X136059306Y-120749500D01*
X136059298Y-120749500D01*
X136022432Y-120752401D01*
X136022426Y-120752402D01*
X135864606Y-120798254D01*
X135864603Y-120798255D01*
X135806306Y-120832732D01*
X135743185Y-120850000D01*
X135477704Y-120850000D01*
X135453440Y-120876248D01*
X135393479Y-120912114D01*
X135323645Y-120909869D01*
X135283987Y-120885468D01*
X135283031Y-120886702D01*
X135276862Y-120881917D01*
X135135396Y-120798255D01*
X135135393Y-120798254D01*
X134977573Y-120752402D01*
X134977567Y-120752401D01*
X134940701Y-120749500D01*
X134940694Y-120749500D01*
X134340519Y-120749500D01*
X134319273Y-120743261D01*
X134297185Y-120741682D01*
X134286401Y-120733609D01*
X134273480Y-120729815D01*
X134258980Y-120713081D01*
X134241252Y-120699810D01*
X134236544Y-120687189D01*
X134227725Y-120677011D01*
X134224573Y-120655093D01*
X134216835Y-120634346D01*
X134219697Y-120621185D01*
X134217781Y-120607853D01*
X134226980Y-120587709D01*
X134231687Y-120566073D01*
X134244955Y-120548347D01*
X134246806Y-120544297D01*
X134252838Y-120537819D01*
X134303838Y-120486819D01*
X134365161Y-120453334D01*
X134391519Y-120450500D01*
X134940686Y-120450500D01*
X134940694Y-120450500D01*
X134977569Y-120447598D01*
X134977571Y-120447597D01*
X134977573Y-120447597D01*
X135034678Y-120431006D01*
X135135398Y-120401744D01*
X135276865Y-120318081D01*
X135276870Y-120318075D01*
X135283031Y-120313298D01*
X135284339Y-120314984D01*
X135336009Y-120286761D01*
X135405701Y-120291735D01*
X135453441Y-120323752D01*
X135477704Y-120350000D01*
X135743185Y-120350000D01*
X135806306Y-120367268D01*
X135864602Y-120401744D01*
X135906224Y-120413836D01*
X136022426Y-120447597D01*
X136022429Y-120447597D01*
X136022431Y-120447598D01*
X136059306Y-120450500D01*
X136059314Y-120450500D01*
X137215686Y-120450500D01*
X137215694Y-120450500D01*
X137252569Y-120447598D01*
X137252571Y-120447597D01*
X137252573Y-120447597D01*
X137309678Y-120431006D01*
X137410398Y-120401744D01*
X137468694Y-120367268D01*
X137531815Y-120350000D01*
X137797295Y-120350000D01*
X137797295Y-120349998D01*
X137797100Y-120347511D01*
X137797099Y-120347505D01*
X137751283Y-120189806D01*
X137751281Y-120189801D01*
X137750578Y-120188612D01*
X137750310Y-120187558D01*
X137748184Y-120182644D01*
X137748976Y-120182300D01*
X137733395Y-120120888D01*
X137749009Y-120067714D01*
X137748646Y-120067557D01*
X137749920Y-120064612D01*
X137750579Y-120062369D01*
X137751742Y-120060401D01*
X137751744Y-120060398D01*
X137797598Y-119902569D01*
X137800500Y-119865694D01*
X137800500Y-119434306D01*
X137797598Y-119397431D01*
X137751744Y-119239602D01*
X137668081Y-119098135D01*
X137668079Y-119098133D01*
X137668076Y-119098129D01*
X137551870Y-118981923D01*
X137551862Y-118981917D01*
X137410396Y-118898255D01*
X137410393Y-118898254D01*
X137252573Y-118852402D01*
X137252567Y-118852401D01*
X137215701Y-118849500D01*
X137215694Y-118849500D01*
X136924500Y-118849500D01*
X136857461Y-118829815D01*
X136811706Y-118777011D01*
X136800500Y-118725500D01*
X136800500Y-117624500D01*
X136803050Y-117615814D01*
X136801762Y-117606853D01*
X136812740Y-117582812D01*
X136820185Y-117557461D01*
X136827025Y-117551533D01*
X136830787Y-117543297D01*
X136853021Y-117529007D01*
X136872989Y-117511706D01*
X136883503Y-117509418D01*
X136889565Y-117505523D01*
X136924500Y-117500500D01*
X136970981Y-117500500D01*
X137038020Y-117520185D01*
G37*
%TD.AperFunction*%
%TA.AperFunction,Conductor*%
G36*
X105405703Y-148856045D02*
G01*
X105412181Y-148862077D01*
X105520213Y-148970109D01*
X105692179Y-149095048D01*
X105692181Y-149095049D01*
X105692184Y-149095051D01*
X105701493Y-149099794D01*
X105752290Y-149147766D01*
X105769087Y-149215587D01*
X105746552Y-149281722D01*
X105701505Y-149320760D01*
X105692446Y-149325376D01*
X105692440Y-149325380D01*
X105638282Y-149364727D01*
X105638282Y-149364728D01*
X106270591Y-149997037D01*
X106207007Y-150014075D01*
X106092993Y-150079901D01*
X105999901Y-150172993D01*
X105934075Y-150287007D01*
X105917037Y-150350591D01*
X105266630Y-149700184D01*
X105265848Y-149700020D01*
X105216093Y-149650967D01*
X105200500Y-149590768D01*
X105200500Y-148949758D01*
X105220185Y-148882719D01*
X105272989Y-148836964D01*
X105342147Y-148827020D01*
X105405703Y-148856045D01*
G37*
%TD.AperFunction*%
%TA.AperFunction,Conductor*%
G36*
X117976520Y-58520185D02*
G01*
X118022275Y-58572989D01*
X118032219Y-58642147D01*
X118003194Y-58705703D01*
X117997162Y-58712181D01*
X116392181Y-60317162D01*
X116330858Y-60350647D01*
X116261166Y-60345663D01*
X116205233Y-60303791D01*
X116180816Y-60238327D01*
X116180500Y-60229481D01*
X116180500Y-60136456D01*
X116142052Y-59943170D01*
X116142051Y-59943169D01*
X116142051Y-59943165D01*
X116112554Y-59871953D01*
X116066635Y-59761092D01*
X116066628Y-59761079D01*
X115957139Y-59597218D01*
X115957136Y-59597214D01*
X115817785Y-59457863D01*
X115817781Y-59457860D01*
X115653920Y-59348371D01*
X115653907Y-59348364D01*
X115471839Y-59272950D01*
X115471829Y-59272947D01*
X115278543Y-59234500D01*
X115278541Y-59234500D01*
X115081459Y-59234500D01*
X115081457Y-59234500D01*
X114888170Y-59272947D01*
X114888160Y-59272950D01*
X114706092Y-59348364D01*
X114706079Y-59348371D01*
X114542218Y-59457860D01*
X114542214Y-59457863D01*
X114402863Y-59597214D01*
X114402860Y-59597218D01*
X114293371Y-59761079D01*
X114293364Y-59761092D01*
X114217950Y-59943160D01*
X114217947Y-59943170D01*
X114179500Y-60136456D01*
X114179500Y-60136459D01*
X114179500Y-61133541D01*
X114179500Y-61133543D01*
X114179499Y-61133543D01*
X114217947Y-61326829D01*
X114217950Y-61326839D01*
X114293364Y-61508907D01*
X114293371Y-61508920D01*
X114402860Y-61672781D01*
X114402863Y-61672785D01*
X114542214Y-61812136D01*
X114542218Y-61812139D01*
X114629385Y-61870383D01*
X114674190Y-61923995D01*
X114682897Y-61993320D01*
X114652742Y-62056348D01*
X114648175Y-62061166D01*
X112955887Y-63753454D01*
X112879222Y-63868192D01*
X112826421Y-63995667D01*
X112826418Y-63995679D01*
X112800975Y-64123592D01*
X112800974Y-64123599D01*
X112799500Y-64131007D01*
X112799500Y-120731006D01*
X112799500Y-120868994D01*
X112799500Y-120868996D01*
X112799499Y-120868996D01*
X112826418Y-121004322D01*
X112826421Y-121004332D01*
X112879222Y-121131807D01*
X112955887Y-121246545D01*
X112955888Y-121246546D01*
X115903927Y-124194583D01*
X115930807Y-124234812D01*
X115990602Y-124379172D01*
X115990609Y-124379185D01*
X116078210Y-124510288D01*
X116078213Y-124510292D01*
X116107018Y-124539097D01*
X116140503Y-124600420D01*
X116135519Y-124670112D01*
X116107018Y-124714459D01*
X103262814Y-137558663D01*
X103201491Y-137592148D01*
X103131799Y-137587164D01*
X103075866Y-137545292D01*
X103057202Y-137509300D01*
X103039599Y-137455123D01*
X103039598Y-137455120D01*
X102936302Y-137252392D01*
X102919167Y-137228808D01*
X102802566Y-137068320D01*
X102641680Y-136907434D01*
X102457607Y-136773697D01*
X102254879Y-136670401D01*
X102254876Y-136670400D01*
X102038490Y-136600093D01*
X101813768Y-136564500D01*
X101813763Y-136564500D01*
X101586237Y-136564500D01*
X101586232Y-136564500D01*
X101361509Y-136600093D01*
X101145123Y-136670400D01*
X101145120Y-136670401D01*
X100942392Y-136773697D01*
X100837372Y-136849998D01*
X100758320Y-136907434D01*
X100758318Y-136907436D01*
X100758317Y-136907436D01*
X100597436Y-137068317D01*
X100597436Y-137068318D01*
X100597434Y-137068320D01*
X100539998Y-137147372D01*
X100463697Y-137252392D01*
X100360401Y-137455120D01*
X100360400Y-137455123D01*
X100290093Y-137671509D01*
X100254500Y-137896231D01*
X100254500Y-138123768D01*
X100290093Y-138348490D01*
X100360400Y-138564876D01*
X100360401Y-138564879D01*
X100463697Y-138767607D01*
X100597434Y-138951680D01*
X100758320Y-139112566D01*
X100942393Y-139246303D01*
X101017922Y-139284787D01*
X101145120Y-139349598D01*
X101145123Y-139349599D01*
X101253316Y-139384752D01*
X101361511Y-139419907D01*
X101465591Y-139436391D01*
X101586232Y-139455500D01*
X101586237Y-139455500D01*
X101813768Y-139455500D01*
X101922710Y-139438244D01*
X102038489Y-139419907D01*
X102254879Y-139349598D01*
X102457607Y-139246303D01*
X102641680Y-139112566D01*
X102785819Y-138968427D01*
X102847142Y-138934942D01*
X102916834Y-138939926D01*
X102972767Y-138981798D01*
X102997184Y-139047262D01*
X102997500Y-139056108D01*
X102997500Y-139560480D01*
X102977815Y-139627519D01*
X102961181Y-139648161D01*
X98933630Y-143675711D01*
X98921171Y-143683166D01*
X98913770Y-143691839D01*
X98891466Y-143700942D01*
X98881777Y-143706741D01*
X98876024Y-143708477D01*
X98766503Y-143730263D01*
X98666251Y-143771788D01*
X98660328Y-143773576D01*
X98631329Y-143773793D01*
X98602482Y-143776895D01*
X98596805Y-143774053D01*
X98590460Y-143774101D01*
X98565943Y-143758604D01*
X98540003Y-143745619D01*
X98536764Y-143740160D01*
X98531400Y-143736770D01*
X98519153Y-143710478D01*
X98504351Y-143685530D01*
X98503176Y-143676179D01*
X98501898Y-143673434D01*
X98502383Y-143669865D01*
X98500500Y-143654865D01*
X98500500Y-74477248D01*
X99674500Y-74477248D01*
X99674500Y-74742751D01*
X99674501Y-74742767D01*
X99709156Y-75006001D01*
X99777879Y-75262478D01*
X99879481Y-75507768D01*
X99879489Y-75507785D01*
X100012240Y-75737714D01*
X100012251Y-75737730D01*
X100173879Y-75948368D01*
X100173885Y-75948375D01*
X100361624Y-76136114D01*
X100361631Y-76136120D01*
X100442711Y-76198335D01*
X100572278Y-76297755D01*
X100572285Y-76297759D01*
X100802214Y-76430510D01*
X100802219Y-76430512D01*
X100802222Y-76430514D01*
X100802226Y-76430515D01*
X100802231Y-76430518D01*
X101047522Y-76532120D01*
X101047520Y-76532120D01*
X101047526Y-76532121D01*
X101047527Y-76532122D01*
X101303997Y-76600843D01*
X101567242Y-76635500D01*
X101567249Y-76635500D01*
X101832751Y-76635500D01*
X101832758Y-76635500D01*
X102096003Y-76600843D01*
X102352473Y-76532122D01*
X102597778Y-76430514D01*
X102827722Y-76297755D01*
X103038370Y-76136119D01*
X103226119Y-75948370D01*
X103387755Y-75737722D01*
X103520514Y-75507778D01*
X103622122Y-75262473D01*
X103690843Y-75006003D01*
X103725500Y-74742758D01*
X103725500Y-74477242D01*
X103690843Y-74213997D01*
X103622122Y-73957527D01*
X103619998Y-73952400D01*
X103520518Y-73712231D01*
X103520510Y-73712214D01*
X103387759Y-73482285D01*
X103387755Y-73482278D01*
X103226119Y-73271630D01*
X103226114Y-73271624D01*
X103038375Y-73083885D01*
X103038368Y-73083879D01*
X102827730Y-72922251D01*
X102827728Y-72922249D01*
X102827722Y-72922245D01*
X102827717Y-72922242D01*
X102827714Y-72922240D01*
X102597785Y-72789489D01*
X102597768Y-72789481D01*
X102352477Y-72687879D01*
X102352479Y-72687879D01*
X102096001Y-72619156D01*
X101832767Y-72584501D01*
X101832764Y-72584500D01*
X101832758Y-72584500D01*
X101567242Y-72584500D01*
X101567236Y-72584500D01*
X101567232Y-72584501D01*
X101303998Y-72619156D01*
X101047521Y-72687879D01*
X100802231Y-72789481D01*
X100802214Y-72789489D01*
X100572285Y-72922240D01*
X100572269Y-72922251D01*
X100361631Y-73083879D01*
X100361624Y-73083885D01*
X100173885Y-73271624D01*
X100173879Y-73271631D01*
X100012251Y-73482269D01*
X100012240Y-73482285D01*
X99879489Y-73712214D01*
X99879481Y-73712231D01*
X99777879Y-73957521D01*
X99709156Y-74213998D01*
X99674501Y-74477232D01*
X99674500Y-74477248D01*
X98500500Y-74477248D01*
X98500500Y-65672734D01*
X108210000Y-65672734D01*
X108210000Y-65907265D01*
X108246689Y-66138909D01*
X108319164Y-66361965D01*
X108425640Y-66570933D01*
X108484498Y-66651945D01*
X108484499Y-66651945D01*
X109091304Y-66045140D01*
X109115116Y-66102627D01*
X109187345Y-66210725D01*
X109279275Y-66302655D01*
X109387373Y-66374884D01*
X109444858Y-66398695D01*
X108838052Y-67005499D01*
X108838053Y-67005500D01*
X108919066Y-67064359D01*
X109128034Y-67170835D01*
X109351090Y-67243310D01*
X109582735Y-67280000D01*
X109817265Y-67280000D01*
X110048909Y-67243310D01*
X110271965Y-67170835D01*
X110480930Y-67064361D01*
X110561945Y-67005499D01*
X110561946Y-67005499D01*
X109955141Y-66398695D01*
X110012627Y-66374884D01*
X110120725Y-66302655D01*
X110212655Y-66210725D01*
X110284884Y-66102627D01*
X110308695Y-66045141D01*
X110915499Y-66651946D01*
X110915499Y-66651945D01*
X110974361Y-66570930D01*
X111080835Y-66361965D01*
X111153310Y-66138909D01*
X111190000Y-65907265D01*
X111190000Y-65672734D01*
X111153310Y-65441090D01*
X111080835Y-65218034D01*
X110974359Y-65009066D01*
X110915500Y-64928053D01*
X110915499Y-64928052D01*
X110308694Y-65534857D01*
X110284884Y-65477373D01*
X110212655Y-65369275D01*
X110120725Y-65277345D01*
X110012627Y-65205116D01*
X109955141Y-65181304D01*
X110561945Y-64574499D01*
X110561945Y-64574498D01*
X110480933Y-64515640D01*
X110271965Y-64409164D01*
X110048909Y-64336689D01*
X109817265Y-64300000D01*
X109582735Y-64300000D01*
X109351090Y-64336689D01*
X109128034Y-64409164D01*
X108919068Y-64515639D01*
X108838053Y-64574498D01*
X108838053Y-64574499D01*
X109444858Y-65181304D01*
X109387373Y-65205116D01*
X109279275Y-65277345D01*
X109187345Y-65369275D01*
X109115116Y-65477373D01*
X109091304Y-65534858D01*
X108484499Y-64928053D01*
X108484498Y-64928053D01*
X108425639Y-65009068D01*
X108319164Y-65218034D01*
X108246689Y-65441090D01*
X108210000Y-65672734D01*
X98500500Y-65672734D01*
X98500500Y-61627334D01*
X98520185Y-61560295D01*
X98572989Y-61514540D01*
X98642147Y-61504596D01*
X98705703Y-61533621D01*
X98731885Y-61565332D01*
X98766425Y-61625156D01*
X98766430Y-61625162D01*
X98766431Y-61625164D01*
X98942024Y-61854002D01*
X98942030Y-61854009D01*
X99145990Y-62057969D01*
X99145996Y-62057974D01*
X99374844Y-62233575D01*
X99374851Y-62233579D01*
X99624647Y-62377800D01*
X99624663Y-62377808D01*
X99891139Y-62488185D01*
X99891145Y-62488186D01*
X99891155Y-62488191D01*
X100169783Y-62562849D01*
X100455772Y-62600500D01*
X100455779Y-62600500D01*
X100744221Y-62600500D01*
X100744228Y-62600500D01*
X101030217Y-62562849D01*
X101308845Y-62488191D01*
X101308857Y-62488185D01*
X101308860Y-62488185D01*
X101575336Y-62377808D01*
X101575339Y-62377806D01*
X101575345Y-62377804D01*
X101825156Y-62233575D01*
X102054004Y-62057974D01*
X102257974Y-61854004D01*
X102433575Y-61625156D01*
X102577804Y-61375345D01*
X102597898Y-61326835D01*
X102688185Y-61108860D01*
X102688185Y-61108857D01*
X102688191Y-61108845D01*
X102762849Y-60830217D01*
X102800500Y-60544228D01*
X102800500Y-60255772D01*
X102762849Y-59969783D01*
X102688191Y-59691155D01*
X102688186Y-59691145D01*
X102688185Y-59691139D01*
X102577808Y-59424663D01*
X102577800Y-59424647D01*
X102433579Y-59174851D01*
X102433575Y-59174844D01*
X102305751Y-59008260D01*
X102257975Y-58945997D01*
X102257969Y-58945990D01*
X102054009Y-58742030D01*
X102054002Y-58742024D01*
X102029048Y-58722876D01*
X101987845Y-58666448D01*
X101983690Y-58596702D01*
X102017902Y-58535782D01*
X102079620Y-58503029D01*
X102104534Y-58500500D01*
X117909481Y-58500500D01*
X117976520Y-58520185D01*
G37*
%TD.AperFunction*%
%TA.AperFunction,Conductor*%
G36*
X122098521Y-106053225D02*
G01*
X122154455Y-106095095D01*
X122177662Y-106150008D01*
X122190093Y-106228490D01*
X122260400Y-106444876D01*
X122260401Y-106444879D01*
X122363697Y-106647607D01*
X122497434Y-106831680D01*
X122658320Y-106992566D01*
X122842393Y-107126303D01*
X122887382Y-107149226D01*
X123045120Y-107229598D01*
X123045123Y-107229599D01*
X123153316Y-107264752D01*
X123261511Y-107299907D01*
X123365591Y-107316391D01*
X123486232Y-107335500D01*
X123486237Y-107335500D01*
X123713768Y-107335500D01*
X123822710Y-107318244D01*
X123938489Y-107299907D01*
X124154879Y-107229598D01*
X124357607Y-107126303D01*
X124540116Y-106993702D01*
X124605921Y-106970223D01*
X124673975Y-106986048D01*
X124722670Y-107036154D01*
X124737000Y-107094021D01*
X124737000Y-119268506D01*
X124737000Y-119406494D01*
X124737000Y-119406496D01*
X124736999Y-119406496D01*
X124763918Y-119541822D01*
X124763921Y-119541832D01*
X124816722Y-119669307D01*
X124893387Y-119784045D01*
X127303454Y-122194112D01*
X127303457Y-122194114D01*
X127391661Y-122253050D01*
X127418192Y-122270777D01*
X127543581Y-122322714D01*
X127545672Y-122323580D01*
X127545676Y-122323580D01*
X127545677Y-122323581D01*
X127681003Y-122350500D01*
X127681006Y-122350500D01*
X127681007Y-122350500D01*
X130059481Y-122350500D01*
X130126520Y-122370185D01*
X130172275Y-122422989D01*
X130182219Y-122492147D01*
X130153194Y-122555703D01*
X130147162Y-122562181D01*
X121995979Y-130713363D01*
X121934656Y-130746848D01*
X121864964Y-130741864D01*
X121809031Y-130699992D01*
X121784614Y-130634528D01*
X121784599Y-130617041D01*
X121785431Y-130605129D01*
X121801501Y-130545157D01*
X121801501Y-130387043D01*
X121801500Y-130387039D01*
X121801500Y-123665602D01*
X121818112Y-123603602D01*
X121835446Y-123573580D01*
X121859577Y-123531785D01*
X121900500Y-123379057D01*
X121900500Y-123220943D01*
X121900500Y-116041868D01*
X121920185Y-115974829D01*
X121972989Y-115929074D01*
X122037756Y-115918579D01*
X122042516Y-115919090D01*
X122042517Y-115919091D01*
X122102127Y-115925500D01*
X123897872Y-115925499D01*
X123957483Y-115919091D01*
X124092331Y-115868796D01*
X124207546Y-115782546D01*
X124293796Y-115667331D01*
X124344091Y-115532483D01*
X124350500Y-115472873D01*
X124350499Y-113677128D01*
X124344091Y-113617517D01*
X124293796Y-113482669D01*
X124293795Y-113482668D01*
X124293793Y-113482664D01*
X124207547Y-113367455D01*
X124207544Y-113367452D01*
X124092335Y-113281206D01*
X124092328Y-113281202D01*
X123957482Y-113230908D01*
X123957483Y-113230908D01*
X123897883Y-113224501D01*
X123897881Y-113224500D01*
X123897873Y-113224500D01*
X123897865Y-113224500D01*
X123887309Y-113224500D01*
X123820270Y-113204815D01*
X123799628Y-113188181D01*
X123129408Y-112517962D01*
X123192993Y-112500925D01*
X123307007Y-112435099D01*
X123400099Y-112342007D01*
X123465925Y-112227993D01*
X123482962Y-112164408D01*
X124115270Y-112796717D01*
X124115270Y-112796716D01*
X124154622Y-112742554D01*
X124251095Y-112553217D01*
X124316757Y-112351130D01*
X124316757Y-112351127D01*
X124350000Y-112141246D01*
X124350000Y-111928753D01*
X124316757Y-111718872D01*
X124316757Y-111718869D01*
X124251095Y-111516782D01*
X124154624Y-111327449D01*
X124115270Y-111273282D01*
X124115269Y-111273282D01*
X123482962Y-111905590D01*
X123465925Y-111842007D01*
X123400099Y-111727993D01*
X123307007Y-111634901D01*
X123192993Y-111569075D01*
X123129409Y-111552037D01*
X123761716Y-110919728D01*
X123707550Y-110880375D01*
X123518217Y-110783904D01*
X123316129Y-110718242D01*
X123106246Y-110685000D01*
X122893754Y-110685000D01*
X122683872Y-110718242D01*
X122683869Y-110718242D01*
X122481782Y-110783904D01*
X122292439Y-110880380D01*
X122238282Y-110919727D01*
X122238282Y-110919728D01*
X122870591Y-111552037D01*
X122807007Y-111569075D01*
X122692993Y-111634901D01*
X122599901Y-111727993D01*
X122534075Y-111842007D01*
X122517037Y-111905591D01*
X121936819Y-111325373D01*
X121903334Y-111264050D01*
X121900500Y-111237692D01*
X121900500Y-106200097D01*
X121908259Y-106173671D01*
X121912690Y-106146482D01*
X121917964Y-106140620D01*
X121920185Y-106133058D01*
X121936812Y-106112422D01*
X121967510Y-106081724D01*
X122028829Y-106048241D01*
X122098521Y-106053225D01*
G37*
%TD.AperFunction*%
%TA.AperFunction,Conductor*%
G36*
X127439766Y-101047267D02*
G01*
X127448605Y-101052494D01*
X127448608Y-101052494D01*
X127448610Y-101052496D01*
X127604002Y-101097642D01*
X127604005Y-101097642D01*
X127604007Y-101097643D01*
X127640310Y-101100500D01*
X127640318Y-101100500D01*
X128109682Y-101100500D01*
X128109690Y-101100500D01*
X128145993Y-101097643D01*
X128145995Y-101097642D01*
X128145997Y-101097642D01*
X128301389Y-101052496D01*
X128301389Y-101052495D01*
X128301395Y-101052494D01*
X128310233Y-101047267D01*
X128326132Y-101042917D01*
X128338417Y-101035023D01*
X128373352Y-101030000D01*
X128539426Y-101030000D01*
X128574020Y-101034923D01*
X128652296Y-101057665D01*
X128688319Y-101060500D01*
X128813501Y-101060499D01*
X128880539Y-101080183D01*
X128926294Y-101132987D01*
X128937500Y-101184499D01*
X128937500Y-101310000D01*
X128993001Y-101310000D01*
X129060040Y-101329685D01*
X129105795Y-101382489D01*
X129117001Y-101434000D01*
X129117001Y-101509193D01*
X129119834Y-101545200D01*
X129164631Y-101699394D01*
X129170231Y-101708862D01*
X129187500Y-101771984D01*
X129187500Y-102079931D01*
X129197172Y-102088872D01*
X129233038Y-102148833D01*
X129237000Y-102179927D01*
X129237000Y-104158506D01*
X129237000Y-104296494D01*
X129237000Y-104296496D01*
X129236999Y-104296496D01*
X129263918Y-104431822D01*
X129263921Y-104431832D01*
X129316722Y-104559307D01*
X129393387Y-104674045D01*
X129393388Y-104674046D01*
X130120455Y-105401112D01*
X130153940Y-105462435D01*
X130150705Y-105527111D01*
X130146201Y-105540972D01*
X130109500Y-105772695D01*
X130109500Y-106007304D01*
X130146201Y-106239027D01*
X130218697Y-106462150D01*
X130325212Y-106671195D01*
X130463104Y-106860989D01*
X130463108Y-106860994D01*
X130629005Y-107026891D01*
X130629010Y-107026895D01*
X130765835Y-107126303D01*
X130818808Y-107164790D01*
X130985147Y-107249544D01*
X131027849Y-107271302D01*
X131139410Y-107307550D01*
X131250974Y-107343799D01*
X131482695Y-107380500D01*
X131482696Y-107380500D01*
X131717304Y-107380500D01*
X131717305Y-107380500D01*
X131949026Y-107343799D01*
X132172153Y-107271301D01*
X132381192Y-107164790D01*
X132393194Y-107156069D01*
X132402615Y-107149226D01*
X132468421Y-107125746D01*
X132536475Y-107141572D01*
X132585170Y-107191677D01*
X132599500Y-107249544D01*
X132599500Y-108658480D01*
X132579815Y-108725519D01*
X132563181Y-108746161D01*
X131355888Y-109953453D01*
X131355884Y-109953458D01*
X131330722Y-109991116D01*
X131324453Y-110000500D01*
X131301761Y-110034460D01*
X131279223Y-110068191D01*
X131226421Y-110195667D01*
X131226418Y-110195677D01*
X131199500Y-110331004D01*
X131199500Y-110331007D01*
X131199500Y-120431006D01*
X131199500Y-120568994D01*
X131199500Y-120568996D01*
X131199499Y-120568996D01*
X131226418Y-120704322D01*
X131226421Y-120704332D01*
X131256955Y-120778048D01*
X131264424Y-120847517D01*
X131233148Y-120909996D01*
X131173059Y-120945648D01*
X131142394Y-120949500D01*
X128091519Y-120949500D01*
X128024480Y-120929815D01*
X128003838Y-120913181D01*
X126174319Y-119083662D01*
X126140834Y-119022339D01*
X126138000Y-118995981D01*
X126138000Y-102045617D01*
X126157685Y-101978578D01*
X126210489Y-101932823D01*
X126279647Y-101922879D01*
X126325121Y-101938885D01*
X126448804Y-102012031D01*
X126604089Y-102057145D01*
X126625000Y-102058789D01*
X127125000Y-102058789D01*
X127145910Y-102057145D01*
X127301194Y-102012032D01*
X127311875Y-102005715D01*
X127379598Y-101988530D01*
X127438125Y-102005715D01*
X127448805Y-102012032D01*
X127604089Y-102057145D01*
X127625000Y-102058789D01*
X128125000Y-102058789D01*
X128145910Y-102057145D01*
X128301195Y-102012031D01*
X128319399Y-102001265D01*
X128387122Y-101984079D01*
X128445647Y-102001263D01*
X128498303Y-102032404D01*
X128498310Y-102032407D01*
X128652371Y-102077166D01*
X128652377Y-102077167D01*
X128687500Y-102079931D01*
X128687500Y-101560000D01*
X128125000Y-101560000D01*
X128125000Y-102058789D01*
X127625000Y-102058789D01*
X127625000Y-101530000D01*
X127125000Y-101530000D01*
X127125000Y-102058789D01*
X126625000Y-102058789D01*
X126625000Y-101404000D01*
X126644685Y-101336961D01*
X126697489Y-101291206D01*
X126749000Y-101280000D01*
X126875000Y-101280000D01*
X126875000Y-101224500D01*
X126894685Y-101157461D01*
X126947489Y-101111706D01*
X126999000Y-101100500D01*
X127109682Y-101100500D01*
X127109690Y-101100500D01*
X127145993Y-101097643D01*
X127145995Y-101097642D01*
X127145997Y-101097642D01*
X127301389Y-101052496D01*
X127301389Y-101052495D01*
X127301395Y-101052494D01*
X127310233Y-101047267D01*
X127326132Y-101042917D01*
X127338417Y-101035023D01*
X127373352Y-101030000D01*
X127376648Y-101030000D01*
X127439766Y-101047267D01*
G37*
%TD.AperFunction*%
%TA.AperFunction,Conductor*%
G36*
X132787622Y-117489123D02*
G01*
X132860812Y-117532408D01*
X133014870Y-117577166D01*
X133014876Y-117577167D01*
X133050864Y-117579999D01*
X133050880Y-117580000D01*
X133121386Y-117580000D01*
X133132679Y-117583316D01*
X133144393Y-117582153D01*
X133165591Y-117592980D01*
X133188425Y-117599685D01*
X133196131Y-117608579D01*
X133206616Y-117613934D01*
X133218595Y-117634503D01*
X133234180Y-117652489D01*
X133236746Y-117665669D01*
X133241779Y-117674311D01*
X133242402Y-117694717D01*
X133245267Y-117709432D01*
X133239881Y-117832258D01*
X133229422Y-117862849D01*
X133220315Y-117893865D01*
X133218188Y-117895707D01*
X133217278Y-117898371D01*
X133191930Y-117918459D01*
X133167511Y-117939620D01*
X133164727Y-117940020D01*
X133162521Y-117941769D01*
X133130344Y-117944964D01*
X133098353Y-117949564D01*
X133093839Y-117948588D01*
X133092993Y-117948673D01*
X133092086Y-117948210D01*
X133081408Y-117945903D01*
X133070918Y-117942855D01*
X133070912Y-117942854D01*
X133050000Y-117941209D01*
X133050000Y-118596000D01*
X133047449Y-118604685D01*
X133048738Y-118613647D01*
X133037759Y-118637687D01*
X133030315Y-118663039D01*
X133023474Y-118668966D01*
X133019713Y-118677203D01*
X132997478Y-118691492D01*
X132977511Y-118708794D01*
X132966996Y-118711081D01*
X132960935Y-118714977D01*
X132926000Y-118720000D01*
X132724500Y-118720000D01*
X132657461Y-118700315D01*
X132611706Y-118647511D01*
X132600500Y-118596000D01*
X132600500Y-117595855D01*
X132620185Y-117528816D01*
X132672989Y-117483061D01*
X132742147Y-117473117D01*
X132787622Y-117489123D01*
G37*
%TD.AperFunction*%
%TA.AperFunction,Conductor*%
G36*
X138447924Y-61033970D02*
G01*
X138499402Y-61081212D01*
X138510636Y-61105391D01*
X138511809Y-61108847D01*
X138622191Y-61375336D01*
X138622199Y-61375352D01*
X138766420Y-61625148D01*
X138766431Y-61625164D01*
X138942024Y-61854002D01*
X138942030Y-61854009D01*
X139145990Y-62057969D01*
X139145996Y-62057974D01*
X139374844Y-62233575D01*
X139374851Y-62233579D01*
X139624647Y-62377800D01*
X139624663Y-62377808D01*
X139891139Y-62488185D01*
X139891145Y-62488186D01*
X139891155Y-62488191D01*
X140169783Y-62562849D01*
X140455772Y-62600500D01*
X140455779Y-62600500D01*
X140744221Y-62600500D01*
X140744228Y-62600500D01*
X141030217Y-62562849D01*
X141308845Y-62488191D01*
X141308857Y-62488185D01*
X141308860Y-62488185D01*
X141575336Y-62377808D01*
X141575339Y-62377806D01*
X141575345Y-62377804D01*
X141825156Y-62233575D01*
X142054004Y-62057974D01*
X142257974Y-61854004D01*
X142277123Y-61829047D01*
X142333550Y-61787844D01*
X142403296Y-61783689D01*
X142464217Y-61817900D01*
X142496971Y-61879617D01*
X142499500Y-61904533D01*
X142499500Y-114807786D01*
X142479815Y-114874825D01*
X142427011Y-114920580D01*
X142357853Y-114930524D01*
X142294297Y-114901499D01*
X142287819Y-114895467D01*
X142144068Y-114751716D01*
X142144066Y-114751714D01*
X141959038Y-114617283D01*
X141755255Y-114513450D01*
X141537748Y-114442778D01*
X141368326Y-114415944D01*
X141311854Y-114407000D01*
X140988146Y-114407000D01*
X140912849Y-114418926D01*
X140762253Y-114442778D01*
X140762250Y-114442778D01*
X140544744Y-114513450D01*
X140340961Y-114617283D01*
X140235396Y-114693980D01*
X140155934Y-114751714D01*
X140155932Y-114751716D01*
X140155931Y-114751716D01*
X139994216Y-114913431D01*
X139994216Y-114913432D01*
X139994214Y-114913434D01*
X139966984Y-114950913D01*
X139859781Y-115098463D01*
X139858669Y-115100280D01*
X139858065Y-115100826D01*
X139856919Y-115102404D01*
X139856587Y-115102163D01*
X139806862Y-115147160D01*
X139752936Y-115159500D01*
X138989019Y-115159500D01*
X138921980Y-115139815D01*
X138901338Y-115123181D01*
X137686819Y-113908662D01*
X137653334Y-113847339D01*
X137650500Y-113820981D01*
X137650500Y-113484313D01*
X137650499Y-113484298D01*
X137650370Y-113482664D01*
X137647598Y-113447431D01*
X137601744Y-113289602D01*
X137518081Y-113148135D01*
X137518079Y-113148133D01*
X137518076Y-113148129D01*
X137401870Y-113031923D01*
X137401862Y-113031917D01*
X137266419Y-112951817D01*
X137260398Y-112948256D01*
X137260397Y-112948255D01*
X137260396Y-112948255D01*
X137260393Y-112948254D01*
X137102573Y-112902402D01*
X137102567Y-112902401D01*
X137065701Y-112899500D01*
X137065694Y-112899500D01*
X136634306Y-112899500D01*
X136634298Y-112899500D01*
X136597432Y-112902401D01*
X136597426Y-112902402D01*
X136439607Y-112948254D01*
X136439594Y-112948259D01*
X136437620Y-112949427D01*
X136435872Y-112949870D01*
X136432441Y-112951355D01*
X136432201Y-112950801D01*
X136369895Y-112966603D01*
X136317601Y-112951248D01*
X136317356Y-112951816D01*
X136312758Y-112949826D01*
X136311398Y-112949427D01*
X136310203Y-112948720D01*
X136310193Y-112948716D01*
X136152494Y-112902900D01*
X136152497Y-112902900D01*
X136150000Y-112902703D01*
X136150000Y-113168184D01*
X136132733Y-113231304D01*
X136098254Y-113289605D01*
X136098254Y-113289606D01*
X136052402Y-113447426D01*
X136052401Y-113447432D01*
X136049500Y-113484298D01*
X136049500Y-113938500D01*
X136046949Y-113947185D01*
X136048238Y-113956147D01*
X136037259Y-113980187D01*
X136029815Y-114005539D01*
X136022974Y-114011466D01*
X136019213Y-114019703D01*
X135996978Y-114033992D01*
X135977011Y-114051294D01*
X135966496Y-114053581D01*
X135960435Y-114057477D01*
X135925500Y-114062500D01*
X135874500Y-114062500D01*
X135807461Y-114042815D01*
X135761706Y-113990011D01*
X135750500Y-113938500D01*
X135750500Y-113484313D01*
X135750499Y-113484298D01*
X135750370Y-113482664D01*
X135747598Y-113447431D01*
X135701744Y-113289602D01*
X135667267Y-113231304D01*
X135650000Y-113168184D01*
X135650000Y-112902703D01*
X135647504Y-112902900D01*
X135489806Y-112948716D01*
X135489791Y-112948722D01*
X135488599Y-112949428D01*
X135487543Y-112949695D01*
X135482641Y-112951817D01*
X135482298Y-112951025D01*
X135420873Y-112966603D01*
X135367710Y-112950992D01*
X135367554Y-112951353D01*
X135364630Y-112950087D01*
X135362377Y-112949426D01*
X135360399Y-112948256D01*
X135360393Y-112948254D01*
X135202573Y-112902402D01*
X135202567Y-112902401D01*
X135165701Y-112899500D01*
X135165694Y-112899500D01*
X134734306Y-112899500D01*
X134734298Y-112899500D01*
X134697432Y-112902401D01*
X134697426Y-112902402D01*
X134539606Y-112948254D01*
X134539603Y-112948255D01*
X134398137Y-113031917D01*
X134398129Y-113031923D01*
X134281923Y-113148129D01*
X134281916Y-113148138D01*
X134268610Y-113170639D01*
X134265138Y-113173880D01*
X134263632Y-113178384D01*
X134239846Y-113197495D01*
X134217541Y-113218322D01*
X134212868Y-113219171D01*
X134209166Y-113222147D01*
X134178817Y-113225365D01*
X134148799Y-113230826D01*
X134144409Y-113229015D01*
X134139686Y-113229516D01*
X134112421Y-113215819D01*
X134084210Y-113204181D01*
X134080320Y-113199692D01*
X134077252Y-113198151D01*
X134055145Y-113170638D01*
X134041838Y-113148137D01*
X134017767Y-113107434D01*
X134000500Y-113044314D01*
X134000500Y-110341518D01*
X134020185Y-110274479D01*
X134036819Y-110253837D01*
X134290157Y-110000499D01*
X134544113Y-109746543D01*
X134575547Y-109699500D01*
X134620775Y-109631811D01*
X134673580Y-109504328D01*
X134700500Y-109368993D01*
X134700500Y-101120525D01*
X137624500Y-101120525D01*
X137624500Y-101379474D01*
X137624501Y-101379491D01*
X137658299Y-101636217D01*
X137658300Y-101636222D01*
X137658301Y-101636228D01*
X137675226Y-101699393D01*
X137725324Y-101886364D01*
X137824423Y-102125609D01*
X137824427Y-102125619D01*
X137953906Y-102349883D01*
X138111551Y-102555331D01*
X138111557Y-102555338D01*
X138294661Y-102738442D01*
X138294668Y-102738448D01*
X138500116Y-102896093D01*
X138724380Y-103025572D01*
X138724381Y-103025572D01*
X138724384Y-103025574D01*
X138963634Y-103124675D01*
X139213772Y-103191699D01*
X139470519Y-103225500D01*
X139470526Y-103225500D01*
X139729474Y-103225500D01*
X139729481Y-103225500D01*
X139986228Y-103191699D01*
X140236366Y-103124675D01*
X140475616Y-103025574D01*
X140699884Y-102896093D01*
X140905333Y-102738447D01*
X141088447Y-102555333D01*
X141246093Y-102349884D01*
X141375574Y-102125616D01*
X141474675Y-101886366D01*
X141541699Y-101636228D01*
X141575500Y-101379481D01*
X141575500Y-101120519D01*
X141541699Y-100863772D01*
X141474675Y-100613634D01*
X141375574Y-100374384D01*
X141246093Y-100150116D01*
X141154698Y-100031007D01*
X141088448Y-99944668D01*
X141088442Y-99944661D01*
X140905338Y-99761557D01*
X140905331Y-99761551D01*
X140699883Y-99603906D01*
X140475619Y-99474427D01*
X140475607Y-99474422D01*
X140236364Y-99375324D01*
X140111297Y-99341813D01*
X139986228Y-99308301D01*
X139986222Y-99308300D01*
X139986217Y-99308299D01*
X139729491Y-99274501D01*
X139729486Y-99274500D01*
X139729481Y-99274500D01*
X139470519Y-99274500D01*
X139470513Y-99274500D01*
X139470508Y-99274501D01*
X139213782Y-99308299D01*
X139213775Y-99308300D01*
X139213772Y-99308301D01*
X139160908Y-99322465D01*
X138963635Y-99375324D01*
X138724393Y-99474422D01*
X138724380Y-99474427D01*
X138500116Y-99603906D01*
X138294668Y-99761551D01*
X138294661Y-99761557D01*
X138111557Y-99944661D01*
X138111551Y-99944668D01*
X137953906Y-100150116D01*
X137824427Y-100374380D01*
X137824423Y-100374390D01*
X137725324Y-100613635D01*
X137658302Y-100863769D01*
X137658299Y-100863782D01*
X137624501Y-101120508D01*
X137624500Y-101120525D01*
X134700500Y-101120525D01*
X134700500Y-100031007D01*
X134700500Y-100031004D01*
X134700499Y-100031002D01*
X134673582Y-99895679D01*
X134673579Y-99895670D01*
X134670798Y-99888955D01*
X134670781Y-99888916D01*
X134620778Y-99768196D01*
X134620777Y-99768195D01*
X134620775Y-99768189D01*
X134544114Y-99653457D01*
X134544112Y-99653454D01*
X134544111Y-99653453D01*
X129662121Y-94771464D01*
X129646393Y-94742660D01*
X129629654Y-94714448D01*
X129629735Y-94712155D01*
X129628636Y-94710141D01*
X129630977Y-94677405D01*
X129632148Y-94644623D01*
X129633456Y-94642738D01*
X129633620Y-94640449D01*
X129653288Y-94614175D01*
X129671997Y-94587231D01*
X129674628Y-94585669D01*
X129675492Y-94584516D01*
X129702350Y-94569222D01*
X129724764Y-94559938D01*
X129772216Y-94550499D01*
X129935466Y-94550499D01*
X129959652Y-94552881D01*
X129990045Y-94558925D01*
X129990051Y-94558926D01*
X129990091Y-94558934D01*
X130080437Y-94576905D01*
X130098506Y-94580500D01*
X130098507Y-94580500D01*
X131223084Y-94580500D01*
X131286204Y-94597767D01*
X131311105Y-94612494D01*
X131316891Y-94614175D01*
X131466502Y-94657642D01*
X131466505Y-94657642D01*
X131466507Y-94657643D01*
X131502810Y-94660500D01*
X131502818Y-94660500D01*
X131972182Y-94660500D01*
X131972190Y-94660500D01*
X132008493Y-94657643D01*
X132008495Y-94657642D01*
X132008497Y-94657642D01*
X132067674Y-94640449D01*
X132163895Y-94612494D01*
X132303187Y-94530117D01*
X132417617Y-94415687D01*
X132499994Y-94276395D01*
X132540173Y-94138099D01*
X132545142Y-94120997D01*
X132545143Y-94120991D01*
X132546643Y-94101935D01*
X132548000Y-94084690D01*
X132548000Y-93675310D01*
X132545143Y-93639007D01*
X132499994Y-93483605D01*
X132487589Y-93462630D01*
X132470406Y-93394909D01*
X132487591Y-93336384D01*
X132499532Y-93316194D01*
X132542004Y-93170000D01*
X132235852Y-93170000D01*
X132172733Y-93152732D01*
X132163895Y-93147506D01*
X132163893Y-93147505D01*
X132163889Y-93147503D01*
X132008497Y-93102357D01*
X132008491Y-93102356D01*
X131972197Y-93099500D01*
X131972190Y-93099500D01*
X131861500Y-93099500D01*
X131794461Y-93079815D01*
X131748706Y-93027011D01*
X131737500Y-92975500D01*
X131737500Y-92920000D01*
X131611500Y-92920000D01*
X131544461Y-92900315D01*
X131498706Y-92847511D01*
X131487500Y-92796000D01*
X131487500Y-92670000D01*
X131987500Y-92670000D01*
X132542004Y-92670000D01*
X132499531Y-92523804D01*
X132417221Y-92384625D01*
X132412436Y-92378456D01*
X132414409Y-92376924D01*
X132386798Y-92326383D01*
X132391768Y-92256690D01*
X132413717Y-92222537D01*
X132412436Y-92221544D01*
X132417221Y-92215374D01*
X132499531Y-92076195D01*
X132542004Y-91930000D01*
X131987500Y-91930000D01*
X131987500Y-92670000D01*
X131487500Y-92670000D01*
X131487500Y-91804000D01*
X131507185Y-91736961D01*
X131559989Y-91691206D01*
X131611500Y-91680000D01*
X131737500Y-91680000D01*
X131737500Y-91624500D01*
X131757185Y-91557461D01*
X131809989Y-91511706D01*
X131861500Y-91500500D01*
X131972182Y-91500500D01*
X131972190Y-91500500D01*
X132008493Y-91497643D01*
X132008495Y-91497642D01*
X132008497Y-91497642D01*
X132163889Y-91452496D01*
X132163889Y-91452495D01*
X132163895Y-91452494D01*
X132172733Y-91447267D01*
X132235852Y-91430000D01*
X132542004Y-91430000D01*
X132499531Y-91283803D01*
X132487590Y-91263613D01*
X132470406Y-91195889D01*
X132487589Y-91137369D01*
X132499994Y-91116395D01*
X132545143Y-90960993D01*
X132548000Y-90924690D01*
X132548000Y-90515310D01*
X132545143Y-90479007D01*
X132499994Y-90323605D01*
X132417617Y-90184313D01*
X132417615Y-90184311D01*
X132417612Y-90184307D01*
X132303192Y-90069887D01*
X132303184Y-90069881D01*
X132163893Y-89987505D01*
X132163890Y-89987504D01*
X132008497Y-89942357D01*
X132008491Y-89942356D01*
X131972197Y-89939500D01*
X131972190Y-89939500D01*
X131502810Y-89939500D01*
X131502802Y-89939500D01*
X131466508Y-89942356D01*
X131466502Y-89942357D01*
X131311109Y-89987504D01*
X131311106Y-89987505D01*
X131286205Y-90002232D01*
X131223084Y-90019500D01*
X130098503Y-90019500D01*
X129990090Y-90041064D01*
X129990091Y-90041065D01*
X129959666Y-90047117D01*
X129935474Y-90049500D01*
X128889629Y-90049500D01*
X128889623Y-90049501D01*
X128830016Y-90055908D01*
X128695171Y-90106202D01*
X128695164Y-90106206D01*
X128579955Y-90192452D01*
X128579952Y-90192455D01*
X128493706Y-90307664D01*
X128493702Y-90307671D01*
X128443408Y-90442517D01*
X128437001Y-90502116D01*
X128437000Y-90502135D01*
X128437000Y-91408480D01*
X128417315Y-91475519D01*
X128400681Y-91496161D01*
X127604841Y-92292000D01*
X127543518Y-92325485D01*
X127507051Y-92326111D01*
X127506915Y-92327843D01*
X127464442Y-92324500D01*
X127464435Y-92324500D01*
X126336999Y-92324500D01*
X126269960Y-92304815D01*
X126224205Y-92252011D01*
X126212999Y-92200500D01*
X126212999Y-91073077D01*
X126212998Y-91073052D01*
X126212716Y-91069468D01*
X126210154Y-91036902D01*
X126165181Y-90882106D01*
X126165179Y-90882102D01*
X126155266Y-90865339D01*
X126138000Y-90802221D01*
X126138000Y-88241519D01*
X126157685Y-88174480D01*
X126174319Y-88153838D01*
X135024112Y-79304045D01*
X135024114Y-79304043D01*
X135100775Y-79189311D01*
X135153580Y-79061829D01*
X135159551Y-79031811D01*
X135180500Y-78926493D01*
X135180500Y-61823547D01*
X135200185Y-61756508D01*
X135231614Y-61723230D01*
X135359792Y-61630104D01*
X135510104Y-61479792D01*
X135510106Y-61479788D01*
X135510109Y-61479786D01*
X135635048Y-61307820D01*
X135635047Y-61307820D01*
X135635051Y-61307816D01*
X135639514Y-61299054D01*
X135687488Y-61248259D01*
X135755308Y-61231463D01*
X135821444Y-61253999D01*
X135860486Y-61299056D01*
X135864951Y-61307820D01*
X135989890Y-61479786D01*
X136140213Y-61630109D01*
X136312179Y-61755048D01*
X136312181Y-61755049D01*
X136312184Y-61755051D01*
X136501588Y-61851557D01*
X136703757Y-61917246D01*
X136913713Y-61950500D01*
X136913714Y-61950500D01*
X137126286Y-61950500D01*
X137126287Y-61950500D01*
X137336243Y-61917246D01*
X137538412Y-61851557D01*
X137727816Y-61755051D01*
X137814471Y-61692093D01*
X137899786Y-61630109D01*
X137899788Y-61630106D01*
X137899792Y-61630104D01*
X138050104Y-61479792D01*
X138050106Y-61479788D01*
X138050109Y-61479786D01*
X138175048Y-61307820D01*
X138175047Y-61307820D01*
X138175051Y-61307816D01*
X138271557Y-61118412D01*
X138275286Y-61106932D01*
X138314719Y-61049260D01*
X138379077Y-61022059D01*
X138447924Y-61033970D01*
G37*
%TD.AperFunction*%
%TA.AperFunction,Conductor*%
G36*
X130843203Y-99096805D02*
G01*
X130849681Y-99102837D01*
X132563181Y-100816337D01*
X132596666Y-100877660D01*
X132599500Y-100904018D01*
X132599500Y-104530455D01*
X132579815Y-104597494D01*
X132527011Y-104643249D01*
X132457853Y-104653193D01*
X132402617Y-104630775D01*
X132381194Y-104615211D01*
X132172150Y-104508697D01*
X131949027Y-104436201D01*
X131786472Y-104410455D01*
X131717305Y-104399500D01*
X131482695Y-104399500D01*
X131413528Y-104410455D01*
X131250972Y-104436201D01*
X131237111Y-104440705D01*
X131167270Y-104442700D01*
X131111112Y-104410455D01*
X130674319Y-103973662D01*
X130640834Y-103912339D01*
X130638000Y-103885981D01*
X130638000Y-101855684D01*
X130655268Y-101792563D01*
X130710369Y-101699393D01*
X130755165Y-101545204D01*
X130758000Y-101509181D01*
X130757999Y-101110820D01*
X130755165Y-101074796D01*
X130710369Y-100920607D01*
X130676369Y-100863117D01*
X130659188Y-100795398D01*
X130676369Y-100736882D01*
X130710369Y-100679393D01*
X130729474Y-100613635D01*
X130755164Y-100525208D01*
X130755165Y-100525202D01*
X130757999Y-100489188D01*
X130758000Y-100489181D01*
X130757999Y-100090820D01*
X130755165Y-100054796D01*
X130710369Y-99900607D01*
X130703455Y-99888916D01*
X130655268Y-99807434D01*
X130638000Y-99744314D01*
X130638000Y-99190518D01*
X130657685Y-99123479D01*
X130710489Y-99077724D01*
X130779647Y-99067780D01*
X130843203Y-99096805D01*
G37*
%TD.AperFunction*%
%TA.AperFunction,Conductor*%
G36*
X128525520Y-97820185D02*
G01*
X128546162Y-97836819D01*
X129200681Y-98491338D01*
X129234166Y-98552661D01*
X129237000Y-98579019D01*
X129237000Y-99395500D01*
X129217315Y-99462539D01*
X129164511Y-99508294D01*
X129113000Y-99519500D01*
X128688330Y-99519500D01*
X128688308Y-99519501D01*
X128652294Y-99522335D01*
X128498111Y-99567129D01*
X128498103Y-99567132D01*
X128445641Y-99598157D01*
X128377917Y-99615337D01*
X128319404Y-99598156D01*
X128301395Y-99587506D01*
X128301390Y-99587504D01*
X128145997Y-99542357D01*
X128145991Y-99542356D01*
X128109697Y-99539500D01*
X128109690Y-99539500D01*
X127899632Y-99539500D01*
X127832593Y-99519815D01*
X127786838Y-99467011D01*
X127776894Y-99397853D01*
X127805919Y-99334297D01*
X127811951Y-99327819D01*
X127908121Y-99231648D01*
X127908126Y-99231643D01*
X127990181Y-99092894D01*
X128035154Y-98938098D01*
X128038000Y-98901935D01*
X128037999Y-98498066D01*
X128035154Y-98461902D01*
X127998167Y-98334593D01*
X127998167Y-98265406D01*
X128035154Y-98138098D01*
X128038000Y-98101935D01*
X128037999Y-97924499D01*
X128057683Y-97857461D01*
X128110487Y-97811706D01*
X128161999Y-97800500D01*
X128458481Y-97800500D01*
X128525520Y-97820185D01*
G37*
%TD.AperFunction*%
%TA.AperFunction,Conductor*%
G36*
X122247704Y-92591418D02*
G01*
X122250578Y-92590896D01*
X122280358Y-92603181D01*
X122310689Y-92614107D01*
X122313496Y-92616851D01*
X122315167Y-92617541D01*
X122320523Y-92623722D01*
X122335925Y-92638781D01*
X122340442Y-92644676D01*
X122391874Y-92731643D01*
X122456960Y-92796729D01*
X122461925Y-92803208D01*
X122471680Y-92828490D01*
X122484666Y-92852272D01*
X122484070Y-92860601D01*
X122487077Y-92868394D01*
X122487500Y-92878631D01*
X122487500Y-92968674D01*
X122602008Y-92935407D01*
X122671198Y-92935407D01*
X122799397Y-92972653D01*
X122799400Y-92972653D01*
X122799402Y-92972654D01*
X122835565Y-92975500D01*
X123239434Y-92975499D01*
X123275598Y-92972654D01*
X123285400Y-92969806D01*
X123355267Y-92970002D01*
X123407679Y-93001200D01*
X124700681Y-94294202D01*
X124734166Y-94355525D01*
X124737000Y-94381883D01*
X124737000Y-99044367D01*
X124717315Y-99111406D01*
X124664511Y-99157161D01*
X124595353Y-99167105D01*
X124531797Y-99138080D01*
X124517360Y-99123290D01*
X124511194Y-99115818D01*
X124483126Y-99068357D01*
X124419636Y-99004867D01*
X124415860Y-99000291D01*
X124404353Y-98973400D01*
X124390334Y-98947726D01*
X124389316Y-98938259D01*
X124388373Y-98936055D01*
X124388804Y-98933496D01*
X124387500Y-98921368D01*
X124387500Y-98831324D01*
X124387498Y-98831323D01*
X124272989Y-98864592D01*
X124203799Y-98864592D01*
X124075602Y-98827346D01*
X124075596Y-98827345D01*
X124039435Y-98824500D01*
X123635577Y-98824500D01*
X123635552Y-98824501D01*
X123599401Y-98827346D01*
X123472095Y-98864332D01*
X123402905Y-98864332D01*
X123275602Y-98827346D01*
X123275596Y-98827345D01*
X123239435Y-98824500D01*
X122835577Y-98824500D01*
X122835552Y-98824501D01*
X122799401Y-98827346D01*
X122672095Y-98864332D01*
X122602905Y-98864332D01*
X122475602Y-98827346D01*
X122475596Y-98827345D01*
X122439435Y-98824500D01*
X122035577Y-98824500D01*
X122035552Y-98824501D01*
X121999401Y-98827346D01*
X121872095Y-98864332D01*
X121802905Y-98864332D01*
X121675602Y-98827346D01*
X121675596Y-98827345D01*
X121639435Y-98824500D01*
X121235577Y-98824500D01*
X121235552Y-98824501D01*
X121199401Y-98827346D01*
X121072095Y-98864332D01*
X121002905Y-98864332D01*
X120875602Y-98827346D01*
X120875596Y-98827345D01*
X120839435Y-98824500D01*
X120435577Y-98824500D01*
X120435552Y-98824501D01*
X120399401Y-98827346D01*
X120272095Y-98864332D01*
X120202905Y-98864332D01*
X120075602Y-98827346D01*
X120075596Y-98827345D01*
X120039442Y-98824500D01*
X120039435Y-98824500D01*
X119836999Y-98824500D01*
X119769960Y-98804815D01*
X119724205Y-98752011D01*
X119712999Y-98700500D01*
X119712999Y-98498077D01*
X119712998Y-98498052D01*
X119710154Y-98461902D01*
X119710153Y-98461897D01*
X119673167Y-98334593D01*
X119673167Y-98265406D01*
X119710154Y-98138098D01*
X119713000Y-98101935D01*
X119712999Y-97698066D01*
X119710154Y-97661902D01*
X119673167Y-97534593D01*
X119673167Y-97465406D01*
X119710154Y-97338098D01*
X119713000Y-97301935D01*
X119712999Y-96898066D01*
X119710154Y-96861902D01*
X119673167Y-96734593D01*
X119673167Y-96665406D01*
X119710154Y-96538098D01*
X119713000Y-96501935D01*
X119712999Y-96098066D01*
X119710154Y-96061902D01*
X119673167Y-95934593D01*
X119673167Y-95865406D01*
X119710154Y-95738098D01*
X119713000Y-95701935D01*
X119712999Y-95298066D01*
X119710154Y-95261902D01*
X119673167Y-95134593D01*
X119673167Y-95065406D01*
X119710154Y-94938098D01*
X119713000Y-94901935D01*
X119712999Y-94498066D01*
X119710154Y-94461902D01*
X119673167Y-94334593D01*
X119673167Y-94265406D01*
X119710154Y-94138098D01*
X119713000Y-94101935D01*
X119712999Y-93698066D01*
X119710154Y-93661902D01*
X119673167Y-93534593D01*
X119673167Y-93465406D01*
X119710154Y-93338098D01*
X119713000Y-93301935D01*
X119712999Y-93099498D01*
X119732683Y-93032460D01*
X119785487Y-92986705D01*
X119836999Y-92975499D01*
X120039422Y-92975499D01*
X120039434Y-92975499D01*
X120075598Y-92972654D01*
X120202906Y-92935667D01*
X120272094Y-92935667D01*
X120399402Y-92972654D01*
X120435565Y-92975500D01*
X120839434Y-92975499D01*
X120875598Y-92972654D01*
X121002906Y-92935667D01*
X121072094Y-92935667D01*
X121199402Y-92972654D01*
X121235565Y-92975500D01*
X121639434Y-92975499D01*
X121675598Y-92972654D01*
X121803801Y-92935407D01*
X121872990Y-92935407D01*
X121987499Y-92968674D01*
X121987500Y-92968674D01*
X121987500Y-92878631D01*
X122007185Y-92811592D01*
X122023814Y-92790954D01*
X122083126Y-92731643D01*
X122130769Y-92651082D01*
X122154317Y-92629094D01*
X122176852Y-92606047D01*
X122179700Y-92605393D01*
X122181836Y-92603400D01*
X122213531Y-92597634D01*
X122244954Y-92590428D01*
X122247704Y-92591418D01*
G37*
%TD.AperFunction*%
%TA.AperFunction,Conductor*%
G36*
X122259185Y-87902550D02*
G01*
X122268147Y-87901262D01*
X122292187Y-87912240D01*
X122317539Y-87919685D01*
X122323466Y-87926525D01*
X122331703Y-87930287D01*
X122345992Y-87952521D01*
X122363294Y-87972489D01*
X122365581Y-87983003D01*
X122369477Y-87989065D01*
X122374500Y-88024000D01*
X122374500Y-88134697D01*
X122377356Y-88170991D01*
X122377357Y-88170997D01*
X122422504Y-88326390D01*
X122422504Y-88326392D01*
X122422506Y-88326395D01*
X122427730Y-88335229D01*
X122432080Y-88351130D01*
X122439977Y-88363417D01*
X122445000Y-88398352D01*
X122445000Y-88501645D01*
X122427734Y-88564763D01*
X122422507Y-88573600D01*
X122422504Y-88573608D01*
X122377357Y-88729002D01*
X122377356Y-88729008D01*
X122374500Y-88765302D01*
X122374500Y-89234697D01*
X122377356Y-89270991D01*
X122377357Y-89270997D01*
X122422503Y-89426389D01*
X122422505Y-89426393D01*
X122422506Y-89426395D01*
X122427732Y-89435233D01*
X122432082Y-89451132D01*
X122439977Y-89463417D01*
X122445000Y-89498352D01*
X122445000Y-89601645D01*
X122427734Y-89664763D01*
X122422507Y-89673600D01*
X122422504Y-89673608D01*
X122377357Y-89829002D01*
X122377356Y-89829008D01*
X122374500Y-89865302D01*
X122374500Y-89962963D01*
X122371458Y-89990262D01*
X122369121Y-90000613D01*
X122363920Y-90013172D01*
X122346341Y-90101544D01*
X122346336Y-90101570D01*
X122340872Y-90129043D01*
X122337000Y-90148507D01*
X122337000Y-90719367D01*
X122317315Y-90786406D01*
X122264511Y-90832161D01*
X122195353Y-90842105D01*
X122131797Y-90813080D01*
X122106268Y-90782488D01*
X122083127Y-90743359D01*
X122083126Y-90743357D01*
X122083124Y-90743355D01*
X122083121Y-90743351D01*
X121981319Y-90641549D01*
X121947834Y-90580226D01*
X121945000Y-90553868D01*
X121945000Y-88024000D01*
X121964685Y-87956961D01*
X122017489Y-87911206D01*
X122069000Y-87900000D01*
X122250500Y-87900000D01*
X122259185Y-87902550D01*
G37*
%TD.AperFunction*%
%TA.AperFunction,Conductor*%
G36*
X117371069Y-77872100D02*
G01*
X117427002Y-77913972D01*
X117451419Y-77979436D01*
X117451451Y-77979895D01*
X117452399Y-77993886D01*
X117452399Y-77993887D01*
X117498360Y-78178696D01*
X117582967Y-78349292D01*
X117582969Y-78349295D01*
X117702277Y-78497721D01*
X117702278Y-78497722D01*
X117771884Y-78553673D01*
X117811803Y-78611016D01*
X117814383Y-78680838D01*
X117778804Y-78740971D01*
X117771885Y-78746967D01*
X117702631Y-78802635D01*
X117583392Y-78950974D01*
X117583390Y-78950977D01*
X117498831Y-79121476D01*
X117452897Y-79306175D01*
X117450000Y-79348903D01*
X117450000Y-79550000D01*
X120450000Y-79550000D01*
X120450000Y-79348903D01*
X120447102Y-79306175D01*
X120401168Y-79121476D01*
X120316609Y-78950977D01*
X120312989Y-78945314D01*
X120314378Y-78944425D01*
X120290923Y-78887603D01*
X120303413Y-78818859D01*
X120351087Y-78767780D01*
X120414229Y-78750500D01*
X122638771Y-78750500D01*
X122705810Y-78770185D01*
X122751565Y-78822989D01*
X122761509Y-78892147D01*
X122732484Y-78955703D01*
X122726453Y-78962179D01*
X121646486Y-80042146D01*
X120575451Y-81113181D01*
X120548523Y-81127884D01*
X120522705Y-81144477D01*
X120516504Y-81145368D01*
X120514128Y-81146666D01*
X120487770Y-81149500D01*
X120279790Y-81149500D01*
X120230539Y-81139299D01*
X120226395Y-81137505D01*
X120123035Y-81107476D01*
X120064150Y-81069869D01*
X120034944Y-81006397D01*
X120044690Y-80937210D01*
X120079944Y-80891752D01*
X120197369Y-80797364D01*
X120316607Y-80649025D01*
X120316609Y-80649022D01*
X120401168Y-80478523D01*
X120447102Y-80293824D01*
X120450000Y-80251096D01*
X120450000Y-80050000D01*
X119200000Y-80050000D01*
X119200000Y-81056000D01*
X119180315Y-81123039D01*
X119155190Y-81144809D01*
X119120000Y-81180000D01*
X119120000Y-81401645D01*
X119102734Y-81464763D01*
X119097507Y-81473600D01*
X119097504Y-81473608D01*
X119052357Y-81629002D01*
X119052356Y-81629008D01*
X119049500Y-81665302D01*
X119049500Y-82134697D01*
X119052356Y-82170991D01*
X119052357Y-82170994D01*
X119094576Y-82316309D01*
X119099500Y-82350905D01*
X119099500Y-85674684D01*
X119090061Y-85722136D01*
X119030264Y-85866498D01*
X119030261Y-85866510D01*
X118999500Y-86021153D01*
X118999500Y-86178846D01*
X119030261Y-86333489D01*
X119030264Y-86333501D01*
X119090602Y-86479172D01*
X119090609Y-86479185D01*
X119178211Y-86610289D01*
X119180053Y-86612534D01*
X119180650Y-86613939D01*
X119181595Y-86615354D01*
X119181326Y-86615533D01*
X119207367Y-86676843D01*
X119195577Y-86745711D01*
X119171882Y-86778881D01*
X115792181Y-90158583D01*
X115730858Y-90192068D01*
X115661166Y-90187084D01*
X115605233Y-90145212D01*
X115580816Y-90079748D01*
X115580500Y-90070902D01*
X115580500Y-82150000D01*
X118091210Y-82150000D01*
X118092854Y-82170910D01*
X118137968Y-82326195D01*
X118220278Y-82465374D01*
X118220285Y-82465383D01*
X118334616Y-82579714D01*
X118334625Y-82579721D01*
X118473804Y-82662031D01*
X118620000Y-82704504D01*
X118620000Y-82150000D01*
X118091210Y-82150000D01*
X115580500Y-82150000D01*
X115580500Y-80251096D01*
X117450000Y-80251096D01*
X117452897Y-80293824D01*
X117498831Y-80478523D01*
X117583390Y-80649022D01*
X117583392Y-80649025D01*
X117702632Y-80797366D01*
X117702633Y-80797367D01*
X117850974Y-80916607D01*
X117850977Y-80916609D01*
X118021476Y-81001168D01*
X118206175Y-81047102D01*
X118216411Y-81047796D01*
X118281966Y-81071968D01*
X118324046Y-81127745D01*
X118329291Y-81197417D01*
X118296035Y-81258865D01*
X118295709Y-81259193D01*
X118220282Y-81334620D01*
X118220278Y-81334625D01*
X118137968Y-81473804D01*
X118137966Y-81473809D01*
X118092855Y-81629081D01*
X118092854Y-81629087D01*
X118091209Y-81649999D01*
X118091210Y-81650000D01*
X118620000Y-81650000D01*
X118620000Y-81084000D01*
X118639685Y-81016961D01*
X118664809Y-80995190D01*
X118700000Y-80960000D01*
X118700000Y-80050000D01*
X117450000Y-80050000D01*
X117450000Y-80251096D01*
X115580500Y-80251096D01*
X115580500Y-79611518D01*
X115600185Y-79544479D01*
X115616814Y-79523842D01*
X117240056Y-77900599D01*
X117301377Y-77867116D01*
X117371069Y-77872100D01*
G37*
%TD.AperFunction*%
%TA.AperFunction,Conductor*%
G36*
X131015116Y-66422627D02*
G01*
X131087345Y-66530725D01*
X131179275Y-66622655D01*
X131287373Y-66694884D01*
X131344858Y-66718695D01*
X130738052Y-67325499D01*
X130738053Y-67325500D01*
X130819066Y-67384359D01*
X131028034Y-67490835D01*
X131251090Y-67563310D01*
X131482735Y-67600000D01*
X131717265Y-67600000D01*
X131948909Y-67563310D01*
X132171965Y-67490835D01*
X132380930Y-67384361D01*
X132461945Y-67325499D01*
X132461946Y-67325499D01*
X131855141Y-66718695D01*
X131912627Y-66694884D01*
X132020725Y-66622655D01*
X132112655Y-66530725D01*
X132184884Y-66422627D01*
X132208695Y-66365141D01*
X132815498Y-66971945D01*
X132865771Y-66967989D01*
X132934148Y-66982353D01*
X132983905Y-67031404D01*
X132999500Y-67091607D01*
X132999500Y-78358480D01*
X132979815Y-78425519D01*
X132963181Y-78446161D01*
X124093388Y-87315953D01*
X124093385Y-87315956D01*
X124051763Y-87378250D01*
X124043390Y-87385247D01*
X124038388Y-87394946D01*
X124017052Y-87407258D01*
X123998151Y-87423055D01*
X123987322Y-87424414D01*
X123977872Y-87429869D01*
X123953267Y-87428692D01*
X123928826Y-87431762D01*
X123918982Y-87427052D01*
X123908082Y-87426531D01*
X123888020Y-87412239D01*
X123865799Y-87401608D01*
X123858569Y-87391258D01*
X123851176Y-87385992D01*
X123840271Y-87365065D01*
X123833535Y-87355423D01*
X123829516Y-87345379D01*
X123828580Y-87340672D01*
X123801027Y-87274154D01*
X123775775Y-87213189D01*
X123699114Y-87098457D01*
X123699112Y-87098454D01*
X122983338Y-86382680D01*
X122949853Y-86321357D01*
X122954837Y-86251665D01*
X122983338Y-86207318D01*
X126416157Y-82774500D01*
X129944114Y-79246543D01*
X130020775Y-79131811D01*
X130073580Y-79004329D01*
X130094176Y-78900785D01*
X130100500Y-78868993D01*
X130100500Y-66962687D01*
X130120185Y-66895648D01*
X130172989Y-66849893D01*
X130242147Y-66839949D01*
X130305703Y-66868974D01*
X130324818Y-66889802D01*
X130384498Y-66971945D01*
X130384499Y-66971945D01*
X130991304Y-66365140D01*
X131015116Y-66422627D01*
G37*
%TD.AperFunction*%
%TA.AperFunction,Conductor*%
G36*
X116249791Y-65796724D02*
G01*
X116292161Y-65852280D01*
X116299990Y-65886923D01*
X116302402Y-65917569D01*
X116345031Y-66064299D01*
X116345439Y-66065852D01*
X116349500Y-66097328D01*
X116349500Y-73423918D01*
X116349500Y-73423920D01*
X116349499Y-73423920D01*
X116378340Y-73568907D01*
X116378343Y-73568917D01*
X116434913Y-73705490D01*
X116434914Y-73705492D01*
X116434915Y-73705494D01*
X116434916Y-73705495D01*
X116439407Y-73712216D01*
X116439409Y-73712222D01*
X116439410Y-73712222D01*
X116517046Y-73828414D01*
X116517052Y-73828421D01*
X117413181Y-74724548D01*
X117446666Y-74785871D01*
X117449500Y-74812229D01*
X117449500Y-75651122D01*
X117449572Y-75653220D01*
X117448692Y-75653249D01*
X117434277Y-75718172D01*
X117413382Y-75745959D01*
X114412181Y-78747161D01*
X114350858Y-78780646D01*
X114281166Y-78775662D01*
X114225233Y-78733790D01*
X114200816Y-78668326D01*
X114200500Y-78659480D01*
X114200500Y-66099784D01*
X114220185Y-66032745D01*
X114272989Y-65986990D01*
X114342147Y-65977046D01*
X114405703Y-66006071D01*
X114412181Y-66012103D01*
X114542214Y-66142136D01*
X114542218Y-66142139D01*
X114706079Y-66251628D01*
X114706092Y-66251635D01*
X114837997Y-66306271D01*
X114888165Y-66327051D01*
X114888169Y-66327051D01*
X114888170Y-66327052D01*
X115081456Y-66365500D01*
X115081459Y-66365500D01*
X115278543Y-66365500D01*
X115443546Y-66332678D01*
X115471835Y-66327051D01*
X115540460Y-66298626D01*
X115586898Y-66279391D01*
X115656367Y-66271922D01*
X115718846Y-66303197D01*
X115722031Y-66306271D01*
X115748438Y-66332678D01*
X115748447Y-66332685D01*
X115889801Y-66416281D01*
X116047514Y-66462100D01*
X116047511Y-66462100D01*
X116049998Y-66462295D01*
X116050000Y-66462295D01*
X116050000Y-65901090D01*
X116055623Y-65878640D01*
X116056084Y-65862726D01*
X116061643Y-65854601D01*
X116064640Y-65842640D01*
X116066629Y-65838918D01*
X116066632Y-65838914D01*
X116066635Y-65838907D01*
X116067012Y-65838202D01*
X116086318Y-65818546D01*
X116095544Y-65805066D01*
X116102404Y-65802169D01*
X116115973Y-65788356D01*
X116157393Y-65778956D01*
X116159913Y-65777893D01*
X116161141Y-65778106D01*
X116184110Y-65772894D01*
X116249791Y-65796724D01*
G37*
%TD.AperFunction*%
%TA.AperFunction,Conductor*%
G36*
X122839924Y-59720185D02*
G01*
X122885679Y-59772989D01*
X122895623Y-59842147D01*
X122887446Y-59871953D01*
X122857949Y-59943164D01*
X122857947Y-59943170D01*
X122819500Y-60136456D01*
X122819500Y-60136459D01*
X122819500Y-61133541D01*
X122819500Y-61133543D01*
X122819499Y-61133543D01*
X122857947Y-61326829D01*
X122857950Y-61326839D01*
X122933364Y-61508907D01*
X122933371Y-61508920D01*
X123042860Y-61672781D01*
X123042863Y-61672785D01*
X123182214Y-61812136D01*
X123182218Y-61812139D01*
X123346079Y-61921628D01*
X123346092Y-61921635D01*
X123439939Y-61960507D01*
X123528165Y-61997051D01*
X123528169Y-61997051D01*
X123528170Y-61997052D01*
X123721456Y-62035500D01*
X123721459Y-62035500D01*
X123918543Y-62035500D01*
X124048582Y-62009632D01*
X124111835Y-61997051D01*
X124293914Y-61921632D01*
X124457782Y-61812139D01*
X124597139Y-61672782D01*
X124706632Y-61508914D01*
X124782051Y-61326835D01*
X124820500Y-61133541D01*
X124820500Y-60136459D01*
X124820500Y-60136456D01*
X124782052Y-59943170D01*
X124782051Y-59943169D01*
X124782051Y-59943165D01*
X124752553Y-59871952D01*
X124745085Y-59802483D01*
X124776360Y-59740004D01*
X124836449Y-59704352D01*
X124867115Y-59700500D01*
X125386000Y-59700500D01*
X125453039Y-59720185D01*
X125498794Y-59772989D01*
X125510000Y-59824500D01*
X125510000Y-60350000D01*
X126426988Y-60350000D01*
X126394075Y-60407007D01*
X126360000Y-60534174D01*
X126360000Y-60665826D01*
X126394075Y-60792993D01*
X126426988Y-60850000D01*
X125510000Y-60850000D01*
X125510000Y-61497844D01*
X125516401Y-61557372D01*
X125516403Y-61557379D01*
X125566645Y-61692086D01*
X125566649Y-61692093D01*
X125652809Y-61807187D01*
X125652812Y-61807190D01*
X125767906Y-61893350D01*
X125767913Y-61893354D01*
X125902620Y-61943596D01*
X125902627Y-61943598D01*
X125962155Y-61949999D01*
X125962172Y-61950000D01*
X126610000Y-61950000D01*
X126610000Y-61033012D01*
X126667007Y-61065925D01*
X126794174Y-61100000D01*
X126925826Y-61100000D01*
X127052993Y-61065925D01*
X127110000Y-61033012D01*
X127110000Y-61950000D01*
X127757828Y-61950000D01*
X127757844Y-61949999D01*
X127817372Y-61943598D01*
X127817379Y-61943596D01*
X127952086Y-61893354D01*
X127952093Y-61893350D01*
X128067187Y-61807190D01*
X128067190Y-61807187D01*
X128153350Y-61692093D01*
X128153354Y-61692086D01*
X128202422Y-61560529D01*
X128244293Y-61504595D01*
X128309757Y-61480178D01*
X128378030Y-61495030D01*
X128406285Y-61516181D01*
X128520211Y-61630107D01*
X128578954Y-61672785D01*
X128648385Y-61723229D01*
X128691051Y-61778558D01*
X128699500Y-61823547D01*
X128699500Y-76166241D01*
X128679815Y-76233280D01*
X128627011Y-76279035D01*
X128557853Y-76288979D01*
X128494297Y-76259954D01*
X128456523Y-76201176D01*
X128455725Y-76198335D01*
X128454172Y-76192539D01*
X128425391Y-76085128D01*
X128400470Y-76041963D01*
X128346338Y-75948202D01*
X128346332Y-75948194D01*
X124931472Y-72533335D01*
X124924403Y-72526266D01*
X124924402Y-72526264D01*
X124864563Y-72466425D01*
X124842907Y-72426762D01*
X124831081Y-72405105D01*
X124836065Y-72335413D01*
X124876762Y-72280370D01*
X124905333Y-72258447D01*
X125088447Y-72075333D01*
X125246093Y-71869884D01*
X125375574Y-71645616D01*
X125474675Y-71406366D01*
X125541699Y-71156228D01*
X125575500Y-70899481D01*
X125575500Y-70640519D01*
X125541699Y-70383772D01*
X125474675Y-70133634D01*
X125375574Y-69894384D01*
X125246093Y-69670116D01*
X125088447Y-69464667D01*
X125088442Y-69464661D01*
X124905338Y-69281557D01*
X124905331Y-69281551D01*
X124699883Y-69123906D01*
X124475619Y-68994427D01*
X124475609Y-68994423D01*
X124236364Y-68895324D01*
X124069938Y-68850731D01*
X123986228Y-68828301D01*
X123986222Y-68828300D01*
X123986217Y-68828299D01*
X123729491Y-68794501D01*
X123729486Y-68794500D01*
X123729481Y-68794500D01*
X123470519Y-68794500D01*
X123470513Y-68794500D01*
X123470508Y-68794501D01*
X123213782Y-68828299D01*
X123213775Y-68828300D01*
X123213772Y-68828301D01*
X123160908Y-68842465D01*
X122963635Y-68895324D01*
X122724390Y-68994423D01*
X122724380Y-68994427D01*
X122500116Y-69123906D01*
X122294668Y-69281551D01*
X122294661Y-69281557D01*
X122111557Y-69464661D01*
X122111551Y-69464668D01*
X121953906Y-69670116D01*
X121824427Y-69894380D01*
X121824423Y-69894390D01*
X121725324Y-70133635D01*
X121658302Y-70383769D01*
X121658299Y-70383782D01*
X121624501Y-70640508D01*
X121624500Y-70640525D01*
X121624500Y-70899477D01*
X121624604Y-70901065D01*
X121624500Y-70901529D01*
X121624500Y-70903540D01*
X121624050Y-70903540D01*
X121609344Y-70969248D01*
X121559645Y-71018357D01*
X121491284Y-71032801D01*
X121425967Y-71007993D01*
X121413188Y-70996853D01*
X120861819Y-70445484D01*
X120828334Y-70384161D01*
X120825500Y-70357803D01*
X120825500Y-68852888D01*
X120845185Y-68785849D01*
X120897989Y-68740094D01*
X120967147Y-68730150D01*
X121030703Y-68759175D01*
X121037181Y-68765207D01*
X121122705Y-68850731D01*
X121122714Y-68850738D01*
X121260808Y-68932406D01*
X121260811Y-68932407D01*
X121414871Y-68977166D01*
X121414877Y-68977167D01*
X121450000Y-68979931D01*
X121450000Y-68979930D01*
X121950000Y-68979930D01*
X121985122Y-68977167D01*
X121985128Y-68977166D01*
X122139188Y-68932407D01*
X122139191Y-68932406D01*
X122277285Y-68850738D01*
X122277294Y-68850731D01*
X122390731Y-68737294D01*
X122390738Y-68737285D01*
X122472404Y-68599194D01*
X122512844Y-68460000D01*
X121950000Y-68460000D01*
X121950000Y-68979930D01*
X121450000Y-68979930D01*
X121450000Y-68334000D01*
X121469685Y-68266961D01*
X121522489Y-68221206D01*
X121574000Y-68210000D01*
X121700000Y-68210000D01*
X121700000Y-68084499D01*
X121702486Y-68076032D01*
X121701198Y-68067301D01*
X121712179Y-68043021D01*
X121719685Y-68017460D01*
X121726354Y-68011681D01*
X121729991Y-68003640D01*
X121752355Y-67989151D01*
X121772489Y-67971705D01*
X121782764Y-67969449D01*
X121788630Y-67965650D01*
X121822664Y-67960693D01*
X121823546Y-67960500D01*
X121823750Y-67960499D01*
X121949180Y-67960499D01*
X121955294Y-67960017D01*
X121959939Y-67960001D01*
X121959990Y-67960015D01*
X121960393Y-67960000D01*
X122512844Y-67960000D01*
X122472404Y-67820805D01*
X122438581Y-67763612D01*
X122421398Y-67695888D01*
X122438582Y-67637369D01*
X122472867Y-67579396D01*
X122472869Y-67579393D01*
X122517665Y-67425204D01*
X122520500Y-67389181D01*
X122520499Y-66990820D01*
X122517665Y-66954796D01*
X122472869Y-66800607D01*
X122391135Y-66662402D01*
X122387164Y-66655687D01*
X122389359Y-66654388D01*
X122368372Y-66600951D01*
X122376881Y-66543606D01*
X122458996Y-66339940D01*
X122466345Y-66330641D01*
X122469685Y-66319269D01*
X122486314Y-66298631D01*
X122568081Y-66216865D01*
X122651744Y-66075398D01*
X122697598Y-65917569D01*
X122700010Y-65886923D01*
X122700046Y-65886826D01*
X122700025Y-65886723D01*
X122700025Y-65886718D01*
X122712483Y-65854194D01*
X122724891Y-65821637D01*
X122724977Y-65821573D01*
X122725016Y-65821473D01*
X122753111Y-65800823D01*
X122781121Y-65780165D01*
X122781227Y-65780158D01*
X122781315Y-65780094D01*
X122816034Y-65777917D01*
X122850846Y-65775676D01*
X122850940Y-65775728D01*
X122851048Y-65775722D01*
X122881491Y-65792693D01*
X122911930Y-65809597D01*
X122912012Y-65809709D01*
X122912075Y-65809744D01*
X122932977Y-65838183D01*
X122935350Y-65842621D01*
X122950000Y-65901090D01*
X122950000Y-66462295D01*
X122950001Y-66462295D01*
X122952486Y-66462100D01*
X123110198Y-66416281D01*
X123251550Y-66332686D01*
X123251553Y-66332683D01*
X123277966Y-66306271D01*
X123339289Y-66272785D01*
X123408981Y-66277769D01*
X123413067Y-66279376D01*
X123528165Y-66327051D01*
X123528169Y-66327051D01*
X123528170Y-66327052D01*
X123721456Y-66365500D01*
X123721459Y-66365500D01*
X123918543Y-66365500D01*
X124083546Y-66332678D01*
X124111835Y-66327051D01*
X124293914Y-66251632D01*
X124457782Y-66142139D01*
X124597139Y-66002782D01*
X124706632Y-65838914D01*
X124782051Y-65656835D01*
X124817749Y-65477373D01*
X124820500Y-65463543D01*
X124820500Y-64166456D01*
X124782052Y-63973170D01*
X124782051Y-63973169D01*
X124782051Y-63973165D01*
X124754749Y-63907251D01*
X124706635Y-63791092D01*
X124706628Y-63791079D01*
X124597139Y-63627218D01*
X124597136Y-63627214D01*
X124457785Y-63487863D01*
X124457781Y-63487860D01*
X124293920Y-63378371D01*
X124293907Y-63378364D01*
X124111839Y-63302950D01*
X124111829Y-63302947D01*
X123918543Y-63264500D01*
X123918541Y-63264500D01*
X123721459Y-63264500D01*
X123721457Y-63264500D01*
X123528170Y-63302947D01*
X123528160Y-63302950D01*
X123346092Y-63378364D01*
X123346079Y-63378371D01*
X123182218Y-63487860D01*
X123182214Y-63487863D01*
X123042863Y-63627214D01*
X123042860Y-63627218D01*
X122933371Y-63791079D01*
X122933363Y-63791094D01*
X122929456Y-63800528D01*
X122885615Y-63854931D01*
X122819320Y-63876995D01*
X122751621Y-63859715D01*
X122746968Y-63856566D01*
X122743366Y-63854486D01*
X122743365Y-63854485D01*
X122649899Y-63800522D01*
X122612136Y-63778719D01*
X122517855Y-63753457D01*
X122465766Y-63739500D01*
X122314234Y-63739500D01*
X122167863Y-63778719D01*
X122036635Y-63854485D01*
X122036632Y-63854487D01*
X122017354Y-63873766D01*
X121956031Y-63907251D01*
X121886339Y-63902267D01*
X121841992Y-63873766D01*
X121664786Y-63696560D01*
X121657496Y-63689270D01*
X121657494Y-63689267D01*
X121570369Y-63602142D01*
X121519145Y-63567915D01*
X121467922Y-63533688D01*
X121467919Y-63533686D01*
X121467918Y-63533686D01*
X121467917Y-63533685D01*
X121382804Y-63498431D01*
X121382799Y-63498429D01*
X121375154Y-63495263D01*
X121354088Y-63486537D01*
X121293665Y-63474518D01*
X121289826Y-63473754D01*
X121289817Y-63473752D01*
X121233246Y-63462500D01*
X121233243Y-63462500D01*
X121233242Y-63462500D01*
X117973606Y-63462500D01*
X117850393Y-63462500D01*
X117850388Y-63462500D01*
X117729555Y-63486535D01*
X117729547Y-63486537D01*
X117615716Y-63533687D01*
X117513265Y-63602142D01*
X117513262Y-63602145D01*
X117199825Y-63915583D01*
X117138502Y-63949068D01*
X117068810Y-63944084D01*
X117024463Y-63915583D01*
X116963367Y-63854487D01*
X116963365Y-63854485D01*
X116892838Y-63813766D01*
X116832136Y-63778719D01*
X116737855Y-63753457D01*
X116685766Y-63739500D01*
X116534234Y-63739500D01*
X116387863Y-63778719D01*
X116296428Y-63831510D01*
X116256635Y-63854485D01*
X116256633Y-63854486D01*
X116249597Y-63858549D01*
X116248254Y-63856224D01*
X116195391Y-63876647D01*
X116126949Y-63862592D01*
X116076971Y-63813766D01*
X116070540Y-63800522D01*
X116066632Y-63791087D01*
X116066628Y-63791079D01*
X115957139Y-63627218D01*
X115957136Y-63627214D01*
X115817785Y-63487863D01*
X115817781Y-63487860D01*
X115653920Y-63378371D01*
X115653907Y-63378364D01*
X115583801Y-63349326D01*
X115529397Y-63305485D01*
X115507332Y-63239191D01*
X115524611Y-63171492D01*
X115543572Y-63147084D01*
X117210479Y-61480178D01*
X118953838Y-59736819D01*
X119015161Y-59703334D01*
X119041519Y-59700500D01*
X122772885Y-59700500D01*
X122839924Y-59720185D01*
G37*
%TD.AperFunction*%
%TA.AperFunction,Conductor*%
G36*
X119117539Y-66886186D02*
G01*
X119163294Y-66938990D01*
X119174500Y-66990501D01*
X119174500Y-70688330D01*
X119174499Y-70688348D01*
X119174499Y-70854054D01*
X119174498Y-70854054D01*
X119215423Y-71006785D01*
X119226873Y-71026616D01*
X119226875Y-71026619D01*
X119294479Y-71143714D01*
X119294481Y-71143717D01*
X119413349Y-71262585D01*
X119413355Y-71262590D01*
X120173916Y-72023151D01*
X120207401Y-72084474D01*
X120202417Y-72154166D01*
X120180000Y-72184157D01*
X120180000Y-72750000D01*
X120708790Y-72750000D01*
X120713465Y-72744943D01*
X120773427Y-72709077D01*
X120843260Y-72711323D01*
X120892200Y-72741435D01*
X121811119Y-73660354D01*
X121811129Y-73660365D01*
X121815459Y-73664695D01*
X121815460Y-73664696D01*
X121927264Y-73776500D01*
X121975768Y-73804503D01*
X122014075Y-73826619D01*
X122014077Y-73826621D01*
X122052131Y-73848591D01*
X122064195Y-73855557D01*
X122216923Y-73896480D01*
X123977685Y-73896480D01*
X124044724Y-73916165D01*
X124065366Y-73932799D01*
X125020386Y-74887819D01*
X125053871Y-74949142D01*
X125048887Y-75018834D01*
X125007015Y-75074767D01*
X124941551Y-75099184D01*
X124932706Y-75099500D01*
X124691971Y-75099500D01*
X124691965Y-75099500D01*
X124691964Y-75099501D01*
X124680316Y-75100536D01*
X124572584Y-75110113D01*
X124376954Y-75166089D01*
X124286772Y-75213196D01*
X124196593Y-75260302D01*
X124196591Y-75260303D01*
X124196590Y-75260304D01*
X124038890Y-75388890D01*
X123910304Y-75546590D01*
X123816089Y-75726954D01*
X123760114Y-75922583D01*
X123760113Y-75922586D01*
X123749500Y-76041966D01*
X123749500Y-76125500D01*
X123729815Y-76192539D01*
X123677011Y-76238294D01*
X123625500Y-76249500D01*
X120414869Y-76249500D01*
X120347830Y-76229815D01*
X120302075Y-76177011D01*
X120292131Y-76107853D01*
X120314746Y-76055809D01*
X120313412Y-76054956D01*
X120317027Y-76049299D01*
X120317030Y-76049296D01*
X120401641Y-75878693D01*
X120447600Y-75693889D01*
X120450500Y-75651123D01*
X120450499Y-74748878D01*
X120447600Y-74706111D01*
X120401641Y-74521307D01*
X120379782Y-74477232D01*
X120317032Y-74350707D01*
X120317030Y-74350704D01*
X120197722Y-74202278D01*
X120197721Y-74202277D01*
X120049295Y-74082969D01*
X120049292Y-74082967D01*
X119878696Y-73998360D01*
X119878689Y-73998357D01*
X119774073Y-73972340D01*
X119713766Y-73937058D01*
X119682108Y-73874772D01*
X119680000Y-73852006D01*
X119680000Y-73804503D01*
X120180000Y-73804503D01*
X120326195Y-73762031D01*
X120465374Y-73679721D01*
X120465383Y-73679714D01*
X120579714Y-73565383D01*
X120579721Y-73565374D01*
X120662031Y-73426195D01*
X120662033Y-73426190D01*
X120707144Y-73270918D01*
X120707145Y-73270912D01*
X120708790Y-73250000D01*
X120180000Y-73250000D01*
X120180000Y-73804503D01*
X119680000Y-73804503D01*
X119680000Y-73498352D01*
X119697267Y-73435233D01*
X119702494Y-73426395D01*
X119747643Y-73270993D01*
X119750500Y-73234690D01*
X119750500Y-72765310D01*
X119747643Y-72729007D01*
X119742505Y-72711323D01*
X119702495Y-72573608D01*
X119702492Y-72573600D01*
X119697266Y-72564763D01*
X119680000Y-72501645D01*
X119680000Y-72195494D01*
X119679998Y-72195493D01*
X119533809Y-72237965D01*
X119533806Y-72237967D01*
X119513608Y-72249912D01*
X119445884Y-72267092D01*
X119387370Y-72249910D01*
X119366397Y-72237507D01*
X119366390Y-72237504D01*
X119210997Y-72192357D01*
X119210991Y-72192356D01*
X119174697Y-72189500D01*
X119174690Y-72189500D01*
X118765310Y-72189500D01*
X118765302Y-72189500D01*
X118729008Y-72192356D01*
X118729002Y-72192357D01*
X118573609Y-72237504D01*
X118573606Y-72237505D01*
X118434315Y-72319881D01*
X118434307Y-72319887D01*
X118319887Y-72434307D01*
X118319881Y-72434315D01*
X118237505Y-72573606D01*
X118237504Y-72573609D01*
X118192357Y-72729002D01*
X118192356Y-72729008D01*
X118189500Y-72765302D01*
X118189500Y-73078770D01*
X118183261Y-73100015D01*
X118181682Y-73122104D01*
X118173609Y-73132887D01*
X118169815Y-73145809D01*
X118153081Y-73160308D01*
X118139810Y-73178037D01*
X118127189Y-73182744D01*
X118117011Y-73191564D01*
X118095093Y-73194715D01*
X118074346Y-73202454D01*
X118061185Y-73199591D01*
X118047853Y-73201508D01*
X118027709Y-73192308D01*
X118006073Y-73187602D01*
X117988347Y-73174333D01*
X117984297Y-73172483D01*
X117977819Y-73166451D01*
X117886819Y-73075451D01*
X117853334Y-73014128D01*
X117850500Y-72987770D01*
X117850500Y-68979930D01*
X118350000Y-68979930D01*
X118385122Y-68977167D01*
X118385128Y-68977166D01*
X118539188Y-68932407D01*
X118539191Y-68932406D01*
X118677285Y-68850738D01*
X118677294Y-68850731D01*
X118790731Y-68737294D01*
X118790738Y-68737285D01*
X118872404Y-68599194D01*
X118912844Y-68460000D01*
X118350000Y-68460000D01*
X118350000Y-68979930D01*
X117850500Y-68979930D01*
X117850500Y-68334000D01*
X117870185Y-68266961D01*
X117922989Y-68221206D01*
X117974500Y-68210000D01*
X118100000Y-68210000D01*
X118100000Y-68084499D01*
X118102486Y-68076032D01*
X118101198Y-68067301D01*
X118112179Y-68043021D01*
X118119685Y-68017460D01*
X118126354Y-68011681D01*
X118129991Y-68003640D01*
X118152355Y-67989151D01*
X118172489Y-67971705D01*
X118182764Y-67969449D01*
X118188630Y-67965650D01*
X118222664Y-67960693D01*
X118223546Y-67960500D01*
X118223750Y-67960499D01*
X118349180Y-67960499D01*
X118355294Y-67960017D01*
X118359939Y-67960001D01*
X118359990Y-67960015D01*
X118360393Y-67960000D01*
X118912844Y-67960000D01*
X118872404Y-67820805D01*
X118838581Y-67763612D01*
X118821398Y-67695888D01*
X118838582Y-67637369D01*
X118872867Y-67579396D01*
X118872869Y-67579393D01*
X118917665Y-67425204D01*
X118920500Y-67389181D01*
X118920499Y-66990820D01*
X118920499Y-66990501D01*
X118940183Y-66923462D01*
X118992987Y-66877707D01*
X119044499Y-66866501D01*
X119050500Y-66866501D01*
X119117539Y-66886186D01*
G37*
%TD.AperFunction*%
%TA.AperFunction,Conductor*%
G36*
X130741444Y-61253999D02*
G01*
X130780486Y-61299056D01*
X130784951Y-61307820D01*
X130909890Y-61479786D01*
X131060213Y-61630109D01*
X131232179Y-61755048D01*
X131232181Y-61755049D01*
X131232184Y-61755051D01*
X131421588Y-61851557D01*
X131623757Y-61917246D01*
X131833713Y-61950500D01*
X131833714Y-61950500D01*
X132046286Y-61950500D01*
X132046287Y-61950500D01*
X132202771Y-61925715D01*
X132272064Y-61934670D01*
X132309850Y-61960507D01*
X132963181Y-62613838D01*
X132996666Y-62675161D01*
X132999500Y-62701519D01*
X132999500Y-65128391D01*
X132979815Y-65195430D01*
X132927011Y-65241185D01*
X132865772Y-65252009D01*
X132815499Y-65248052D01*
X132208694Y-65854857D01*
X132184884Y-65797373D01*
X132112655Y-65689275D01*
X132020725Y-65597345D01*
X131912627Y-65525116D01*
X131855141Y-65501304D01*
X132461945Y-64894499D01*
X132461945Y-64894498D01*
X132380933Y-64835640D01*
X132171965Y-64729164D01*
X131948909Y-64656689D01*
X131717265Y-64620000D01*
X131482735Y-64620000D01*
X131251090Y-64656689D01*
X131028034Y-64729164D01*
X130819068Y-64835639D01*
X130738053Y-64894498D01*
X130738053Y-64894499D01*
X131344858Y-65501304D01*
X131287373Y-65525116D01*
X131179275Y-65597345D01*
X131087345Y-65689275D01*
X131015116Y-65797373D01*
X130991304Y-65854858D01*
X130384499Y-65248053D01*
X130384498Y-65248053D01*
X130324819Y-65330197D01*
X130269489Y-65372864D01*
X130199876Y-65378844D01*
X130138081Y-65346238D01*
X130103723Y-65285400D01*
X130100500Y-65257313D01*
X130100500Y-61823547D01*
X130120185Y-61756508D01*
X130151614Y-61723230D01*
X130279792Y-61630104D01*
X130430104Y-61479792D01*
X130430106Y-61479788D01*
X130430109Y-61479786D01*
X130555048Y-61307820D01*
X130555047Y-61307820D01*
X130555051Y-61307816D01*
X130559514Y-61299054D01*
X130607488Y-61248259D01*
X130675308Y-61231463D01*
X130741444Y-61253999D01*
G37*
%TD.AperFunction*%
%TD*%
M02*
