M48
; DRILL file {KiCad 9.0.7-9.0.7~ubuntu24.04.1} date 2026-03-19T13:06:15-0400
; FORMAT={-:-/ absolute / metric / decimal}
; #@! TF.CreationDate,2026-03-19T13:06:15-04:00
; #@! TF.GenerationSoftware,Kicad,Pcbnew,9.0.7-9.0.7~ubuntu24.04.1
; #@! TF.FileFunction,Plated,1,2,PTH
FMAT,2
METRIC
; #@! TA.AperFunction,Plated,PTH,ViaDrill
T1C0.300
; #@! TA.AperFunction,Plated,PTH,ComponentDrill
T2C0.600
; #@! TA.AperFunction,Plated,PTH,ComponentDrill
T3C1.000
; #@! TA.AperFunction,Plated,PTH,ComponentDrill
T4C1.100
; #@! TA.AperFunction,Plated,PTH,ComponentDrill
T5C1.320
%
G90
G05
T1
X99.0Y-144.5
X102.1Y-143.2
X104.7Y-104.4
X104.8Y-111.2
X105.5Y-117.2
X107.2Y-122.2
X108.5Y-111.6
X109.5Y-74.2
X109.5Y-86.6
X109.7Y-154.5
X115.5Y-71.6
X116.7Y-124.0
X117.4Y-83.5
X117.4Y-123.0
X118.6Y-71.5
X119.6Y-88.7
X119.6Y-153.7
X119.8Y-86.1
X121.0Y-93.9
X121.1Y-94.8
X121.1Y-96.9
X121.2Y-95.6
X121.3Y-61.2
X122.295Y-86.895
X122.4Y-97.8
X122.919Y-97.081
X123.0Y-94.0
X123.0Y-95.0
X123.2Y-108.8
X123.7Y-95.7
X123.7Y-96.6
X125.3Y-141.6
X126.3Y-66.5
X127.3Y-104.4
X127.5Y-106.4
X127.6Y-109.9
X127.7Y-144.6
X128.2Y-97.8
X128.805Y-98.095
X128.9Y-110.7
X129.2Y-98.7
X129.2Y-102.3
X129.2Y-103.0
X129.2Y-103.8
X129.237Y-99.4
X129.294Y-104.503
X129.6Y-94.7
X129.8Y-105.1
X130.1Y-152.0
X130.2Y-95.3
X130.7Y-102.4
X130.7Y-103.1
X130.7Y-103.9
X130.8Y-95.9
X130.9Y-99.9
X130.9Y-100.7
X130.9Y-101.5
X131.2Y-117.1
X131.2Y-118.0
X131.2Y-118.8
X131.2Y-119.6
X131.5Y-76.7
X131.5Y-96.6
X131.6Y-86.1
X131.6Y-99.9
X132.05Y-121.65
X132.2Y-97.3
X132.2Y-100.5
X132.3Y-87.0
X132.6Y-101.1
X132.6Y-101.9
X132.6Y-102.7
X132.6Y-103.5
X132.6Y-104.3
X132.9Y-98.0
X133.0Y-129.8
X133.1Y-136.7
X133.2Y-120.6
X133.6Y-98.7
X133.7Y-138.3
X134.3Y-99.3
X134.4Y-109.9
X134.7Y-101.0
X134.7Y-101.8
X134.7Y-102.6
X134.7Y-103.4
X134.7Y-104.2
X134.7Y-105.0
X134.7Y-105.8
X134.7Y-106.6
X134.7Y-107.5
X134.7Y-108.3
X134.7Y-109.1
X134.9Y-99.9
X135.4Y-118.9
X136.8Y-89.8
X136.9Y-82.9
X136.9Y-147.0
X137.2Y-111.9
X137.5Y-133.7
X138.3Y-71.5
X138.3Y-83.4
T3
X106.4Y-142.86
X106.4Y-145.4
X106.4Y-147.94
X106.4Y-150.48
X123.0Y-112.035
X123.0Y-114.575
X126.86Y-60.6
X129.4Y-60.6
X131.94Y-60.6
X134.48Y-60.6
X137.02Y-60.6
T4
X141.15Y-115.86
X141.15Y-118.4
X141.15Y-120.94
T5
X109.7Y-65.79
X109.7Y-138.01
X131.6Y-66.11
X131.6Y-105.89
T2
G00X115.18Y-60.235
M15
G01X115.18Y-61.035
M16
G05
G00X115.18Y-64.265
M15
G01X115.18Y-65.365
M16
G05
G00X123.82Y-60.235
M15
G01X123.82Y-61.035
M16
G05
G00X123.82Y-64.265
M15
G01X123.82Y-65.365
M16
G05
M30
